<?xml version="1.0" encoding="utf-8"?>
<!-- Generator: Adobe Illustrator 26.0.0, SVG Export Plug-In . SVG Version: 6.00 Build 0)  -->
<svg version="1.1" id="Layer_1" xmlnsSerif="http://www.serif.com/"
	 xmlns="http://www.w3.org/2000/svg" xmlnsXlink="http://www.w3.org/1999/xlink" x="0px" y="0px" viewBox="0 0 595.3 595.3"
	 style="enable-background:new 0 0 595.3 595.3;" xml:space="preserve">
<style type="text/css">
	.st0{fill-rule:evenodd;clip-rule:evenodd;fill:#800808;}
</style>
<g id="Mars">
	<g transform="matrix(1.08591,0,0,1.08591,-437.715,-1248.27)">
		<g transform="matrix(3.125,0,0,3.125,-1662.68,1085.13)">
			<path class="st0" d="M716.9,84.9c-0.1-0.1,0.4-0.8,0.7-1.4C717.6,83.6,717.2,84.3,716.9,84.9z M716.4,84.6
				c0.6-0.9,1.1-1.4,0.7-0.5C716.3,85.6,716.7,84.3,716.4,84.6z M715.8,84.3C715.6,84.5,716.1,83.8,715.8,84.3z M713.6,84
				C713.4,84.3,713.9,83.5,713.6,84z M720.9,139.5C721.1,139.8,720.5,139.1,720.9,139.5z M754.5,153.2c0.1-0.1,1-0.1,1.5-0.1
				c0.2,0,0.3,0,0.1,0.1C755.9,153.2,755.5,153.2,754.5,153.2C754.6,153.3,753.2,153.2,754.5,153.2z M757.2,153.2
				c0,0.1-1.1,0.1-1.8,0.1C755.5,153.3,756.5,153.3,757.2,153.2z M706.7,115.8c0.3,0.8,0.7,2.2,1,3.4c-0.1-0.1-0.3-0.6-0.5-1.3
				C707,117.2,706.8,116.4,706.7,115.8z M746.5,152.7C746.9,152.8,745.9,152.6,746.5,152.7z M759.9,153.5c-1.3,0.2-2,0.1-2,0
				c0-0.1,0.6-0.2,2-0.3L759.9,153.5z M729.6,147.2c-1.2-0.6-1.7-1-1.6-1.1c0-0.1,0.6,0.2,1.7,0.9L729.6,147.2z M760,154
				c-1.3,0.2-2,0.1-2,0c0-0.1,0.7-0.2,2-0.3L760,154z M709.1,82.6c0.7-0.6,1.2-0.6,1.5-0.4c0.3,0.3,0.5,0.9,0.6,1.4
				c-0.5,0.7-0.9,1.1-1.1,1.2c-0.2,0.1-0.4-0.1-0.5-0.3C709.5,84,709.5,83,709.1,82.6z M712.3,132.7
				C711.8,132.5,713.1,133.1,712.3,132.7z M709.4,80.7c0.5-0.9,0.8-1.3,1-1.4c0.2-0.2,0.2-0.1,0.3,0c-0.8,1.4-1.2,2.1-1.4,2.2
				C709,81.7,709.1,81.3,709.4,80.7z M707.7,84c-0.1-0.1,0.4-1,0.7-1.7C708.5,82.3,708,83.3,707.7,84z M760.1,155.6
				C760.5,155.6,759.5,155.6,760.1,155.6z M709.6,79.7C709.9,78.6,710.4,79,709.6,79.7z M709.4,78.5c0.6-1.3,1-1.6,1.1-1.5
				c0.1,0.1,0,0.6-0.2,1c-0.5,0.7-0.6,1-0.7,0.9c0,0,0-0.3,0.1-0.5C709.9,77.9,710.2,77.3,709.4,78.5z M784.3,61.4
				C784,61.1,784.8,61.7,784.3,61.4z M731.9,152.8C730.8,152.6,731,152,731.9,152.8z M716.6,67.1c0.7-0.7,1.2-1.1,1.4-1.2
				c0.3-0.2,0.4-0.1,0.3,0c-0.2,0.3-0.9,1.2-2,2.3C717.1,67.2,716.7,67.3,716.6,67.1z M729.9,152.6c-0.8-0.3-1.4-0.6-1.6-0.9
				c-0.2-0.2,0-0.2,0.9,0.2c0.8,0.4,1,0.6,1,0.6c0,0-0.3-0.1-0.5-0.2C729.1,152.1,728.5,151.9,729.9,152.6z M718.4,64.8
				c1.9-1.5-0.4,0.7-2,2.2C716.5,66.7,717.7,65.5,718.4,64.8z M728.3,153.4c-0.8-0.5-1.1-0.7-1-0.8c0-0.1,0.3,0,0.6,0.1
				c0.6,0.2,1.3,0.4-0.1-0.5c1.7,0.9,2.3,1.2,2.2,1.4C729.9,153.8,729.1,153.7,728.3,153.4z M789.6,149.2
				C789.9,149,789,149.5,789.6,149.2z M781,154.5c-1.3,0.8-2.1,1.1-2.2,1.1C778.7,155.6,779.4,155.2,781,154.5z M783.7,153.2
				c-0.8,0.5-1,0.5-1.3,0.5c-0.2,0.1-0.5,0.1-1.5,0.7c0.1-0.1,0.7-0.4,1.4-0.8c0.7-0.4,1.5-0.8,2.2-1.2
				C784.6,152.5,783.4,153.2,783.7,153.2z M770.6,158.7C771,158.6,769.9,158.8,770.6,158.7z M783.7,153.2
				C784.1,153.1,783.1,153.5,783.7,153.2z M790.7,148.9C791,148.7,790.1,149.3,790.7,148.9z M781.3,155.2
				C781.7,155,780.6,155.4,781.3,155.2z M773.9,158.9c-0.5,0.3-0.8,0.3-0.9,0.3C773,159.1,773.3,159,773.9,158.9z M783.6,155.1
				c0,0.1-1.1,0.7-1.8,1C781.7,156,782.9,155.5,783.6,155.1z M775,159c0,0.1-1.2,0.5-2,0.7C773,159.6,774.2,159.2,775,159z
				 M755.5,165.7c1.1-0.1,0.8-0.2,0.9-0.4c0-0.1,0.1-0.1,0.4-0.2c0.3-0.1,0.9-0.1,2-0.2c-1.4,0.2-0.7,0.3-0.4,0.4
				c0.2,0.1,0.2,0.1-0.2,0.2C757.8,165.6,757,165.6,755.5,165.7z M705.3,68.3c0-0.1,0.8-1.1,1.3-1.8
				C706.6,66.5,705.8,67.6,705.3,68.3z M755.5,166.3c-0.9,0-1.2,0-1.2,0c0,0,0.4,0,0.8-0.1C755.9,166.2,756.8,166.1,755.5,166.3z
				 M706.2,66.1C705.9,66.5,706.7,65.6,706.2,66.1z M706.6,65c0-0.1,0.9-1.1,1.4-1.7C708.1,63.3,707.1,64.3,706.6,65z M754.3,167.3
				c-1.5-0.1-1.8-0.2-1.6-0.3c0.1-0.1,0.6-0.2,0.5-0.3c1.8,0.1,2.2,0.2,2.1,0.3C755.2,167.1,754.5,167.2,754.3,167.3z M693.1,119
				C693.2,119.5,693,118.3,693.1,119z M707.9,63.1c0.5-0.3-0.1,0.3-0.5,0.7C707,64.2,706.7,64.3,707.9,63.1
				c-0.5,0.3,0.1-0.3,0.5-0.7C708.8,62,709,61.8,707.9,63.1z M712.6,58.2c0-0.1,1-1,1.7-1.5C714.4,56.7,713.3,57.6,712.6,58.2z
				 M713.4,57.3C714.2,56.2,714.6,56.7,713.4,57.3z M744.1,167C744.5,167.1,743.3,166.8,744.1,167z M768,166.7c-0.6,0.3-1,0.3-1,0.2
				C767,166.8,767.3,166.7,768,166.7z M708.8,60.8c1.4-1.4,1.8-1.7,1.8-1.6c0,0.1-0.5,0.7-0.8,1C708.7,61.3,709,60.7,708.8,60.8z
				 M749.7,168.2c-1-0.2-1.1-0.3-0.9-0.3c0.3,0,0.9,0,1.5,0.1c0.6,0,1.2,0.1,1.2,0.1C751.7,168.2,751.2,168.2,749.7,168.2z
				 M717.5,53.2C718.4,52.2,718.8,52.7,717.5,53.2z M760.1,168.7C758.9,169,759.5,168.9,760.1,168.7
				C760.7,168.6,761.3,168.5,760.1,168.7z M710.7,57.8c1.2-0.9,1-0.5,0.3,0.3c-1,0.9-1.2,0.9-1.1,0.7
				C710,58.6,710.4,58.1,710.7,57.8z M718,51.9c1.3-0.9,2.1-1.4,2.6-1.6c0.5-0.2,0.6-0.2,0.5,0c-0.7,0.4-1.7,1-2.4,1.4
				C718,52.1,717.6,52.3,718,51.9z M720.7,49.6c1.3-0.7,2-1,1.7-0.7c-0.2,0.2-1.4,0.9-3.5,2.3c0.2-0.2,0.7-0.6,1.1-0.9
				C720.5,49.9,720.8,49.6,720.7,49.6z M743.7,169c-0.6-0.3,0.3-0.2,0.9,0c0.3,0.1,0.5,0.1,0.4,0.2C745,169.2,744.6,169.1,743.7,169
				c0.6,0.3-0.3,0.2-0.9,0c-0.3-0.1-0.5-0.2-0.4-0.2C742.5,168.8,742.8,168.9,743.7,169z M712.3,155.7c-1.2-1.1-0.1-0.5,0.3-0.4
				c0.8,0.7,1.3,1.1,1.5,1.3c0.2,0.2,0.1,0.2-0.1,0.1C713.6,156.6,712.7,156,712.3,155.7z M740,169.2
				C740.5,169.4,739.3,169,740,169.2z M712.2,155.8c-0.1,0-1.2-0.9-1.9-1.5C710.4,154.2,711.5,155.2,712.2,155.8z M688,101.9
				c0.1-1,0.2-1.2,0.2-1c0,0.1,0,0.7,0,1.2c0,0.5-0.1,1-0.1,1.1C688,103.3,688,103,688,101.9c-0.2,0.6-0.2-0.3-0.1-0.9
				c0-0.3,0.1-0.5,0.1-0.5C688,100.6,688,101,688,101.9z M767.5,170.3c0,0.1-1.4,0.3-2.4,0.5C765.2,170.7,766.6,170.5,767.5,170.3z
				 M687.3,99.5c0.1-0.8,0.2-1.3,0.2-1.8c0.1-0.5,0.2-1,0.3-1.8c0.1,0.3-0.1,1.4-0.2,2.4C687.5,99.2,687.4,100,687.3,99.5z
				 M736.3,169.1C736.8,169.3,735.6,168.9,736.3,169.1z M687.2,98.2c0.1-0.8,0.2-1.6,0.3-2.4l0.2,0c-0.1,0.8-0.2,1.6-0.3,2.4
				L687.2,98.2z M735.1,169C733.7,168.9,733.8,168.3,735.1,169z M707.8,153.5c-0.6-0.4-0.8-0.7-0.8-0.7
				C707,152.7,707.4,152.9,707.8,153.5z M687.7,92.1c0.1-0.2,0.1,0.3,0,1.1c-0.1,0.9-0.3,2.2-0.5,3.7c-0.1,0.2-0.1-0.3-0.1-1.1
				C687.2,95,687.4,93.7,687.7,92.1z M760.4,172.2c-1.3,0.1-1.9,0.1-2.2,0.1c-0.3,0-0.2-0.1-0.3-0.2c1,0,1.2,0,2.4-0.1L760.4,172.2z
				 M739.7,39.1C739.2,39.2,740.5,39,739.7,39.1z M750.6,172.3c0,0.1-1.5,0-2.5-0.1C748.2,172.1,749.7,172.2,750.6,172.3z
				 M762.8,172C763.4,172,762,172,762.8,172z M806.1,59C805.8,58.6,806.6,59.6,806.1,59z M823.6,92.6c0.2,1.3,0.1,1.4,0,0.8
				c-0.2-0.6-0.5-1.8-0.8-3.2C823.1,90.8,823.4,91.9,823.6,92.6z M702.8,149.7C702.1,149.4,703.8,150.2,702.8,149.7z M755.5,173.5
				c-1.1-0.1-1.4-0.1-1.4-0.2c0.1,0,0.5-0.1,1-0.1C756.1,173.2,757.2,173.3,755.5,173.5z M823,87.6C822.8,87.1,823.1,88.4,823,87.6z
				 M750.5,174.1c-1.6,0-2-0.1-1.9-0.1C748.8,173.9,749.6,173.9,750.5,174.1z M687.2,85.6c0.5-0.6,0.3,0.3,0,0.9
				c-0.1,0.3-0.2,0.6-0.3,0.5C686.9,86.9,686.9,86.5,687.2,85.6c-0.3,0.5-0.1-0.4,0.2-1c0.1-0.3,0.2-0.5,0.2-0.4
				C687.5,84.3,687.4,84.6,687.2,85.6z M739.2,172.8C737.4,172.5,738.3,172.6,739.2,172.8C740.1,172.9,741,173.1,739.2,172.8z
				 M695.5,142.7C695.7,142.3,698.3,146.8,695.5,142.7C695.5,142.8,694.5,141.1,695.5,142.7z M689.5,78.3c0.3-1.4,1.6-3.3,1.2-2.2
				c-0.5,1-0.7,1.5-0.8,1.7c-0.1,0.2-0.1,0.1-0.1,0C689.9,77.6,690,77.1,689.5,78.3z M734.2,171.9
				C734.7,172,733.5,171.6,734.2,171.9z M739.1,173.2l-3.7-1c0-0.2,0.7,0,1.9,0.3c1.2,0.3,2.8,0.7,4.3,1c-0.4,0-1.1-0.2-1.7-0.3
				C739.4,173.2,739,173.1,739.1,173.2z M753,34.9c0.7-0.2,1.1-0.1,1.1,0C754.1,34.9,753.7,35,753,34.9z M694.3,142
				c-0.5-0.5-1.1-1.7-1.3-2.2c-0.1-0.2-0.1-0.3,0.2,0c0.2,0.3,0.6,0.9,1.3,2.1C693.9,141.3,693.5,140.6,694.3,142z M695.7,144.1
				C695.9,144.6,695.2,143.4,695.7,144.1z M687.7,129.5c-0.1,0-0.6-1.5-0.9-2.4C686.8,127.1,687.3,128.6,687.7,129.5z M693.3,141
				c-0.1,0-0.9-1.3-1.4-2.2C692,138.8,692.8,140.2,693.3,141z M688,79.1c0.5-1.2,0.8-1.5,0.8-1.3c0.1,0.2-0.1,0.9-0.3,1.5
				c-0.4,0.9-0.6,1.3-0.7,1.4c-0.1,0.1-0.1-0.1,0-0.4C687.9,79.7,688.2,78.8,688,79.1z M703.4,154.3
				C703.8,154.7,702.9,153.7,703.4,154.3z M756.8,33.9C756.3,33.9,757.7,34,756.8,33.9z M688.6,76.5c0.4-0.9,0.6-1.2,0.7-1.3
				c0.1-0.1,0,0.2-0.1,0.5c-0.2,0.6-0.6,1.5-0.2,1c-0.6,1.5-0.7,1.5-0.7,1.2C688.3,77.5,688.6,76.7,688.6,76.5z M690.2,136.9
				c-0.5-0.6-0.6-1-0.5-1C689.8,135.8,690,136.1,690.2,136.9z M735.1,173.6C735,173.5,736.9,174.1,735.1,173.6
				c-0.2,0.1-1.4-0.3-2-0.5c-0.3-0.1-0.4-0.2-0.2-0.1C733.1,173,733.8,173.2,735.1,173.6z M740.1,174.9c-1-0.1-1.7-0.3-1.9-0.4
				C738.1,174.4,738.5,174.4,740.1,174.9z M721.7,168.6C722.2,168.8,721,168.1,721.7,168.6z M685.3,126.2
				C685.4,126.7,685.1,125.4,685.3,126.2z M727.5,171.5C728,171.7,726.8,171.1,727.5,171.5z M737.4,174.9
				C736.5,174.9,740.1,174.9,737.4,174.9z M701.5,154.4c-0.7-0.7-0.9-1-0.9-1.1c0-0.1,0.2,0.1,0.5,0.4c0.5,0.5,1.2,1.1,0.7,0.4
				c0.8,0.8,1.2,1.3,1.5,1.6c0.2,0.3,0.2,0.3,0,0.2C702.9,155.7,702,154.9,701.5,154.4z M720.2,168.6l0.1-0.3c1.1,0.6,2,1,2.5,1.3
				c0.5,0.3,0.7,0.4,0.6,0.4C723.3,170.1,722.1,169.6,720.2,168.6z M683.7,122.5c-0.3-1.3-0.3-1.7-0.5-2.2c-0.1-0.5-0.3-1.2-0.6-2.9
				c0.3,1.4,0.5,1.5,0.7,2c0.1,0.3,0.2,0.6,0.4,1.3c0.2,0.7,0.4,1.6,0.8,3.1C683.7,121.4,684.4,124.3,683.7,122.5z M686.5,131.3
				c-0.4-0.7-0.5-1-0.4-1.1C686.2,130.2,686.4,130.6,686.5,131.3z M695.2,147.6c-0.5-0.7-1-1.4-1.5-2.2l0.1-0.1
				c0.5,0.7,1,1.4,1.5,2.2L695.2,147.6z M681.8,116.2c-0.2-1.6-0.2-1.7-0.1-1.4c0.1,0.4,0.3,1.2,0.4,1.3c0.3,1.6,0.2,1.7,0.1,1.4
				C682,117.2,681.8,116.4,681.8,116.2z M719.9,169.2c-1.7-0.9-2.5-1.4-2.5-1.5c0-0.1,0.9,0.3,2.6,1.3L719.9,169.2z M696.6,59.9
				c0.3,0,0,0.9-0.8,2.5c-0.8,1.6-1.9,3.7-3.1,6c-0.1-0.4,0.5-1.8,1.3-3.5C694.7,63.2,695.8,61.3,696.6,59.9z M686.5,132.8
				c-0.1-0.1-0.4-0.7-0.6-1.3c-0.2-0.6-0.4-1.1-0.4-1.2C685.8,130.8,685.9,131.4,686.5,132.8z M683,122.7
				C683.1,123.3,682.9,121.9,683,122.7z M725.8,172.2c-0.8-0.3-1.6-0.7-2.4-1.1l0.1-0.1c0.8,0.4,1.6,0.7,2.4,1.1L725.8,172.2z
				 M718.7,168.7c-0.7-0.2-1-0.5-1-0.6C717.7,168.1,718.1,168.2,718.7,168.7z M730.8,174.2c-1.5-0.5-1.6-0.7-1.3-0.7
				c0.3,0,1.1,0.2,1.4,0.3c1.5,0.5,1.6,0.6,1.3,0.6C731.9,174.4,731.1,174.3,730.8,174.2z M686.9,134.1c0-0.3,0.8,1.3,0.8,1.1
				c0.5,1.1,0.7,1.6,0.5,1.5C688.1,136.6,687.6,135.8,686.9,134.1c0.1,0.6-0.3-0.3-0.5-0.9c-0.1-0.3-0.2-0.5-0.1-0.5
				C686.3,132.8,686.5,133.2,686.9,134.1z M702.7,156.9c-0.7-0.4-0.9-0.8-0.8-0.8C701.9,156.1,702.2,156.3,702.7,156.9z
				 M681.1,113.6C681.1,114.1,681,112.7,681.1,113.6z M684.2,127.9c-0.5-1.7-0.5-2.5-0.3-2.2c0.1,0.1,0.3,0.6,0.6,1.3
				c0.3,0.7,0.7,1.8,1.2,3.2c-0.6-1.1-0.8-1.5-0.9-1.6C684.6,128.4,684.6,128.4,684.2,127.9z M694,146.9c-0.1,0-1-1.3-1.6-2.2
				C692.5,144.7,693.4,146,694,146.9z M716.3,167.6C716.7,167.9,715.5,167.1,716.3,167.6z M729.5,173.9
				C730,174.1,728.7,173.5,729.5,173.9z M715,167C715.5,167.3,714.3,166.5,715,167z M720.9,170.3c-0.8-0.2-1.1-0.5-1-0.5
				C719.9,169.7,720.2,169.8,720.9,170.3z M717.2,168.7c-1-0.7-1.3-0.9-1.2-0.9c0.1,0,0.6,0.3,1,0.6c0.5,0.3,1,0.6,1.1,0.7
				C718.3,169.2,718.1,169.1,717.2,168.7z M682.2,122.9c-0.4-1.4-0.5-2.2-0.5-2.5c0-0.3,0-0.1,0.2,0.2c0.2,0.7,0.7,2.1,0.8,2.2
				c0.2,1.2,0.5,2.3,0.7,2.6c0.3,1.3,0.4,1.6,0.3,1.4c-0.1-0.2-0.3-1-0.6-1.8C682.5,123.3,682,121.4,682.2,122.9z M726.7,173.5
				c-1.3-0.5-2-0.8-2.2-1c-0.2-0.1-0.1-0.1,0.3,0c0.7,0.2,2.1,0.6,2.1,0.6C730.4,174.5,726.5,173.2,726.7,173.5z M680.4,113.7
				C680.4,114.2,680.4,112.8,680.4,113.7z M717.1,168.8c-0.2,0-0.8-0.4-1.3-0.7c-0.5-0.3-1-0.7-1-0.7
				C715.4,167.6,715.8,168,717.1,168.8z M724.2,172.6C724.7,172.8,723.4,172.2,724.2,172.6z M691.7,145.2c-1.1-1.6-1.5-2.5-1.5-2.6
				c0.1,0,0.6,0.8,1.7,2.4L691.7,145.2z M727.9,174.2c-0.1,0.1-1.6-0.5-2.5-0.9C725.4,173.2,726.9,173.8,727.9,174.2z M696.4,151.8
				C695.1,150.3,695.7,151.1,696.4,151.8l0.8,0.8C697.2,152.7,697.1,152.5,696.4,151.8z M709,164c0.8,0.5,1.1,0.4,1.7,0.7
				c0.3,0.1,0.7,0.4,1.4,0.8c0.7,0.4,1.6,1,2.9,1.8c-1.4-0.8-1.6-0.7-2.1-0.9c-0.2-0.1-0.5-0.2-1.1-0.5
				C711.1,165.5,710.3,164.9,709,164z M719.3,170.4c1.2,0.7,1.5,0.9,2,1.1l2.8,1.3c0.3,0.2-1.3-0.4-2.7-1.1
				C720,170.9,718.7,170.2,719.3,170.4z M722.8,172.4c-0.1,0.1-1.5-0.6-2.5-1.1C720.4,171.2,721.9,172,722.8,172.4z M693.7,148.8
				c0.4,0.4,1.1,1.3,2.6,3.1C696.6,152.5,694.9,150.5,693.7,148.8z M686.6,137.2C685.9,136.6,687.5,138,686.6,137.2z M708.8,164.2
				c-0.7-0.4-1-0.7-0.9-0.7C707.9,163.4,708.3,163.6,708.8,164.2z M721.5,172C722,172.3,720.7,171.6,721.5,172z M715.5,168.9
				c-1.1-0.7-2.4-1.6-3.4-2.3c-1.1-0.8-1.9-1.4-2-1.7c1.1,0.9,1.9,1.4,2.5,1.8c0.6,0.4,1.1,0.7,1.6,0.9c0.5,0.2,0.9,0.5,1.5,0.8
				c0.6,0.3,1.3,0.8,2.4,1.4c-1.1-0.5-2.2-1.2-2.8-1.4C714.7,168.2,714.6,168.2,715.5,168.9z M719.1,170.8
				C719.5,171.1,718.3,170.4,719.1,170.8z M730.2,34.1c0-0.1,1.5-0.6,2.6-0.9C732.8,33.3,731.2,33.7,730.2,34.1z M707.7,163.5
				C708.1,163.9,707,162.9,707.7,163.5z M715.4,169C715.9,169.3,714.7,168.5,715.4,169z M685.1,134.9c-0.1-0.1-0.4-0.6-0.7-1.4
				c-0.3-0.7-0.7-1.6-1-2.4c0.1,0.1,0.3,0.7,0.6,1.4C684.4,133.2,684.7,134.1,685.1,134.9z M678.6,102.9c0.1-1.1,0.2-0.9,0.2-0.1
				c0.1,0.9,0.1,2.4,0.2,4.2l0.1,0c0-1,0-1.4,0.1-1.4c0,0.1,0.1,0.5,0.1,1.2c0.1,1.3,0.2,3.4,0.2,4.2c-0.1,0-0.2-0.9-0.2-1.9
				c-0.1-1-0.1-2-0.2-2.1c0,1.2,0.1,2,0.1,2.1c0,0.1-0.1-0.4-0.1-2.1c-0.1-0.1-0.2-0.1-0.3-0.7C678.6,105.8,678.5,104.8,678.6,102.9
				z M704.2,161.2c0.6,0.5,0.7,0.5,1,0.7c0.3,0.2,0.8,0.6,2.3,1.8c0,0.1-0.2,0-0.8-0.4C706.2,162.9,705.3,162.2,704.2,161.2z
				 M692.2,148.2c-0.5-0.7-1-1.5-1.5-2.3l0.1-0.1c0.5,0.8,1,1.5,1.5,2.3L692.2,148.2z M714,168.7c-0.8-0.3-1-0.6-1-0.6
				C713,168,713.4,168.2,714,168.7z M707.2,164C707.7,164.4,706.5,163.4,707.2,164z M678,98.7c-0.1,0,0.1-1.7,0.2-2.8
				C678.3,96,678.1,97.6,678,98.7z M702.6,160.9c-1-0.8-1.5-1.4-1.7-1.7c-0.2-0.3-0.1-0.3,0.2-0.1c0.6,0.4,2.1,1.7,3.9,3.3
				c-0.3-0.1-0.9-0.6-1.4-1C703.1,161.1,702.6,160.8,702.6,160.9z M685.2,137.9c-0.7-1.4-1-2.2-1.1-2.6c-0.1-0.3,0-0.2,0.2,0
				c0.4,0.6,1.2,2,1.4,2.3c0.4,0.9,0.6,1.3,0.6,1.4c0,0.1-0.2-0.2-0.4-0.5C685.4,137.9,684.9,137,685.2,137.9z M707.9,165.4
				c-0.2-0.1-0.7-0.5-1.2-0.9c-0.5-0.4-1-0.8-0.9-0.8C706.3,163.9,706.7,164.4,707.9,165.4z M710.1,167c-1-0.7-1.4-1.2-1.2-1.1
				c0.2,0,1,0.5,2.5,1.7C711.5,167.8,710,166.8,710.1,167z M693.1,150.9C693.5,151.4,692.6,150.1,693.1,150.9z M678.2,91.7
				C678,92.2,678.4,90.8,678.2,91.7z M703.1,162.6c-1.6-1.3-2.2-2.1-2.2-2.1c0.1-0.1,0.8,0.6,2.3,2L703.1,162.6z M682.5,134.5
				c-0.5-1.1-0.8-1.8-0.9-2.3c-0.1-0.4-0.1-0.5-0.1-0.5c0.1,0.1,0.5,0.9,0.7,1.3C682.9,134.8,682.5,134.2,682.5,134.5z M679.1,126.7
				c-0.4-1.6-0.5-2.4-0.4-2.3c0.1,0.1,0.5,1.2,1.2,3.6c0,0.3-0.2-0.3-0.4-0.8C679.2,126.5,679,126.1,679.1,126.7z M680.4,130.7
				C680.6,131.3,680.1,129.8,680.4,130.7z M688.5,147.3C688.8,147.8,688.1,146.5,688.5,147.3z M676.7,118.4
				c-0.2-1.4-0.5-2.8-0.6-4.3c0-0.6,0.1-0.1,0.3,0.5c0.1,0.6,0.2,1.2,0.3,0.9c0.1,1,0.1,1.6,0.1,1.9
				C676.8,117.8,676.7,118,676.7,118.4z M675.3,112.8c-0.1-1.2,0-1.9,0.1-1.8c0.1,0.1,0.3,1,0.5,3.2c-0.1,0.3-0.2-0.3-0.3-0.9
				C675.4,112.7,675.3,112.2,675.3,112.8z M684.4,143.1C684.7,143.6,684,142.2,684.4,143.1z M684.3,143.1
				C684.5,143.7,683.8,142.3,684.3,143.1z M683.2,142.1C683.4,142.6,682.8,141.2,683.2,142.1z M673.7,108.6c0.1-0.1,0.2,0.9,0.3,2.2
				c0.1,1.3,0.3,2.8,0.3,3.6C674.2,114,673.9,111.9,673.7,108.6z M673.1,101.2c0.1-1,0.2-1.5,0.2-1.7c0.1-0.1,0.2,0.1,0.2,0.6
				c0.1,1,0.2,3.1,0.3,5.5c0.1-1.6,0.1-1.3,0.2-0.8c0.1,0.6,0.2,1.4,0.3,0.8c0,0.8,0,1.9,0.1,2.7c0,0.8,0.1,1.5,0.2,1.6
				c0,1.1,0,1.5,0,1.6c-0.1,0-0.1-0.3-0.2-0.9c-0.2-1.1-0.4-2.9-0.5-3.6c0-0.5,0-1,0-1.4c-0.2,0.9-0.4-0.3-0.4-1.8
				C673.4,102.5,673.3,100.9,673.1,101.2z M684.6,129.2c0.4,1.1,0.7,1.8,1,2.4l1.1,2.5c-1-1.7-1.9-3.1-2.8-4.6
				c-0.8-1.4-1.6-2.8-2.3-4.2c-0.7-1.4-1.4-2.8-2.1-4.5c-0.7-1.6-1.3-3.4-1.9-5.6c0.1,1.2,0.3,2.5,0.3,2.8c-0.9-3.4-1.4-6.1-1.9-8.3
				c-0.4-2.2-0.8-3.9-1.1-5.5c-0.3-1.5-0.6-2.9-0.8-4.3c-0.2-1.4-0.4-2.9-0.5-4.8c-0.1-1.5,0.1-3.9,0.4-6.3c0.3-2.4,0.6-4.6,0.7-5.6
				c0,0-0.2,0.7-0.3,0.8c0,0.1-0.1,0,0-0.3c0.1-0.3,0.2-1,0.6-2c-0.4,0.9-0.6,1.1-0.6,0.7c0-0.3,0.1-1.2,0.3-2.4
				c-0.5,1.6-0.8,2.7-1,3.3c-0.2,0.6-0.2,0.8-0.3,0.8c0-0.1,0.1-1,0.1-1.2c-0.6,2.2-0.7,2.9-0.7,3.4c0,0.5,0,0.9-0.4,2.6
				c0.4-2.1,0.7-3.1,0.9-3.7c0.2-0.5,0.3-0.6,0.4-0.7l-0.8,2.9c-0.2,0.7-0.4,1.4-0.5,3l0.4,0.1c0.3-1.8,0.7-3.5,0.7-2.9
				c-0.4,1.8-0.7,3.5-0.7,2.9c-0.3,1.5-0.5,3-0.7,4.5c0.1,0.1,0.1,1,0.2,1.2c0.1,0.2,0.2-0.2,0.5-2.6c-0.1,0.8-0.2,2-0.2,3.3
				c-0.1,1.3-0.1,2.6,0,3.7c0,1.1,0.1,1.9,0.1,2c0.1,0.2,0.1-0.2,0.2-1.6c0-1-0.1-1.8-0.1-2.7c0-0.9,0-1.9,0.1-3.2
				c0.2-0.4,0.3,0.3,0.3,1.1c0,0.8,0,1.8,0,1.9c-0.1,1.5-0.2,1.7-0.3,2.9c0.1,0,0,1.8,0,2.9c0.2-0.1,0.3,0.4,0.4,1.5
				c0.1,1.1,0.2,3,0.5,5.8l-0.2,0c0.2,2.1,0.4,3.1,0.6,3.8c0.2,0.7,0.3,1.1,0.6,1.9c-0.3-2-0.3-3-0.4-3.6l-0.1-2.2
				c0.1,0.7,0.3,1.5,0.5,2.9c0.1-0.4,0.2-0.1,0.5,0.8c0.3,1,0.6,2.6,1.2,4.8c0,0.7-0.2,0.3-0.4-0.3c-0.2-0.6-0.5-1.3-0.6-1
				c-0.3-1.4-0.5-2.9-0.6-4.3c0.1,1.8,0.2,2.1,0.1,2.2c0,0.1-0.1,0-0.1,0.7c0.4,2.2,0.8,3.7,1.2,4.6c0.3,0.9,0.5,1.3,0.7,1.4
				c0.3,0.2,0.4-0.6,0.5-0.6c-0.2-1.1-0.6-2.8-0.5-2.8c0.2,1.1,0.6,2.8,0.5,2.8c0.3,1.4,0.5,1.8,0.7,2.4c0.2,0.6,0.4,1.2,1,3.1
				c0.3,0.6,0.9,1.8,1.6,3.3c0.7,1.6,1.6,3.5,2.6,5.8c0.6,0.9,0.1-0.1-0.5-1.4c-0.6-1.3-1.2-2.8-1-2.6c0.4,0.3,1,1.4,1.8,2.8
				c0.8,1.4,1.8,3.2,2.8,4.8c1,1.7,2.1,3.2,3,4.4c0.9,1.1,1.6,1.9,1.9,1.9c-0.9-1.1-1.3-1.8-1.4-2.1c-0.2-0.3-0.1-0.2,0.1,0
				c0.4,0.5,1.2,1.6,1.3,2.1c1.3,1.8,2.2,2.8,2.8,3.3c0.6,0.5,0.9,0.6,1,0.6c-1-1.3-1.9-2.6-1.5-2.3c0.8,1.1,1,1.3,1.7,2.1l-0.2,0.1
				c0.2,0.1,1.5,1.4,3.1,2.8c1.6,1.5,3.7,3.1,5.2,4.1c1.5,1,2.7,1.6,3.1,1.6c0.4,0,0.1-0.5-1.2-1.7l1.8,1.4c0.7,0.6,1.5,1.1,2.2,1.5
				c0.6,0.4,1,0.7,1,0.6c0-0.1-0.5-0.5-1.6-1.5c3.2,2.4,6.4,4,8.5,4.8c1,0.4,1.8,0.6,2.2,0.6c0.4,0,0.4-0.2-0.1-0.6
				c2,1.1,3.6,1.7,4.9,2.1c1.2,0.4,2.2,0.6,3,0.7c0.8,0.1,1.5,0.1,2.4,0.2c0.8,0.1,1.8,0.3,3.1,0.6c0.1,0,0.2,0,0.5,0
				c0.3,0.1,0.9,0.2,1.9,0.6c-0.3,0-1.3-0.3-2.4-0.6c0,0.3-0.6,0.3-1.6,0.2c-1-0.1-2.3-0.4-3.5-0.6c-1.2-0.3-2.3-0.5-2.9-0.6
				c-0.6-0.1-0.7,0.1,0.1,0.6c-2.6-1.2-4.5-2-5.4-2.3c-0.9-0.3-0.9,0,0.4,0.8c-0.9-0.5-1.4-0.8-1.8-1c-0.4-0.2-0.8-0.4-1.5-0.9
				c-0.8-0.1-2.2-0.6-3.8-1.3c-1.6-0.7-3.3-1.6-5-2.6c-1.7-1-3.3-2-4.5-2.7c-1.2-0.7-2.1-1.2-2.5-1.1c-1.3-1.2-2.2-2.1-2.9-2.8
				c-0.7-0.7-1.2-1-1.4-1.2c-0.6-0.4-0.5,0-0.2,0.7l-3.3-3.8c-0.9-1-1.6-1.8-2.2-2.4c-0.8-0.9-1.5-1.4-2.1-1.9
				c-0.6-0.5-1.2-0.9-1.8-1.4c-0.6-0.5-1.3-1.1-2.2-2.1c-0.8-1-1.8-2.2-3-4.1c0.7,1.5,1.1,2.3,1.2,2.6c-1.3-2.6-2-4.1-2-3.9
				c0.7,1.8,0.4,1.3,0.2,1c-0.1-0.2-0.2-0.3-0.1-0.1c0.1,0.2,0.3,0.7,0.8,1.9c-0.5-1-1.1-2.1-1.9-4l-0.2,0.1c0.7,1.6,0.3,0.9,0,0
				c-0.4-0.5-0.9-0.9-1.8-2.5c1.9,4.1,3.9,7.2,5.8,9.8c1.9,2.6,3.8,4.6,5.6,6.4c1.8,1.8,3.6,3.3,5.4,4.9c1.8,1.5,3.8,3.1,6,4.7
				c0.7,0.6,1.3,1.3,2,1.9c-0.7-0.3-1.6-0.9-2.6-1.6c-1-0.7-2-1.5-2.9-2.2c-1.8-1.5-3.2-2.6-2.9-1.7c1.1,0.9,1.6,1.7,2.9,3.2
				c-0.4-0.5,0.4,0.2,0.9,0.7c0.3,0.2,0.5,0.4,0.4,0.3c-0.1-0.1-0.4-0.4-1.1-1.2c-0.2-0.1-0.8-0.7-1-1.1c-0.2-0.3-0.1-0.3,1.1,1
				c0.9,0.9,0.7,0.5,0.8,0.4c0,0,0.2,0,0.5,0.3c0.4,0.3,1,0.9,2.1,1.9c0.2,0.3-0.3-0.1-0.8-0.4c-0.5-0.4-0.9-0.7-0.6-0.2
				c1.7,1.7,2.3,2.1,2.7,2.3c0.4,0.2,0.7,0.3,1.7,1.2c-0.9-0.8-1.4-1.2-1.7-1.5c-0.3-0.3-0.3-0.4-0.3-0.5c-0.6-0.6-1.2-1.1-1-1
				c0.6,0.6,1.2,1.1,1,1c1,0.9,2.1,1.9,3.2,2.7c-0.2-0.3,0.7,0.3,1.4,0.8c0.7,0.5,1.1,0.8,0-0.3c1.3,1.1,2.2,1.8,2.3,1.6
				c-0.1-0.1-0.7-0.6-1.2-1c-0.5-0.4-1-0.8-1-0.8c-0.7-0.5-1.3-1-1-0.9c-0.4-0.3-0.7-0.6-1.1-0.9c-2.2-1.7,0.2,0.3,0.9,1.1
				c-0.8-0.7-1.8-1.5-2.6-2.2c-0.8-0.7-1.4-1.3-1.6-1.5c1.1,1,1.2,0.9,1.4,1c0.2,0.1,0.4,0.3,1.8,1.6c0-0.2,0.9,0.5,2.3,1.6
				c0,0.1-0.6-0.3-1.2-0.7c0.7,0.5,1.3,1,1,0.9c0.7,0.5,1.2,0.8,1.6,1.2c0.5,0.3,0.9,0.7,1.7,1.3c-0.4-0.5-0.5-0.6-0.1-0.4
				c0.4,0.2,1.2,0.8,2.7,1.6c0.9,0.6,1.2,0.9,1,1c0.7,0.4,2.2,1.2,3.5,1.9c1.3,0.7,2.5,1.2,2.7,1.2c-1-0.5-1.5-0.8-1.9-1
				c-0.3-0.2-0.5-0.2-0.6-0.2c-0.1,0-0.3-0.1-0.6-0.2c-0.3-0.2-0.9-0.5-1.8-1.1c1,0.5,1.4,0.6,1.3,0.4c-0.8-0.4-1.3-0.7-1.8-1
				c-0.5-0.3-1-0.5-1.8-1.1c0-0.2,0.7,0.1-1-1c0.1,0.2-1.7-1.1,0,0c1.2,0.5,2.6,1.7,4.7,2.8l0.2-0.3c-0.4-0.2-0.8-0.5-1.2-0.7
				c0,0-1-0.5-1.2-0.7c-1.4-0.9-0.7-0.5,0,0c0.4,0.2,0.8,0.5,1.2,0.7c0,0,1,0.5,1.2,0.7c1.2,0.7,1.4,0.6,1.7,0.7
				c0.2,0.1,0.4,0.2,0.9,0.4c0.5,0.2,1.2,0.6,2.3,1.2c-0.4-0.2-0.9-0.4-1.1-0.4c-0.2,0,0,0.1,1,0.6c0.7,0.2,1.5,0.6,2.3,1
				c0.9,0.4,1.8,0.9,2.7,1.1l0.1-0.4c-1.5-0.6-0.7-0.4,0,0c1,0.4,1.3,0.4,2.6,0.9c0.5-0.1,1.6,0,3.3,0.3c1.7,0.3,4.1,0.8,7.4,1.4
				c-1.9-0.4-3.7-0.8-3.9-1c-0.7-0.2-1.4-0.5,0-0.1c1.6,0.2,2.7,0.3,3.7,0.4c0.9,0,1.7,0,2.5,0c0.8,0,1.6,0,2.7,0l4.4,0.1
				c-1-0.2-1.1-0.4-0.7-0.5c0.4-0.1,1.2-0.2,2.2-0.2c1-0.1,2.1-0.1,3.1-0.2c0.9-0.1,1.7-0.2,1.9-0.3c0.3-0.1,1.3-0.1,2-0.1
				c0.7-0.1,1.2-0.1,0.5-0.2c-1.1,0.1-2.3,0.1-2.5,0.1c1.8-0.2,2.7-0.4,3.6-0.6c0.8-0.2,1.5-0.4,2.7-0.6c-1,0.1-2.5,0.2-2.5,0.1
				c1,0,2.5-0.2,2.5-0.1c0.9-0.1,1.3-0.2,1.3-0.2c0,0-0.3-0.1-0.7-0.1c-0.9,0-2.4,0-3.1,0c2-0.2,3-0.3,3.9-0.5
				c0.9-0.1,1.8-0.3,3.5-0.6c-0.5-0.1,0.8-0.3,1.2-0.5c-1,0.2-1.6,0.3-1.9,0.3c-0.3,0-0.4,0-0.5,0c0-0.1,1.5-0.3,2.4-0.5
				c0-0.1,0.8-0.3,1.6-0.4c0.8-0.2,1.7-0.4,1.9-0.6c-1.9,0.3-2.3,0.2-2,0.1c0.3-0.2,1.2-0.5,1.8-0.9c1-0.2,0.7,0,2.4-0.4
				c-0.8,0.1,0.6-0.3,1.6-0.6c0.5-0.2,0.9-0.3,0.9-0.3c0,0-0.3,0.1-1.4,0.4c-0.1,0.1-0.7,0.3-1.2,0.4c-0.5,0.1-1.1,0.3-1.1,0.2
				c0.4-0.1,1-0.3,1.6-0.5c0.5-0.2,0.9-0.3,0.7-0.3c-0.7,0.2-1.4,0.4-1.2,0.3c-1.1,0.3-0.9,0.1-1.2,0.2c1.2-0.3,2.1-0.6,3-0.9
				c0.9-0.3,1.7-0.6,2.7-1c0.1-0.4,0.6-0.6-0.3-0.7c1.8-0.6,2.8-1.2,3.6-1.6c0.7-0.5,1.1-0.8,1.4-1.2c0.3-0.4,0.6-0.8,1.1-1.2
				c0.5-0.5,1.3-1.1,2.7-2c-1.4,0.7-2,0.9-2.1,1c-0.1,0,0.2-0.2,0.6-0.5c0.9-0.6,2.5-1.5,2.3-1.5c-0.1-0.1-0.9,0.4-1.7,0.9
				c-0.8,0.5-1.5,0.9-1.4,0.7c1.1-0.7,1.7-1.1,2.2-1.4c0.5-0.3,0.8-0.6,1.5-1.2c-0.1,0-0.9,0.4-1.6,0.8c-0.7,0.4-1.4,0.7-1.4,0.7
				c0.9-0.5,1.3-0.8,1.4-0.9c0.1-0.1-0.1,0-0.3,0c-0.2,0-0.3,0-0.2-0.1c0.2-0.2,0.6-0.5,1.6-1.3c-1.2,0.7-0.6,0.2,0,0
				c1.1-0.8,1.8-1.3,2.1-1.6c0.3-0.3,0.3-0.4,0.1-0.5c-0.4,0-1.4,0.3-1.9,0.4c1.4-1.2,2.1-1.9,2.4-2.4c0.3-0.4,0.1-0.6-0.1-0.7
				c-0.2-0.1-0.6-0.1-0.7-0.3c-0.1-0.2-0.1-0.6,0.4-1.3c1-0.8,1.7-1.4,2.2-1.8c0.5-0.5,0.8-0.8,0.9-1c0.3-0.4-0.1-0.3-0.6-0.1
				c-0.6,0.2-1.3,0.6-1.9,0.9c-0.6,0.2-1,0.4-0.7,0.1c-1.4,1.1-2.2,1.6-3,2.1c-0.8,0.5-1.5,0.9-3,1.7c-1.1,0.7-2.6,1.6-4.2,2.5
				c-1.6,0.8-3.3,1.6-4.8,2c-1,0.4-1.6,0.6-2.2,0.7c-0.6,0.1-1,0.3-1.7,0.4c0.1,0.2-2.5,1-5.4,1.6c-1.4,0.3-2.9,0.5-4.1,0.5
				c-1.2,0.1-2.2,0.1-2.5,0c-0.7,0.2-2,0.3-3.3,0.3c-1.2,0.1-2.4,0.1-2.9,0.2c0.7-0.2,1.6-0.4,2.4-0.6c0.9-0.2,1.7-0.5,2.4-0.8
				c0.6-0.3,1-0.5,0.9-0.8c-0.1-0.2-0.6-0.4-1.7-0.6c0.5-0.5,1.4-1,2.4-1.5c1-0.5,2.1-0.9,3-1.4c0.9-0.5,1.7-1,2-1.4
				c0.3-0.5,0.2-0.9-0.5-1.4c-1.3,0.2-1.8,0.3-2,0.2c-0.1,0,0.1-0.1,0.4-0.2c0.3-0.1,0.7-0.2,0.7-0.3c0.1-0.1-0.1-0.1-1,0
				c-0.8,0.4-1.7,0.1-2.6,0.2c-1.7,0.2-2.5,0.3-3.5,0.4c-0.5,0-1.1,0.1-2,0.1c-0.8,0-1.9,0-3.4-0.2c0.1,0.1-0.9,0.1-2.7-0.2
				c0-0.1,0.7-0.1,1.8,0c-1.7-0.4-2.7-0.4-4-0.5c-0.6,0-1.4-0.1-2.3-0.2c-0.9-0.1-2-0.4-3.4-0.8c-0.4-0.3-0.1-0.2,0.4-0.1
				c0.5,0.1,1.2,0.3,1.4,0.3c-1.8-0.5-3-0.8-4-1.1c-1-0.3-1.8-0.5-2.8-1.2c0.1,0.2-1.1-0.2-2.4-0.9c-1.3-0.6-2.8-1.5-3.2-1.8
				c0.3,0.1,1,0.4,1.6,0.7c0.7,0.3,1.4,0.6,1.7,0.7c-0.2-0.2-1.3-0.8-2.4-1.4c-1-0.6-2-1.2-2.1-1.4c0-0.1,0-0.3,0.9,0.3
				c1.1,0.7,0.1,0.4,1.4,1.1c0.2-0.1,0.3-0.2-0.5-0.8c-3.1-1.8-5.7-3.6-7.9-5.5c-2.2-1.9-4.2-4-5.8-6.5c-0.5-0.3-1.2-1.2-2-2.2
				c-0.8-1.1-1.5-2.3-2.3-3.4c0.3,0.3,0.5,0.5,0.5,0.3c0-0.2-0.3-0.8-0.9-2.1c-0.8-0.9-2-3.1-3.2-6.2l0.3-0.1
				c-0.4-1.3-0.6-2.2-0.8-2.9c-0.2-0.7-0.3-1.1-0.5-1.5c-0.1-0.4-0.3-0.7-0.4-1.2c-0.1-0.5-0.3-1.1-0.4-1.9c0.1-0.4,0.3,0.3,0.5,0.9
				c0.2,0.5,0.3,0.9,0.2-0.1c-0.2-1.1-0.2-1.5-0.3-1.6c0-0.1-0.1,0.1-0.1,0.3c0,0.2,0,0.4,0,0.3c0-0.1-0.1-0.5-0.2-1.5
				c-0.1-1.3,0.1,0.3,0.2,0c-0.1-0.9-0.2-1.4-0.2-1.7c-0.1-0.3-0.1-0.5-0.2-0.7c-0.1-0.2-0.1-0.4-0.2-0.8c-0.1-0.4-0.1-1-0.1-2
				c0-1.2,0.1-1.5,0.2-1.6c0.1,0,0.2,0.3,0.3,0.6c0.1,0.3,0.2,0.6,0.3,0.4c0.1-0.1,0.1-0.7,0.2-2.1c0,0.9,0.1,1,0.1,1
				c0.1,0,0.2,0,0.2,0.7c0.1-0.8,0.2-1,0.3-1c0.1,0,0.2,0.3,0.3,0.6c0.2,0.6,0.5,1.3,0.7,0.5c0,0.8,0,1.7,0,2.5
				c0.2-0.4,0.3,0,0.3,0.5c0.1,0.6,0.1,1.4,0,1.9c0.1,0,0.2,1,0.3,1.6c-0.2-0.1-0.3,0.5-0.1,1.7c0.3,0.6,0.3,0,0.3-0.6
				c0-0.6,0.1-1.2,0.4-0.3c0.2,1.3,0.3,1.9,0.2,2.2c0,0.3-0.2,0.3-0.3,0.3c-0.1,0-0.3,0-0.3,0.3c0,0.3,0,1,0.4,2.3
				c0.2-0.7,0.4-0.8,0.5-1.3c0.1-0.3,0.1-0.6,0.1-1.2c0-0.6-0.1-1.4-0.2-2.6c-0.3-1.4-0.6-2.5-0.8-3.9c-0.1-0.7-0.2-1.5-0.2-2.4
				c0-0.9,0-2,0.1-3.4c-0.2,0.9-0.3,0.4-0.3-0.6c0-1,0.2-2.5,0.4-3.4c-0.1,0.1,0.1-1.2,0,0c0,0.1,0.2-0.4,0.3-1.1
				c0.1-0.6,0.3-1.3,0.2-1.3c-0.2,1-0.2,0.5,0,0c0.3-1.3,0.5-2.3,0.7-3.3c0.2-0.9,0.4-1.7,0.6-2.5c0.2-0.8,0.4-1.6,0.7-2.4
				c0.3-0.8,0.6-1.7,1.1-2.8c-0.1,0,0.5-1.1,0,0c-0.5,1.6,0.4,0.1,0.9-0.5c-0.4,0.8-0.6,1.2-0.7,1.4c-0.1,0.2,0,0.1,0.1,0
				c0.2-0.3,0.6-0.9,0.5-0.4c0.5-1,0.7-1.6,0.9-2.1c0.2-0.5,0.4-1,0.8-1.5c-0.1,0.6-0.7,2-1,3.2c-0.3,1.2-0.5,2.1-0.1,1.7
				c0-0.3,0.5-1.3,0.7-1.4c0,0.3-0.2,1.2-0.3,1.8c-0.1,0.6,0,0.9,0.6,0.1c0-0.3-0.1-0.4-0.1-0.7c0-0.3,0.1-0.7,0.6-1.7l0.3,0.1
				c0.6-1,0.6-0.8,0.4-0.5c-0.2,0.4-0.4,0.9-0.4,0.5c-0.6,1.3-0.1,1.1,0.3,0.9c0.2-0.1,0.4-0.2,0.4-0.1c0,0.1-0.1,0.4-0.4,1.1
				c0.1,0.3,0.3,0,1-1.2c0-0.3,0.3-0.9,0.6-1.6c0.4-0.6,0.8-1.3,1-1.9c1-1.4,2-2.7,3-3.8c1-1.1,2.1-2.2,3-3.2
				c0.2-0.6-0.8,0.3-0.9,0.2c1.3-1.4,2.4-2.3,3.4-3.1c1-0.8,1.8-1.4,2.5-2.1c1-0.6,2.3-1.4,3.8-2.3c1.4-0.8,3-1.7,4.5-2.2
				c-1.4,1.1,1.2-0.2,3.1-0.7c-0.6,0.3-0.8,0.4-0.5,0.5c0.3,0,1-0.1,2.1-0.5c-0.4,0-0.6-0.1-0.5-0.2c0.2-0.1,0.7-0.4,1.9-0.7
				c-1.1,0.3-2.1,0.6-2.3,0.5c0.5-0.6,1.5-1.2,2.6-1.9c1.2-0.6,2.6-1.2,4.1-1.8c1.5-0.5,3.2-1,4.8-1.4c1.6-0.4,3.1-0.7,4.4-1
				c2.8,0.2,5.3,0.8,7.4,1.4c2.1,0.6,3.8,1.2,5.1,1.4c0.5,0.2,0.9,0.4,1.4,0.7c0.6,0.3,1.3,0.6,2.4,1.1c0.2,0,1.2,0.3,2.3,0.9
				c1.1,0.5,2.3,1.3,3,1.7c0.2-0.1,1.6,0.6,2.8,1.3c1.2,0.7,2,1.2,1.2,0.4c1,0.7,1.8,1.3,2.4,1.7c0.6,0.4,1,0.6,1.3,0.8
				c0.6,0.3,0.8,0.1,1,0c1.2,0.8,2.2,1.2,3,1.5c0.8,0.2,1.4,0.3,1.9,0.2c1.1-0.1,1.9-0.7,3.1-0.5c0.7,0.1,1.6,0.5,2.2,0.7
				c2,0.5,4,1.1,6.2,2.1c2.2,1,4.5,2.3,7,4.5c1.2,1.1,2.5,2.4,3.8,3.9c1.3,1.6,2.6,3.4,3.8,5.5c1.2,2.2,2.4,4.7,3.4,7.6
				c1,2.9,1.8,6.2,2.3,9.9c-0.1-1.8-0.1-2.8-0.1-3.3c0-0.5,0.1-0.5,0.1-0.3c0.2,0.3,0.4,1.2,0.3-0.2c-0.1-0.5-0.1-1.1-0.2-2.5
				c-0.2-0.5-0.4-1.1-0.6-1.8c-0.2-0.7-0.4-1.7-0.7-3.1c0.1-0.2,0.3,0.4,0.4,0.8c0.2,0.4,0.3,0.8,0.4,0.3c-0.2-1.2-0.5-3-1-5.1
				c-0.5-2.1-1.1-4.4-1.8-6.5c-0.7-2.1-1.5-3.9-2-5.1c-0.6-1.2-0.9-1.7-0.8-1.2c0.3,0.5,0.6,1,1,1.8c0.4,0.8,0.9,2,1.5,3.9
				c-0.9-1.8-1.7-3.2-2.6-4.8c-1-1.6-2.1-3.4-3.7-6c0.3,0.6,0.6,1.2-0.1,0l0.1,0c-0.6-1.1-1-1.6-1-1.8c-0.1-0.2,0.1,0,0.3,0.3
				c0.5,0.6,1.2,1.7,1.1,1.3c-0.9-1.5-1.6-2.3-2.3-3.1c-0.7-0.8-1.3-1.5-2.1-2.8c1,0.9,2.2,2,3.6,3.9c0.7,0.9,1.5,2,2.4,3.4
				c0.9,1.4,1.8,3,2.7,4.9c-0.8-2.3-1.7-3.9-2.5-5.3c-0.8-1.4-1.5-2.4-2.2-3.3c-0.7-0.9-1.4-1.8-2.2-2.7c-0.8-0.9-1.6-1.9-2.7-3.2
				l0.2-0.1c-0.3-0.3-0.5-0.7-0.8-1c-0.1,0.2-1-0.6-2.8-2.5c0.2,0.1,0.7,0.5,0.8,0.6c0.1,0.1-0.1-0.3-1.5-1.6
				c-0.2-0.2-0.1,0.1-1-0.8c0.2,0.2,0.1-0.1,1,0.8c1.2,1.1,2,1.8,2.6,2.4c0.6,0.5,1.1,0.9,1.5,1.3c0.5,0.4,1,0.9,1.7,1.6
				c0.7,0.8,1.6,1.9,2.9,3.7c-0.7-1.5,0.6,0,1.8,1.4c0.6,0.7,1.2,1.4,1.5,1.7c0.3,0.3,0.4,0.2,0.1-0.7c-0.5-0.4-1.8-2.4-3.2-4.4
				c-1.4-2-3-4.1-3.7-5c0.5,1.1-0.1,0.5-1-0.4c-0.9-1-2.2-2.3-3-2.8c-0.6-0.7-1.5-1.8-2.6-2.8c-0.3-0.1-0.8-0.4-1.3-0.7
				c-0.5-0.3-0.9-0.6-1-0.5c-0.9-0.9-1.3-1.3-1.3-1.5c0-0.1,0.2,0,0.4,0c0.2,0.1,0.5,0.2,0.3,0c-0.1-0.2-0.6-0.7-1.7-1.7
				c0.4,0.6-0.6-0.2-2-1.2c-0.7-0.5-1.5-1.1-2.4-1.6c-0.8-0.5-1.6-1-2.2-1.2c-0.7-0.6,0.1-0.2,0.8,0.1c0.6,0.3,1,0.5-0.4-0.6
				c-1.1-0.5-1.8-0.9-2.2-1.3c-0.5-0.4-0.7-0.7-1-0.9c-0.7-0.3-1.6-0.8-2.1-0.9c-0.5-0.1-0.4-0.1,0.8,0.7c-1.9-1.1-3.9-1.9-5.5-2.5
				c-1.7-0.6-3-1.1-3.9-1.5c0.8,0.2,1.2,0.2,1.2,0.1c0-0.1-0.3-0.4-1-0.7c-0.6-0.1-1.1-0.4-2.4-0.8c0.8,0.5-1.3-0.2-3.7-0.8
				c-1.2-0.3-2.4-0.6-3.4-0.8c-1-0.2-1.6-0.3-1.7-0.4c-1.5-0.4-1-0.3-0.3-0.2c0.8,0.1,1.9,0.3,1.6,0.1c-2.3-0.5-3.5-0.7-4.1-0.9
				c-0.6-0.2-0.7-0.3-0.8-0.4c-0.1-0.1-0.2-0.2-0.9-0.4c-0.7-0.2-1.9-0.4-4.3-0.6c0.2,0.2-0.7,0.2-2.6,0.2c0.1-0.1,0.2-0.2-1.3-0.3
				c-0.3,0.1-1.4,0.3-2.8,0.4c-1.4,0.2-3,0.4-4.4,0.6c-1.4,0.2-2.7,0.5-3.3,0.7c-0.6,0.2-0.6,0.3,0.4,0.3c0.5-0.2,1.8-0.5,3.2-0.7
				c1.4-0.2,3.1-0.4,4.4-0.5c2.2,0,3.3,0.1,3.8,0.2c-1.5,0.1-3,0.1-4.5,0.2c-1.5,0.1-3,0.2-4.3,0.5c0.8,0.1,0.7,0.2-0.1,0.5
				c-0.7,0.2-2,0.5-3.5,0.9c-1.5,0.4-3.2,0.9-4.7,1.4c-1.5,0.5-2.9,1-3.7,1.4c1.4-0.4,1.8-0.4,1.6-0.3c-0.2,0.1-0.8,0.3-1.6,0.5
				c-1.5,0.5-3.1,1.1-1.1,0.6c1.4-0.4,3.4-0.9,3.6-0.8c-1.7,0.5-2.9,0.8-3.6,0.8c-0.4,0.1-0.8,0.2-1.2,0.3c-1,0.4-1.3,0.6-1.9,0.9
				c-0.6,0.3-1.5,0.7-3.7,1.5c1.1-0.2,1.4-0.2,1.2,0.1c-0.2,0.3-1,0.7-2.1,1.3c-1.1,0.6-2.5,1.3-3.9,2c-1.5,0.7-3,1.5-4.5,2.1
				c-1.1,0.8-2.1,1.6-2.3,1.9c-0.3,0.3,0.1,0.2,1.6-0.8c-1.8,1.2-2.6,1.9-3.1,2.4c-0.5,0.4-0.5,0.6-0.6,0.8
				c-0.1,0.2-0.1,0.3-0.6,0.7c-0.4,0.4-1.3,1.2-2.8,2.5c-0.2,0.2,0.1,0.1-0.8,0.9c0.2-0.2-0.1-0.1,0.8-0.9c1.9-2.8,4.6-6,8-9
				c3.3-3,7.3-6,11.6-8.5c4.3-2.5,8.9-4.6,13.3-6.1c4.4-1.6,8.5-2.7,11.8-3.6c-0.6,0.1-1.2,0-2.8,0c-0.5,0.2-1.6,0.3-2.7,0.5
				c-1.1,0-1.4,0-2.7,0.1c-1.5,0.1-2.4,0.3-3.1,0.5c-0.7,0.2-1.1,0.3-1.6,0.4c-0.4,0.1-0.9,0.3-1.6,0.5c-0.7,0.2-1.6,0.4-3.1,0.7
				c-0.9,0-3.1,0.3-5.1,0.8c-2,0.4-3.9,1-4.3,1c-1.1,0.5-1.6,0.8-2.3,1.2c-0.7,0.4-1.7,0.9-3.8,1.9c-3,1.1-7,2.9-11,5.5
				c1.6-1,0.9-0.8,1-1c-1.6,1-2.2,1.4-2.7,1.7c-0.5,0.3-0.9,0.5-2,1.3c0.1,0,0,0.2-0.6,0.6c-0.5,0.4-1.4,1.1-2.6,2.1
				c-0.2,0.1-0.7,0.5-1.2,0.9c-0.5,0.4-1,0.8-1,0.8c0-0.3,0.4-1,1.1-1.8c0.7-0.8,1.6-1.8,2.4-2.6c0.8-0.8,1.5-1.5,1.7-1.9
				c0.2-0.4-0.1-0.4-1.1,0.1c-1.6,1.6-4.8,4.3-8.3,8.1c-1.8,1.9-3.7,4-5.5,6.4c-1.9,2.4-3.7,5-5.4,7.8c-1.1,1.5-2,2.7-3,4.3
				c-1,1.6-2.1,3.5-3.5,6.7c0.2-0.1,0.3-0.1-0.3,1.4c-0.8,2.1-1.4,3.4-2,5c-0.5,1.5-1.1,3.2-1.7,5.8c-0.5,3.2-0.6,6.1-0.6,8.9
				c0,2.7,0.2,5.3,0.5,8c0.3,2.6,0.7,5.3,1.3,8.1c0.6,2.9,1.4,5.9,2.5,9.4c-0.5-1-0.8-1.8-1-2.5c-0.3-0.7-0.5-1.5-0.9-2.7
				c0.2,1.3,0.4,2.1,0.6,3.1l0.9,3.6c-0.2-1.9,0.5,1,0.1-1.4c0.5,2.1,0.8,3.1,1,3.8c0.2,0.6,0.4,0.9,0.6,1.4l-0.6-2.2
				c-0.2-0.8-0.4-1.5-0.4-1.7c0.3,1.2,0.7,2.8,1.1,4c0.4,1.2,0.7,1.9,0.5,1.2c-0.3-1-0.8-2.5-0.7-2.6c0.3,1,0.8,2.5,0.7,2.6
				c0.6,1.7,0.9,2.2,0.9,2.1C684.8,130.2,684.7,129.6,684.6,129.2z"/>
		</g>
		<g transform="matrix(3.125,0,0,3.125,-1662.68,1085.13)">
			<path class="st0" d="M675.4,77.3c0,0.2-0.3,0.9-0.5,1.6c-0.2,0.7-0.4,1.3-0.3,1.3c-0.4,1.4-0.4,1.1-0.6,1.4
				c0.2-1,0.4-1.5,0.6-2.1C674.8,78.9,675,78.3,675.4,77.3z"/>
		</g>
		<g transform="matrix(3.125,0,0,3.125,-1662.68,1085.13)">
			<path class="st0" d="M770.5,186.8c0.3,0-1.4,0.4-2.9,0.6c-1.5,0.2-2.8,0.3-1.6,0.1c1-0.1,2-0.3,3-0.4
				C768.7,187.1,769.6,187,770.5,186.8z"/>
		</g>
		<g transform="matrix(3.125,0,0,3.125,-1662.68,1085.13)">
			<path class="st0" d="M674.5,129.6C674.6,130.2,674.2,128.6,674.5,129.6z"/>
		</g>
		<g transform="matrix(3.125,0,0,3.125,-1662.68,1085.13)">
			<path class="st0" d="M671.9,119.3C672,119.9,671.8,118.3,671.9,119.3z"/>
		</g>
		<g transform="matrix(3.125,0,0,3.125,-1662.68,1085.13)">
			<path class="st0" d="M761.6,187.9C761.4,187.9,763.7,187.7,761.6,187.9z"/>
		</g>
		<g transform="matrix(3.125,0,0,3.125,-1662.68,1085.13)">
			<path class="st0" d="M672,119.3c-0.2-1.2,0-1.5,0.2-0.7c0.3,0.7,0.7,2.4,1.3,5.1c-0.3-1-0.6-1.6-0.8-2.2
				C672.5,120.8,672.3,120.2,672,119.3z"/>
		</g>
		<g transform="matrix(3.125,0,0,3.125,-1662.68,1085.13)">
			<path class="st0" d="M761.5,187.8c0.8-0.1,0.9-0.2,1.3-0.3c0.4-0.1,1.1-0.2,3.1-0.4c-0.8,0.1-0.9,0.2-1.3,0.3
				C764.3,187.5,763.6,187.6,761.5,187.8z"/>
		</g>
		<g transform="matrix(3.125,0,0,3.125,-1659.77,1074.63)">
			<path class="st0" d="M817.9,120.1c-0.2,1.4-0.4,1.8-0.4,1.7C817.4,121.6,817.6,120.9,817.9,120.1z M818.3,125.1
				c-0.2,0.8-0.5,1.5-0.7,2.3l-0.1-0.1c0.3-0.7,0.5-1.5,0.7-2.2L818.3,125.1z M818.4,126.3c0.1,0.1-0.4,1.4-0.7,2.3
				C817.6,128.6,818.1,127.2,818.4,126.3z M814.1,137.5c0.1,0.1-0.7,1.3-1.1,2.1C812.9,139.5,813.6,138.3,814.1,137.5z M818.2,128.8
				c-0.3,0.8-0.6,1.5-0.9,2.2l-0.1-0.1c0.3-0.7,0.6-1.5,0.9-2.2L818.2,128.8z M818.3,128.8c0.1,0.1-0.5,1.4-0.8,2.3
				C817.4,131.1,818,129.7,818.3,128.8z M810.8,143.9C811.1,143.5,810.3,144.6,810.8,143.9z M811.2,144.2c-0.6,0.9-1.1,1.4-1.3,1.7
				c-0.3,0.3-0.4,0.3-0.3,0.1c1.1-1.5,1.4-1.9,1.5-2C811.2,144,811.1,144.3,811.2,144.2z M810.3,146.6
				C810.7,146.2,809.8,147.2,810.3,146.6z M808.6,150c0,0.1-0.9,1.2-1.6,1.9C807,151.9,808,150.8,808.6,150z M811.2,147.3
				c-0.8,1.1-1.2,1.5-1.3,1.6c-0.1,0.1,0-0.2,0.3-0.5C810.6,147.7,811.4,146.6,811.2,147.3z M803,158.6c-1.1,1-1.8,1.5-2.2,1.8
				c-0.4,0.3-0.6,0.4-0.7,0.4c-0.2,0-0.1-0.2-1.4,0.7c0.2-0.3,0.9-0.9,1.5-1.3c0.6-0.4,1-0.7,0.5-0.2c1.1-0.9,1.7-1.5,1.9-1.7
				c1.4-1.2,1.3-1.1,0.9-0.6C803.3,158.1,802.7,158.8,803,158.6z M806.7,155.1c0,0.1-1.1,1.2-1.8,1.9
				C805,156.9,806.1,155.9,806.7,155.1z M805.5,157.5c-1.3,1.3-2.1,1.9-2.2,1.8c-0.1-0.1,0.6-0.7,2-2L805.5,157.5z M812.6,151.6
				c-1.1,1.4-2.3,2.7-3.5,4l-0.1-0.1c1.2-1.3,2.4-2.6,3.5-4L812.6,151.6z M810.5,155.1c-0.6,0.8-1.2,1.4-1.4,1.4
				C809,156.6,809.3,156.2,810.5,155.1z M796.7,167.5c-1.6,1.1-2.4,1.4-2.2,1.2c0.2-0.2,1.2-0.9,3.1-2.2
				C798.2,166.3,797,167.2,796.7,167.5z M815.9,149.1c0,0.1-0.9,1.4-1.6,2.2C814.3,151.2,815.3,150,815.9,149.1z M796.8,167.6
				C797.2,167.4,796,168.1,796.8,167.6z M805.2,161.1C805.7,160.8,804.5,161.7,805.2,161.1z M792.5,171c-1.2,0.7-1.9,1-2.2,1.2
				c-0.3,0.1-0.3,0.1-0.1,0c0.4-0.3,1.2-0.8,0.9-0.7C792.8,170.6,792.3,171,792.5,171z M796,168.9c-0.6,0.5-1,0.7-1,0.6
				C794.9,169.4,795.2,169.2,796,168.9z M771.2,179.3c-0.9,0.3-1.8,0.4-2,0.4C769,179.6,769.5,179.5,771.2,179.3z M787.8,173.7
				C788.3,173.5,787,174,787.8,173.7z M811.7,156.1c-0.4,0.7-0.7,0.9-0.8,0.9C810.8,156.9,811,156.6,811.7,156.1z M793.9,170.7
				c-1,0.6-1.3,0.8-1.2,0.8c0,0,0.4-0.3,0.8-0.5C794.3,170.4,795.2,169.7,793.9,170.7z M811.8,156.3
				C812.2,155.9,811.2,156.9,811.8,156.3z M786.9,175.1c-1.9,0.9-2.6,1-2.4,0.8c0.3-0.2,1.5-0.8,3.4-1.7c0.6-0.1,0.1,0.1-0.3,0.4
				C787.2,174.8,786.7,175.1,786.9,175.1z M791.8,172.6c0,0.1-1.4,0.8-2.4,1.3C789.4,173.8,790.9,173.1,791.8,172.6z M811.3,157.7
				c-1.5,1.5-1.7,1.6-1.6,1.5c0-0.1,0.3-0.4-0.5,0.2c0.8-0.8,1.3-1.3,1.6-1.6c0.3-0.3,0.4-0.4,0.5-0.4
				C811.3,157.4,811.1,157.9,811.3,157.7z M801.4,167.2C801.9,166.8,800.6,167.7,801.4,167.2z M783.4,177.2
				c-0.7,0.4-1.1,0.5-1.1,0.4C782.2,177.6,782.6,177.4,783.4,177.2z M809.9,160.1C810.4,159.7,809.2,160.7,809.9,160.1z
				 M779.6,178.9c-1.1,0.4-1.9,0.6-2.3,0.7c-0.4,0.1-0.5,0.1-0.5,0c0.1-0.1,0.9-0.4,1.4-0.6C780,178.5,779.3,178.9,779.6,178.9z
				 M806.9,163c-0.8,0.7-1.2,0.9-1.2,1c-0.1,0,0.1-0.2,0.4-0.4C806.5,163,807.3,162.3,806.9,163c0.8-0.7,1.1-1,1.2-1
				c0.1,0-0.1,0.2-0.3,0.4C807.3,162.9,806.5,163.5,806.9,163z M788.6,175.4C789.2,175.2,787.8,175.7,788.6,175.4z M799.5,169.2
				C799.3,169.2,801.1,168,799.5,169.2C799.6,169.2,797.8,170.4,799.5,169.2z M784.9,177.2C785.4,177,784,177.5,784.9,177.2z
				 M804,166c-0.7,0.6-1.5,1.1-2.2,1.7l-0.1-0.1c0.7-0.6,1.5-1.1,2.2-1.7L804,166z M805.1,165.2c0,0.1-1.3,1.1-2.1,1.8
				C803,166.9,804.3,165.9,805.1,165.2z M785.1,177.8c-1.2,0.5-1.9,0.8-2.3,0.9c-0.4,0.1-0.6,0.1-0.5,0.1c0.1-0.1,0.9-0.6,1.4-0.8
				c1.4-0.6,1.6-0.6,1.5-0.4C785.1,177.7,784.8,177.9,785.1,177.8z M791.5,174.8c-0.8,0.6-1.7,0.9-1.9,0.9
				C789.4,175.8,789.8,175.5,791.5,174.8z M795.2,172.9c-0.9,0.5-1.3,0.7-1.4,0.7c-0.1,0,0.1-0.1,0.4-0.3c0.6-0.4,1.4-1,0.8-0.7
				c1.5-0.9,1.6-0.9,1.3-0.6C796.1,172.3,795.4,172.8,795.2,172.9z M803.5,167.6c-0.7,0.6-1.5,1.1-2.3,1.7l-0.1-0.1
				c0.8-0.5,1.5-1.1,2.2-1.7L803.5,167.6z M806.7,164.9C807.2,164.5,806,165.4,806.7,164.9z M781.4,179.9
				C782,179.7,780.5,180.2,781.4,179.9z M791.8,175.5c-0.8,0.4-2,1-3.2,1.5c-1.2,0.5-2.4,1-3.3,1.3c0.7-0.4,2.5-1.2,4.1-1.9
				C790.9,175.7,792.2,175.1,791.8,175.5z M795.5,173.4c-0.6,0.5-1,0.7-1.1,0.6C794.4,173.9,794.7,173.7,795.5,173.4z M807,165.2
				c-0.9,0.8-1.6,1.3-2,1.5c-0.4,0.2-0.5,0.2-0.4,0c1.6-1.4,2.1-1.8,2.3-1.8C807,165,806.8,165.3,807,165.2z M803.7,168
				C804.2,167.6,803,168.5,803.7,168z M777.4,181.4L777.4,181.4C775.8,181.8,776.5,181.5,777.4,181.4
				C778.2,181.1,779,181,777.4,181.4c-0.1,0.2-1.5,0.5-2.2,0.7c-0.3,0.1-0.5,0.1-0.2,0C775.3,182,776,181.8,777.4,181.4z
				 M782.8,179.6c-0.7,0.4-1.1,0.5-1.2,0.4C781.6,180,782,179.8,782.8,179.6z M786.8,178.1C787.3,177.9,785.9,178.4,786.8,178.1z
				 M794.4,174.3C794.9,174,793.5,174.7,794.4,174.3z M792,175.8c-1.7,0.8-2.4,1-2.7,1c1.9-1,2.5-1.2,2.6-1.2
				C792.1,175.6,791.8,175.8,792,175.8z M798.1,172.2c-0.8,0.7-1.6,1.1-1.8,1.1C796.1,173.3,796.5,173,798.1,172.2z M774.8,182.4
				c-0.8,0.3-1.2,0.4-1.2,0.3C773.5,182.6,773.9,182.4,774.8,182.4z M800.6,170.8C801.1,170.5,799.8,171.3,800.6,170.8z
				 M797.1,173.4c-0.8,0.5-1.6,1-2.5,1.5l-0.1-0.1c0.8-0.5,1.6-0.9,2.5-1.4L797.1,173.4z M798.4,172.7
				C798.9,172.4,797.6,173.2,798.4,172.7z M773.5,183.4l-2.4,0.5c-0.9,0.2-1.6,0.3-1.8,0.4c-1.3,0.2-1.7,0.2-1.6,0.2
				c0.1-0.1,0.7-0.2,1.5-0.4l2.6-0.6c0.8-0.2,1.5-0.3,1.7-0.3L773.5,183.4z M770.8,184.1c0,0.1-1.7,0.4-2.8,0.6
				C768,184.6,769.7,184.3,770.8,184.1z M768,185C768.6,184.9,767.1,185.1,768,185z M772.3,184.2c-1.2,0.3-2,0.4-2.4,0.5
				c-0.4,0.1-0.6,0-0.5,0c0.1-0.1,1-0.4,1.5-0.5C772.7,183.9,772,184.2,772.3,184.2z M793.8,176.2
				C794.3,175.9,792.9,176.6,793.8,176.2z M797.5,174c-1.2,0.8-1.9,1.2-2.1,1.3c-0.3,0.1-0.2,0,0.1-0.2c0.6-0.5,2.1-1.5,3-2.2
				c-1.2,0.8-1.9,1.2-2.2,1.3c-0.3,0.1-0.1,0,0.2-0.2c0.6-0.4,1.8-1.2,2-1.2c1.2-0.7,1.8-1.2,2-1.3c0.3-0.2,0.2-0.1,0,0
				c-0.3,0.3-1.2,0.9-0.7,0.7c1.4-1,0.8-0.4,0,0C797.9,173.6,794.6,175.7,797.5,174z M795.2,175.8L795.2,175.8
				c-0.7,0.3-1.5,0.7-0.1-0.1c-0.2,0,1.8-1.1,0,0L795.2,175.8C795.9,175.3,796.6,175,795.2,175.8
				C795.4,175.8,793.4,176.9,795.2,175.8z M780.8,182.5C781.3,182.3,779.8,182.7,780.8,182.5z M762.4,186.4
				c-0.8,0.2-1.2,0.2-1.2,0.1C761.1,186.4,761.5,186.3,762.4,186.4z M780.8,182.6C781.4,182.4,779.9,182.9,780.8,182.6z
				 M769.6,185.8c-0.2-0.2,0.8-0.7,2.7-1.4c1.9-0.7,4.7-1.7,8.2-3c-1.6,0.8-3.2,1.5-5,2.2C773.7,184.4,771.8,185.1,769.6,185.8z
				 M785,181.3C784.2,181.6,783.4,181.9,785,181.3c-0.4,0-0.1-0.2-1.4,0.3c1.2-0.7,2.7-1,4.1-1.6c-0.5,0,0.1-0.4,1.2-0.9
				c-1.9,0.8-2.7,1.2-3.5,1.5c-0.8,0.3-1.5,0.7-3.2,1.2c-0.8,0.2,0.4-0.3,0.9-0.6c0.3-0.1,0.4-0.2,0.1-0.1c-0.3,0.1-1,0.4-2.5,0.9
				c0.6-0.4,2.6-1.1,3.8-1.7c0.6-0.3,1.1-0.5,1.2-0.6c0.1-0.1-0.2,0-1.2,0.2c1.6-0.6,2.4-1.1,3-1.3c0.6-0.3,0.8-0.4,1-0.6
				c0.2-0.1,0.4-0.3,0.9-0.5l2.7-1.4c-0.2,0,1.8-1,0,0c-1.2,0.7-1.8,1.1-2.2,1.4c-0.4,0.3-0.4,0.5-0.5,0.6c-0.1,0.2-0.2,0.3-0.7,0.7
				c-0.4,0.3-1.2,0.8-2.7,1.4c0.2,0,1.5-0.5,2.7-1.1c1.2-0.6,2.4-1.2,2.6-1.2c0.7-0.4,1.5-0.7,0,0.1l0.1,0.1c0.7-0.4,1.5-0.7,0,0.1
				c-0.1,0.1-0.8,0.5-1.7,0.9l-2.2,1.1c-0.3,0.2,0,0.2-1.3,0.7C786.4,180.8,785.3,181.3,785,181.3z M793,177.7
				C793.5,177.5,792.1,178.1,793,177.7z M790.4,179.2c0,0.1-1.6,0.8-2.6,1.3C787.8,180.4,789.4,179.7,790.4,179.2z M761,187.2
				c-1.3,0-1.6,0-1.8-0.1c-0.2-0.1-0.2-0.2-1.1-0.2c1.9-0.1,3.8-0.2,5.8-0.4c0.8,0.1,0.1,0.2-0.9,0.4C762,186.9,760.9,187,761,187.2
				z M758.1,187.4c-1.3,0-2.2,0-2.6-0.1c-0.3-0.1-0.1-0.1,1.1-0.2c1.6,0,1.7,0,1.6,0.1C758.1,187.2,757.7,187.4,758.1,187.4z
				 M782.4,182.7c0.3-0.2,1.1-0.5,2.7-1.1c-0.2,0,2-0.8,0,0C784.8,181.8,784,182.2,782.4,182.7c-0.1,0.2-1.5,0.6-2.2,0.8
				c-0.4,0.1-0.5,0.1-0.2,0C780.2,183.4,780.9,183.2,782.4,182.7z M782.5,182.9c0,0.1-1.7,0.6-2.8,1
				C779.7,183.8,781.4,183.3,782.5,182.9z M758.1,187.6C758.7,187.6,757.1,187.6,758.1,187.6z M753.7,187.8c-1.7,0-2.1,0-2.4,0
				c-0.3,0-0.6-0.1-2-0.2c1,0,3.1,0,5.8,0C755.2,187.7,754.5,187.8,753.7,187.8c1.5,0,2.3,0,2.6,0c0.3,0,0.1,0-0.2,0.1
				C755.4,187.9,753.8,188,753.7,187.8z M788,181c-0.1,0.1-0.8,0.4-1.5,0.7c-0.6,0.3-1.3,0.5-1.3,0.4
				C785.9,181.8,786.5,181.7,788,181z M726.2,183.2C726.8,183.5,725.3,182.9,726.2,183.2z M755.2,188.5c0.4-0.1,1.3-0.1,2.1-0.2
				c0.7-0.1,1.2-0.2,0.9-0.3c-1.5,0.1-2.3,0.1-2.6,0.1c-0.3,0-0.1,0,0.2-0.1c0.7,0,2.2-0.1,2.4,0c2-0.1,2.5-0.3,3.2-0.5
				c0.7-0.2,1.5-0.4,4-0.7c-0.1-0.1,0.7-0.2,1.4-0.4c1.1-0.2,1.4-0.2,1.2-0.1c-0.1,0.1-0.7,0.2-1.2,0.3c-0.5,0.1-1,0.1-1.4,0.2
				c0.3,0.1-0.9,0.4-2.1,0.6c-1.2,0.2-2.5,0.4-2.2,0.6c1.8-0.1,0.9,0,0,0c-1.7,0.1-1.9,0.2-2.4,0.3c-0.2,0-0.5,0.1-1,0.1
				C757.2,188.5,756.4,188.5,755.2,188.5z M758.1,188.5C758.7,188.5,757.1,188.5,758.1,188.5z M734.5,186.4
				C735.2,186.6,733.6,186.1,734.5,186.4z M752.2,188.8C752.8,188.8,751.2,188.7,752.2,188.8z M752.2,189
				C752.8,189.1,751.2,188.9,752.2,189z M731.5,186.1c-0.2,0-0.9-0.2-1.6-0.4c-0.7-0.2-1.3-0.4-1.3-0.5
				C729.3,185.3,729.9,185.6,731.5,186.1z M714.7,179.7C715.3,180.1,713.9,179.2,714.7,179.7z M728.5,185.8
				c-2.1-0.6-3.1-1.1-3.1-1.2c0-0.1,1.1,0.2,3.2,1L728.5,185.8z M724.1,184.5C724,184.4,726.2,185.2,724.1,184.5
				C724.2,184.7,722.1,183.8,724.1,184.5z M719.7,183.3C720.3,183.6,718.8,182.9,719.7,183.3z M712.6,180.4
				c-1.5-0.8-2.2-1.3-2.5-1.5c-0.3-0.2-0.1-0.1,0.2,0c0.6,0.3,1.8,0.8,1.1,0.3c1.4,0.8,1.6,0.9,1.4,1
				C712.7,180.3,712.3,180.2,712.6,180.4z M716.7,182.5c-1.3-0.6-1.8-1-1.5-0.9c0.3,0.1,1.3,0.5,3,1.4l-0.1,0.1
				C716.9,182.6,716.8,182.5,716.7,182.5z M700.8,173.1C701.3,173.6,700.1,172.5,700.8,173.1z M707.2,177.5c0.8,0.6,1,0.8,0.8,0.8
				c-0.2,0-0.7-0.3-1.4-0.6c-1.3-0.6-2.8-1.5-2.5-1.1c1.4,0.9,2.4,1.4,3.2,1.8c0.8,0.4,1.4,0.6,2,0.8c0.7,0.3,1.4,0.6,2.5,1.1
				c1.1,0.5,2.6,1.3,4.8,2.3c-0.3-0.1-0.9-0.3-1.5-0.6c-0.6-0.3-1.2-0.5-1.4-0.6c3.1,1.4,5.7,2.4,8,3.1c2.3,0.7,4.2,1.1,6,1.5
				c1.7,0.3,3.3,0.5,4.9,0.7c1.5,0.2,3.1,0.3,4.8,0.5c2,0.4,1.2,0.4,1.4,0.6c2,0.2,2.7,0.2,2.6,0.1c-0.1-0.1-1.1-0.3-2.4-0.7
				c2.3,0.4,3.5,0.6,4.4,0.7c0.9,0.1,1.6,0.2,3,0.3c0.9,0,0.9-0.1,1.3-0.2c0.4-0.1,1.1-0.1,3.1,0c0.5,0.1,1.3,0.3,1.4,0.4
				c0.1,0.1-0.6,0.2-2.9,0.1c-0.5,0.3-2.3,0.4-4.2,0.4c-1.9,0-4,0-4.9,0.1c1.7,0.3,2.9,0.4,3.7,0.4c0.8,0,1.2,0,1.6-0.1
				c0.8-0.1,1.3-0.2,3.7-0.2c0.8,0.2-0.1,0.3-0.9,0.4c-0.8,0.1-1.6,0.2-0.7,0.4c2.9,0.1,4.8,0,6-0.1c1.2-0.1,1.6-0.2,1.5-0.4
				c-1.2,0-2.9,0-3-0.1c1,0,2,0,3,0c2.1-0.2,4.9-0.5,7.2-0.8c2.3-0.4,4.2-0.8,4.5-1.2c0.2-0.1,0.9-0.3,1.9-0.5
				c1-0.3,2.1-0.6,3.1-0.9c1-0.3,1.7-0.6,2-0.7c0.2-0.1-0.1-0.1-1.4,0.1c1.2-0.2,1.9-0.4,2.3-0.6c0.4-0.1,0.5-0.2,0.5-0.3
				c-0.8,0.2-1.6,0.3,0-0.1l0,0.1c0.5-0.1,0.9-0.2,1.4-0.4c2.1-0.4,2.5-0.5,2.2-0.2c-0.3,0.2-1.4,0.7-2.6,1.2
				c-1.1,0.4-2.3,0.9-2.7,1.1c-0.4,0.2,0,0.3,2-0.1c1.2-0.3,1.4-0.4,2.8-0.9l0-0.1c-1.1,0.3-1.6,0.4-1.6,0.4c0,0,0.3-0.1,0.9-0.3
				c1.1-0.3,2.9-0.9,3.5-1.2c-0.3,0-0.1-0.1-1.5,0.3c0.2,0-2,0.7,0,0c1.7-0.7,3.2-1.2,3.7-1.3c0.3-0.1,0.3,0-0.1,0.1
				c-0.3,0.2-1,0.5-2.1,0.9c0.5-0.1,2.4-0.7,3.8-1.2c1.5-0.6,2.6-1.1,1.7-0.9c-1.7,0.7-0.9,0.2,0,0c2.7-1.2,5.2-2.7,5.1-2.9
				c-1.5,0.7-2.3,1.1-2.6,1.3c0.7-0.3,1.5-0.6,0,0.1c0,0-1,0.6-1.3,0.6c-1.1,0.5-1.8,0.8-2.2,0.9c-0.4,0.1-0.5,0.1-0.6,0.1
				c1.6-0.6,2.2-0.9,2.4-1c0.2-0.1-0.1,0-0.4,0.1c-0.3,0.1-0.5,0.2-0.4,0.1c0.2-0.1,0.8-0.4,2.3-1c0,0,0.6-0.3,1.2-0.6
				c0.6-0.3,1.3-0.6,1.5-0.6c1.9-1,3-1.8,3.8-2.4c0.8-0.6,1.2-0.9,1.4-1.2c0.5-0.5,0.5-0.7,1.8-1.8c0.7-0.6,0.9-0.7,1.3-0.9
				c0.4-0.2,0.9-0.5,2.2-1.6c1.4-1.2,2.1-2,2-2.1c-0.1-0.1-0.9,0.3-2.5,1.4c1.5-1.1,3-2.3,4.5-3.5c2.1-2.6,4.1-5.4,6.1-8.4
				c1.9-3,3.7-6.2,5.3-9.5c1.1-2.9,2.2-6.1,3.1-9.6c0.9-3.4,1.5-7,1.8-10.5c0.3-3.5,0.3-6.9-0.1-9.9c-0.3-3-0.9-5.6-1.7-7.6
				c-0.4-1.2-1-2.4-1.5-3.3c-0.6-0.9-1.1-1.5-1.7-1.4c0,0-0.4,0.9-0.8,1.6c-0.5,0.7-1,1.2-1.3,0.5c-0.1,1.2-0.3,2.1-0.4,3
				c-0.2,0.8-0.3,1.6-0.5,2.4c-0.2,0.8-0.4,1.6-0.7,2.6c-0.3,1-0.6,2.1-1,3.6c-0.3,1.1-0.2,1.3-0.1,1.2c0.1-0.1,0.3-0.4,0.3-0.1
				c-0.5,1.8-0.8,2.4-1.1,2.9c-0.3,0.5-0.5,0.8-1,2.1c-0.7,2.1-1.1,3.2-1.6,4.4c-0.5,1.2-1,2.4-2.3,4.3c0.1,0.1-0.2,0.9-0.7,1.8
				c-0.5,0.9-1.1,2-1.7,3c-1.5,5.1-3.6,10-6.5,14.6c-2.8,4.6-6.4,9-10.8,13c-4.4,4-9.6,7.7-15.9,10.6c-6.3,3-13.6,5.3-22.1,6.3
				c-4.3,0.4-8.9,0.4-13.5,0c-4.6-0.4-9.2-1.2-13.7-2.4c-4.5-1.2-8.8-2.7-12.9-4.5c-4-1.8-7.8-3.8-11.2-6c1.4,1.2,0.7,0.7,0,0
				c-1.8-1.4-2.4-1.7-2.6-1.7c0.6,0.5,0.9,0.9,0.9,0.9c0,0.1-0.3-0.2-1-0.8c-0.1,0.2-1-0.4-2-1.1c-0.9-0.7-1.9-1.4-2.1-1.4
				c1.7,1.6,3.3,2.8,4.6,3.8c1.4,1,2.6,1.8,3.7,2.5c1.2,0.7,2.3,1.3,3.4,2C704.4,176.1,705.7,176.7,707.2,177.5z"/>
		</g>
		<g transform="matrix(3.125,0,0,3.125,-1662.68,1085.13)">
			<path class="st0" d="M770.4,186.5C771.1,186.4,769.5,186.6,770.4,186.5z"/>
		</g>
		<g transform="matrix(3.125,0,0,3.125,-1662.68,1085.13)">
			<path class="st0" d="M755.8,187.9L755.8,187.9c1.1-0.1,2-0.1,2.4-0.1c0.4,0,0.6,0,0.4,0.1C758.4,187.9,756.9,188,755.8,187.9z"/>
		</g>
		<g transform="matrix(3.125,0,0,3.125,-1662.68,1085.13)">
			<path class="st0" d="M736.3,185.8C736.9,185.9,735.4,185.5,736.3,185.8z"/>
		</g>
		<g transform="matrix(3.125,0,0,3.125,-1662.68,1085.13)">
			<path class="st0" d="M739.3,186.3C739.9,186.4,738.3,186.1,739.3,186.3z"/>
		</g>
		<g transform="matrix(3.125,0,0,3.125,-1662.68,1085.13)">
			<path class="st0" d="M773.3,185.8c0,0.1-1.8,0.4-2.9,0.7C770.4,186.3,772.2,186,773.3,185.8z"/>
		</g>
		<g transform="matrix(3.125,0,0,3.125,-1662.68,1085.13)">
			<path class="st0" d="M779.1,184.2C779.3,184.3,777,184.9,779.1,184.2z"/>
		</g>
		<g transform="matrix(3.125,0,0,3.125,-1662.68,1085.13)">
			<path class="st0" d="M767.4,186.8C768.1,186.7,766.5,186.8,767.4,186.8z"/>
		</g>
		<g transform="matrix(3.125,0,0,3.125,-1662.68,1085.13)">
			<path class="st0" d="M745.2,187C745.8,187.1,744.2,186.9,745.2,187z"/>
		</g>
		<g transform="matrix(3.125,0,0,3.125,-1662.68,1085.13)">
			<path class="st0" d="M779.1,184.2C778.9,184.2,781.2,183.6,779.1,184.2z"/>
		</g>
		<g transform="matrix(3.125,0,0,3.125,-1662.68,1085.13)">
			<path class="st0" d="M771.9,186c0.8-0.2,0.9-0.3,1.3-0.4c0.4-0.1,1.1-0.3,3-0.8c-0.8,0.2-0.9,0.3-1.3,0.5
				C774.5,185.4,773.8,185.6,771.9,186z"/>
		</g>
		<g transform="matrix(3.125,0,0,3.125,-1662.68,1085.13)">
			<path class="st0" d="M768.9,186.4C768.1,186.8,770.1,185.7,768.9,186.4z"/>
		</g>
		<g transform="matrix(3.125,0,0,3.125,-1662.68,1085.13)">
			<path class="st0" d="M676.6,133.7C676.8,134.3,676.3,132.7,676.6,133.7z"/>
		</g>
		<g transform="matrix(3.125,0,0,3.125,-1662.68,1085.13)">
			<path class="st0" d="M781.9,183C782,183.1,779.8,183.8,781.9,183z"/>
		</g>
		<g transform="matrix(3.125,0,0,3.125,-1662.68,1085.13)">
			<path class="st0" d="M781.9,183c0.2-0.2-0.3-0.1,1.3-0.7C783,182.5,783.5,182.5,781.9,183z"/>
		</g>
		<g transform="matrix(3.125,0,0,3.125,-1662.68,1085.13)">
			<path class="st0" d="M776.1,184.5C776.3,184.5,774,185.1,776.1,184.5z"/>
		</g>
		<g transform="matrix(3.125,0,0,3.125,-1662.68,1085.13)">
			<path class="st0" d="M771.8,185.5c0,0.1-1.8,0.4-2.9,0.6C768.9,186,770.6,185.7,771.8,185.5z"/>
		</g>
		<g transform="matrix(3.125,0,0,3.125,-1662.68,1085.13)">
			<path class="st0" d="M748.2,186.8c0,0-1.2,0-1.5-0.1C747.2,186.7,747.7,186.8,748.2,186.8z"/>
		</g>
		<g transform="matrix(3.125,0,0,3.125,-1662.68,1085.13)">
			<path class="st0" d="M677.8,133.2c-0.4-0.4-1.1-1.3-1.9-3.1c-0.8-1.8-1.7-4.4-2.3-8.1c1.2,4,2.2,7.4,3.5,9.9c0,0-0.3-1-0.6-2
				c-0.3-1-0.7-2.1-0.8-2.2c-0.4-1.6-0.4-2-0.2-1.5c0.3,0.6,0.8,2.1,1.4,4.2C676.9,130.3,677.2,131.5,677.8,133.2z"/>
		</g>
		<g transform="matrix(3.125,0,0,3.125,-1662.68,1085.13)">
			<path class="st0" d="M783.2,182.4c0-0.1,0-0.1,0.3-0.3c0.3-0.2,1-0.4,2.4-1C785.3,181.4,784.5,181.8,783.2,182.4z"/>
		</g>
		<g transform="matrix(3.125,0,0,3.125,-1662.68,1085.13)">
			<path class="st0" d="M778.9,183.6C780.7,183.1,779.8,183.5,778.9,183.6z"/>
		</g>
		<g transform="matrix(3.125,0,0,3.125,-1662.68,1085.13)">
			<path class="st0" d="M749.7,186.9c-0.5,0-1-0.1-1.5-0.1C748.2,186.8,749.4,186.8,749.7,186.9z"/>
		</g>
		<g transform="matrix(3.125,0,0,3.125,-1662.68,1085.13)">
			<path class="st0" d="M771.7,185.3C771.9,185.4,769.6,185.8,771.7,185.3z"/>
		</g>
		<g transform="matrix(3.125,0,0,3.125,-1662.68,1085.13)">
			<path class="st0" d="M780.3,183.1C782,182.5,781.2,182.9,780.3,183.1z"/>
		</g>
		<g transform="matrix(3.125,0,0,3.125,-1662.68,1085.13)">
			<path class="st0" d="M771.7,185.3c-0.7,0,0.4-0.2,1.1-0.3c0.4-0.1,0.6-0.1,0.5,0C773.3,185,772.8,185.1,771.7,185.3z"/>
		</g>
		<g transform="matrix(3.125,0,0,3.125,-1662.68,1085.13)">
			<path class="st0" d="M678.9,137.6C679.1,138.2,678.5,136.7,678.9,137.6z"/>
		</g>
		<g transform="matrix(3.125,0,0,3.125,-1662.68,1085.13)">
			<path class="st0" d="M780.3,183.1c-0.5,0.1-0.9,0.3-1.4,0.4C778.9,183.5,780,183.1,780.3,183.1z"/>
		</g>
		<g transform="matrix(3.125,0,0,3.125,-1662.68,1085.13)">
			<path class="st0" d="M672.1,102.7C672,103.3,672.2,101.7,672.1,102.7z"/>
		</g>
		<g transform="matrix(3.125,0,0,3.125,-1662.68,1085.13)">
			<path class="st0" d="M681.7,142.9c-0.5-0.7-0.7-1.1-0.6-1.1C681.2,141.7,681.4,142,681.7,142.9z"/>
		</g>
		<g transform="matrix(3.125,0,0,3.125,-1662.68,1085.13)">
			<path class="st0" d="M767.3,185.8C767.1,185.7,769.4,185.4,767.3,185.8z"/>
		</g>
		<g transform="matrix(3.125,0,0,3.125,-1662.68,1085.13)">
			<path class="st0" d="M682.6,144.1C682.9,144.6,682.2,143.2,682.6,144.1z"/>
		</g>
		<g transform="matrix(3.125,0,0,3.125,-1662.68,1085.13)">
			<path class="st0" d="M683.5,145.3C683.8,145.8,683,144.4,683.5,145.3z"/>
		</g>
		<g transform="matrix(3.125,0,0,3.125,-1662.68,1085.13)">
			<path class="st0" d="M681.5,141.3c0.2,0.8-0.4-0.2-0.7-0.9c-0.2-0.4-0.2-0.6-0.2-0.6C680.7,139.9,680.9,140.3,681.5,141.3z"/>
		</g>
		<g transform="matrix(3.125,0,0,3.125,-1662.68,1085.13)">
			<path class="st0" d="M672.7,107.1C672.7,107.8,672.7,106.2,672.7,107.1z"/>
		</g>
		<g transform="matrix(3.125,0,0,3.125,-1662.68,1085.13)">
			<path class="st0" d="M789.7,178.7L789.7,178.7c-0.4,0.3-0.9,0.5-1.3,0.7C788.4,179.3,788.5,179.2,789.7,178.7z"/>
		</g>
		<g transform="matrix(3.125,0,0,3.125,-1662.68,1085.13)">
			<path class="st0" d="M684.4,146.4C684.7,147,684,145.6,684.4,146.4z"/>
		</g>
		<g transform="matrix(3.125,0,0,3.125,-1662.68,1085.13)">
			<path class="st0" d="M681.5,141.3C681.5,141.1,682.5,143.2,681.5,141.3z"/>
		</g>
		<g transform="matrix(3.125,0,0,3.125,-1662.68,1085.13)">
			<path class="st0" d="M792.2,177.2c0,0-0.6,0.3-1.2,0.6c-0.6,0.3-1.3,0.6-1.5,0.6C790.5,178.1,791.4,177.7,792.2,177.2z"/>
		</g>
		<g transform="matrix(3.125,0,0,3.125,-1662.68,1085.13)">
			<path class="st0" d="M685.3,147.6c-0.6-0.6-0.7-1.1-0.7-1.1C684.7,146.5,685,146.8,685.3,147.6z"/>
		</g>
		<g transform="matrix(3.125,0,0,3.125,-1662.68,1085.13)">
			<path class="st0" d="M683.1,143.8C683,144.2,680.4,138.7,683.1,143.8z"/>
		</g>
		<g transform="matrix(3.125,0,0,3.125,-1662.68,1085.13)">
			<path class="st0" d="M677.2,130.3c-0.1,0-0.6-1.7-1-2.8C676.3,127.5,676.8,129.2,677.2,130.3z"/>
		</g>
		<g transform="matrix(3.125,0,0,3.125,-1662.68,1085.13)">
			<path class="st0" d="M683.1,143.8c-0.2-0.8,0.3,0.2,0.7,0.8c0.2,0.3,0.3,0.6,0.2,0.5C684,145.1,683.7,144.7,683.1,143.8z"/>
		</g>
		<g transform="matrix(3.125,0,0,3.125,-1662.68,1085.13)">
			<path class="st0" d="M673.7,111.5c-0.2-0.3,0,1.7-0.2,1.5l-0.3-3c-0.1-0.8-0.1-1.6-0.2-2.9c0.1,1.1,0.2,1.7,0.3,2.2
				C673.5,109.9,673.6,110.5,673.7,111.5z"/>
		</g>
		<g transform="matrix(3.125,0,0,3.125,-1662.68,1085.13)">
			<path class="st0" d="M686.3,148.7c-0.6-0.6-0.8-1-0.7-1.1C685.7,147.6,686,147.9,686.3,148.7z"/>
		</g>
		<g transform="matrix(3.125,0,0,3.125,-1662.68,1085.13)">
			<path class="st0" d="M677.9,131.6C678.1,132.2,677.6,130.7,677.9,131.6z"/>
		</g>
		<g transform="matrix(3.125,0,0,3.125,-1662.68,1085.13)">
			<path class="st0" d="M691.7,155.7C692,156.2,691.1,154.9,691.7,155.7z"/>
		</g>
		<g transform="matrix(3.125,0,0,3.125,-1662.68,1085.13)">
			<path class="st0" d="M687.2,59.9c0.7-1,1-1.4,1.1-1.4c0,0-0.2,0.4-0.5,0.9c-0.6,1-1.4,2.3-1,2c-1,1.5-1.5,2.2-1.6,2.3
				c-0.1,0.1,0.1-0.3,0.4-0.9C686.3,61.6,687.5,59.7,687.2,59.9z"/>
		</g>
		<g transform="matrix(3.125,0,0,3.125,-1662.68,1085.13)">
			<path class="st0" d="M786.8,179.3c-0.5,0.2-0.9,0.4-1.4,0.5l0-0.1C786.2,179.4,787,179.1,786.8,179.3z"/>
		</g>
		<g transform="matrix(3.125,0,0,3.125,-1662.68,1085.13)">
			<path class="st0" d="M684.9,146.1c-0.7-1-0.9-1.4-0.8-1.3c0,0,0.3,0.4,0.6,0.9C685.3,146.5,686,147.6,684.9,146.1z"/>
		</g>
		<g transform="matrix(3.125,0,0,3.125,-1662.68,1085.13)">
			<path class="st0" d="M678,131.6C678,131.7,677.3,129.6,678,131.6z"/>
		</g>
		<g transform="matrix(3.125,0,0,3.125,-1662.68,1085.13)">
			<path class="st0" d="M678,131.6C678.1,131.4,678.8,133.6,678,131.6z"/>
		</g>
		<g transform="matrix(3.125,0,0,3.125,-1662.68,1085.13)">
			<path class="st0" d="M688.3,150.9C688.3,151.1,687.1,149.2,688.3,150.9z"/>
		</g>
		<g transform="matrix(3.125,0,0,3.125,-1662.68,1085.13)">
			<path class="st0" d="M791.9,176.5L791.9,176.5C791.2,177,790.4,177.3,791.9,176.5z"/>
		</g>
		<g transform="matrix(3.125,0,0,3.125,-1662.68,1085.13)">
			<path class="st0" d="M688.3,150.9c-0.3-0.7,0.4,0.2,0.8,0.8c0.2,0.3,0.3,0.5,0.3,0.5C689.3,152.1,689,151.8,688.3,150.9z"/>
		</g>
		<g transform="matrix(3.125,0,0,3.125,-1662.68,1085.13)">
			<path class="st0" d="M693.9,157.6C694.3,158.1,693.3,156.9,693.9,157.6z"/>
		</g>
		<g transform="matrix(3.125,0,0,3.125,-1662.68,1085.13)">
			<path class="st0" d="M791.8,176.3L791.8,176.3C791.1,176.8,790.3,177.1,791.8,176.3z"/>
		</g>
		<g transform="matrix(3.125,0,0,3.125,-1662.68,1085.13)">
			<path class="st0" d="M688.6,150.7c0.3,0.4,0.6,0.8,0.9,1.2c1.1,1.5,0.7,1.1,0.1,0.4C689,151.5,688.3,150.4,688.6,150.7z"/>
		</g>
		<g transform="matrix(3.125,0,0,3.125,-1662.68,1085.13)">
			<path class="st0" d="M687.8,149.5c-0.1,0-1-1.4-1.7-2.4C686.2,147.1,687.1,148.6,687.8,149.5z"/>
		</g>
		<g transform="matrix(3.125,0,0,3.125,-1662.68,1085.13)">
			<path class="st0" d="M689.5,151.8C689.5,151.7,690.8,153.5,689.5,151.8z"/>
		</g>
		<g transform="matrix(3.125,0,0,3.125,-1662.68,1085.13)">
			<path class="st0" d="M688.6,150.7c-0.7-1-0.9-1.5-0.8-1.6c0.1-0.1,0.5,0.4,1.2,1.3c0.7,1.1,0.5,0.9,0.2,0.6
				C688.9,150.6,688.4,150.1,688.6,150.7z"/>
		</g>
		<g transform="matrix(3.125,0,0,3.125,-1662.68,1085.13)">
			<path class="st0" d="M680.8,136.8C680.8,136.9,679.9,134.8,680.8,136.8z"/>
		</g>
		<g transform="matrix(3.125,0,0,3.125,-1662.68,1085.13)">
			<path class="st0" d="M692.4,155.1C692.4,155.3,691,153.5,692.4,155.1z"/>
		</g>
		<g transform="matrix(3.125,0,0,3.125,-1662.68,1085.13)">
			<path class="st0" d="M786.4,178.4C786.6,178.4,784.5,179.2,786.4,178.4z"/>
		</g>
		<g transform="matrix(3.125,0,0,3.125,-1662.68,1085.13)">
			<path class="st0" d="M692.4,155.1C692.3,155,693.7,156.7,692.4,155.1z"/>
		</g>
		<g transform="matrix(3.125,0,0,3.125,-1662.68,1085.13)">
			<path class="st0" d="M786.4,178.4C786.2,178.3,788.3,177.5,786.4,178.4z"/>
		</g>
		<g transform="matrix(3.125,0,0,3.125,-1662.68,1085.13)">
			<path class="st0" d="M675.4,117.2C675.4,117.8,675.3,116.2,675.4,117.2z"/>
		</g>
		<g transform="matrix(3.125,0,0,3.125,-1662.68,1085.13)">
			<path class="st0" d="M693.5,156c-1.3-1.3-1.5-1.7-1.4-1.6C692.3,154.5,692.9,155.2,693.5,156z"/>
		</g>
		<g transform="matrix(3.125,0,0,3.125,-1662.68,1085.13)">
			<path class="st0" d="M689,150.4C689,150.2,690.3,152.1,689,150.4z"/>
		</g>
		<g transform="matrix(3.125,0,0,3.125,-1662.68,1085.13)">
			<path class="st0" d="M690.1,151.4C690.4,151.9,689.5,150.6,690.1,151.4z"/>
		</g>
		<g transform="matrix(3.125,0,0,3.125,-1662.68,1085.13)">
			<path class="st0" d="M691.9,153.6c-0.1-0.1-0.6-0.7-1.1-1.4c-0.6-0.7-1.2-1.5-1.5-2c-0.3-0.4,0.6,0.7,1.4,1.8
				C691.6,153.1,692.4,154.1,691.9,153.6z"/>
		</g>
		<g transform="matrix(3.125,0,0,3.125,-1662.68,1085.13)">
			<path class="st0" d="M678.1,126.9C678.3,127.5,677.9,126,678.1,126.9z"/>
		</g>
		<g transform="matrix(3.125,0,0,3.125,-1662.68,1085.13)">
			<path class="st0" d="M699.8,161.9C700.2,162.4,699.1,161.3,699.8,161.9z"/>
		</g>
		<g transform="matrix(3.125,0,0,3.125,-1662.68,1085.13)">
			<path class="st0" d="M694.8,156.8c-0.7-0.8-0.9-1.1-0.9-1.2c0-0.1,0.2,0.2,0.5,0.4c0.5,0.5,1.3,1.3,0.8,0.5
				c1.2,1.5,1.7,2.1,1.7,2.3C695.7,157.7,695.1,157,694.8,156.8z"/>
		</g>
		<g transform="matrix(3.125,0,0,3.125,-1662.68,1085.13)">
			<path class="st0" d="M678.9,128.2c0.3,1,0.4,1.5,0.5,1.6c0,0.1-0.1-0.1-0.2-0.5c-0.3-0.7-0.7-1.7-0.5-1c-0.5-1.7-0.5-1.8-0.3-1.5
				C678.5,127.2,678.8,128,678.9,128.2z"/>
		</g>
		<g transform="matrix(3.125,0,0,3.125,-1662.68,1085.13)">
			<path class="st0" d="M701,162.7c0.4,0.7-0.4,0-0.9-0.6c-0.3-0.3-0.4-0.5-0.4-0.5C699.9,161.7,700.2,162,701,162.7z"/>
		</g>
		<g transform="matrix(3.125,0,0,3.125,-1662.68,1085.13)">
			<path class="st0" d="M693.1,154.5C692.3,154.1,694.2,155.2,693.1,154.5z"/>
		</g>
		<g transform="matrix(3.125,0,0,3.125,-1662.68,1085.13)">
			<path class="st0" d="M701,162.7C701,162.5,702.6,164,701,162.7z"/>
		</g>
		<g transform="matrix(3.125,0,0,3.125,-1662.68,1085.13)">
			<path class="st0" d="M683.2,138.8C683.4,139.4,682.8,138,683.2,138.8z"/>
		</g>
		<g transform="matrix(3.125,0,0,3.125,-1662.68,1085.13)">
			<path class="st0" d="M703.4,164.3C703.8,164.7,702.7,163.7,703.4,164.3z"/>
		</g>
		<g transform="matrix(3.125,0,0,3.125,-1662.68,1085.13)">
			<path class="st0" d="M701.3,162.4c-0.9-0.6-1.4-1.3-1.5-1.4C699.7,160.8,700.1,161.1,701.3,162.4z"/>
		</g>
		<g transform="matrix(3.125,0,0,3.125,-1662.68,1085.13)">
			<path class="st0" d="M704.5,165.2c-1.1-0.9-1.1-1.1-0.6-0.8c0.5,0.3,1.7,1.1,3.1,2.2C706,166,705,165.3,704.5,165.2z"/>
		</g>
		<g transform="matrix(3.125,0,0,3.125,-1662.68,1085.13)">
			<path class="st0" d="M699.4,160.3c0,0-0.5-0.4-1-0.9c-0.5-0.5-0.9-1-1-1.2C698.1,159,698.7,159.6,699.4,160.3z"/>
		</g>
		<g transform="matrix(3.125,0,0,3.125,-1662.68,1085.13)">
			<path class="st0" d="M708.2,167.4c-1.1-0.8-1.6-1.2-1.8-1.4c-0.1-0.2,0.1-0.1,0.4,0.1c0.7,0.4,1.9,1.1,1.7,0.8
				C712.8,170.2,707.9,166.7,708.2,167.4z"/>
		</g>
		<g transform="matrix(3.125,0,0,3.125,-1662.68,1085.13)">
			<path class="st0" d="M685.4,140.9C684.8,140.3,686.4,141.7,685.4,140.9z"/>
		</g>
		<g transform="matrix(3.125,0,0,3.125,-1662.68,1085.13)">
			<path class="st0" d="M713.1,170.1c-0.8-0.3-1.1-0.6-1-0.7C712.2,169.3,712.5,169.5,713.1,170.1z"/>
		</g>
		<g transform="matrix(3.125,0,0,3.125,-1662.68,1085.13)">
			<path class="st0" d="M710.9,168.4c-0.8-0.3-1-0.6-1-0.7C709.9,167.7,710.3,167.8,710.9,168.4z"/>
		</g>
		<g transform="matrix(3.125,0,0,3.125,-1662.68,1085.13)">
			<path class="st0" d="M687.3,143C687.6,143.6,686.9,142.2,687.3,143z"/>
		</g>
		<g transform="matrix(3.125,0,0,3.125,-1662.68,1085.13)">
			<path class="st0" d="M713.5,169.5c0.2,0.3-1.4-0.7-1.3-0.5c-1.4-1-1.5-1.1-1.1-0.9c0.4,0.2,1.1,0.6,1.3,0.7
				C712.7,169,713.1,169.3,713.5,169.5z"/>
		</g>
		<g transform="matrix(3.125,0,0,3.125,-1662.68,1085.13)">
			<path class="st0" d="M677.8,108.4C677.8,109,677.9,107.5,677.8,108.4z"/>
		</g>
		<g transform="matrix(3.125,0,0,3.125,-1662.68,1085.13)">
			<path class="st0" d="M716.1,170.5c-0.5-0.4,0.6,0.2,1.5,0.5c0.8,0.4,1.4,0.6-0.1-0.2c0.1,0,0.9,0.4,1.5,0.7
				c0.7,0.3,1.3,0.6,1,0.4c1.2,0.6,1.7,0.9,1.8,1c0.1,0.1-0.2,0-0.5-0.1c-0.7-0.3-1.6-0.6-0.3,0.2c-1.2-0.7-1.8-1-2.4-1.3
				C718,171.5,717.3,171.2,716.1,170.5z"/>
		</g>
		<g transform="matrix(3.125,0,0,3.125,-1662.68,1085.13)">
			<path class="st0" d="M747.3,29.4C746.8,29.4,748.2,29.3,747.3,29.4z"/>
		</g>
		<g transform="matrix(3.125,0,0,3.125,-1662.68,1085.13)">
			<path class="st0" d="M678.3,111.1c-0.2-0.8-0.2-1.2-0.1-1.2C678.3,109.9,678.4,110.3,678.3,111.1z"/>
		</g>
		<g transform="matrix(3.125,0,0,3.125,-1662.68,1085.13)">
			<path class="st0" d="M722.3,36.3c0.2,0-1.5,0.9-1.1,0.9c-1,0.4-2,0.9-3.7,1.8c0.9-0.5,1.4-0.8,1.9-1.2
				C720,37.4,720.7,37,722.3,36.3z"/>
		</g>
		<g transform="matrix(3.125,0,0,3.125,-1662.68,1085.13)">
			<path class="st0" d="M748.7,29.4C747.1,29.5,747.9,29.4,748.7,29.4z"/>
		</g>
		<g transform="matrix(3.125,0,0,3.125,-1662.68,1085.13)">
			<path class="st0" d="M736.5,31.4c0.9-0.2,1.4-0.3,2-0.4c0.6-0.1,1.1-0.2,2.1-0.4c-0.2,0.1-1,0.3-2.1,0.5c-1,0.2-2.3,0.5-3.2,0.8
				C736,31.7,736.6,31.5,736.5,31.4z"/>
		</g>
		<g transform="matrix(3.125,0,0,3.125,-1662.68,1085.13)">
			<path class="st0" d="M679.3,115.2C679.4,115.7,679.2,114.3,679.3,115.2z"/>
		</g>
		<g transform="matrix(3.125,0,0,3.125,-1662.68,1085.13)">
			<path class="st0" d="M723.8,36.2C723.2,36.4,724.6,35.9,723.8,36.2z"/>
		</g>
		<g transform="matrix(3.125,0,0,3.125,-1662.68,1085.13)">
			<path class="st0" d="M679.8,116.5c0,0.5,0.1,1.6-0.2,0c-0.1-0.9-0.1-1.3-0.1-1.3C679.6,115.2,679.7,115.6,679.8,116.5z"/>
		</g>
		<g transform="matrix(3.125,0,0,3.125,-1662.68,1085.13)">
			<path class="st0" d="M818.1,147.2C818,147.3,819.2,145.6,818.1,147.2z"/>
		</g>
		<g transform="matrix(3.125,0,0,3.125,-1662.68,1085.13)">
			<path class="st0" d="M735.8,175.8L735.8,175.8C736.6,175.9,737.3,176.1,735.8,175.8z"/>
		</g>
		<g transform="matrix(3.125,0,0,3.125,-1662.68,1085.13)">
			<path class="st0" d="M742.4,176.6C743,176.7,741.6,176.4,742.4,176.6z"/>
		</g>
		<g transform="matrix(3.125,0,0,3.125,-1662.68,1085.13)">
			<path class="st0" d="M745.1,176.8C745.6,176.9,744.2,176.6,745.1,176.8z"/>
		</g>
		<g transform="matrix(3.125,0,0,3.125,-1662.68,1085.13)">
			<path class="st0" d="M763.3,33.6C762.8,33.5,764.1,33.7,763.3,33.6z"/>
		</g>
		<g transform="matrix(3.125,0,0,3.125,-1662.68,1085.13)">
			<path class="st0" d="M773.4,36c-1-0.2-1.4-0.2-1.3,0c-1.8-0.4-2.4-0.6-2.1-0.6C770.3,35.4,771.6,35.6,773.4,36z"/>
		</g>
		<g transform="matrix(3.125,0,0,3.125,-1662.68,1085.13)">
			<path class="st0" d="M792.3,44.1C791.9,43.8,793,44.5,792.3,44.1z"/>
		</g>
		<g transform="matrix(3.125,0,0,3.125,-1662.68,1085.13)">
			<path class="st0" d="M774.6,36.7C774,36.5,775.4,36.9,774.6,36.7z"/>
		</g>
		<g transform="matrix(3.125,0,0,3.125,-1662.68,1085.13)">
			<path class="st0" d="M773.3,36.5C772.7,36.4,774.1,36.8,773.3,36.5z"/>
		</g>
		<g transform="matrix(3.125,0,0,3.125,-1662.68,1085.13)">
			<path class="st0" d="M796.4,47.1C796,46.8,797.1,47.7,796.4,47.1z"/>
		</g>
		<g transform="matrix(3.125,0,0,3.125,-1662.68,1085.13)">
			<path class="st0" d="M784,40.5C783.6,40.3,784.8,40.9,784,40.5z"/>
		</g>
		<g transform="matrix(3.125,0,0,3.125,-1662.68,1085.13)">
			<path class="st0" d="M755.5,174.9C757.1,174.9,756.3,175,755.5,174.9z"/>
		</g>
		<g transform="matrix(3.125,0,0,3.125,-1662.68,1085.13)">
			<path class="st0" d="M747.9,35.4C747.4,35.4,748.8,35.4,747.9,35.4z"/>
		</g>
		<g transform="matrix(3.125,0,0,3.125,-1662.68,1085.13)">
			<path class="st0" d="M744.2,36C743.7,36,745,35.9,744.2,36z"/>
		</g>
		<g transform="matrix(3.125,0,0,3.125,-1662.68,1085.13)">
			<path class="st0" d="M746.7,35.6c1.2-0.1,1.6-0.1,1.5-0.1c0,0-0.5,0.1-1.1,0.2c-1.1,0.2-2.6,0.5-1.6,0.5c-1.1,0.1-2.8,0.3-5,0.8
				c0.4-0.3,1.9-0.6,3.2-0.8C745.2,35.9,746.5,35.8,746.7,35.6z"/>
		</g>
		<g transform="matrix(3.125,0,0,3.125,-1662.68,1085.13)">
			<path class="st0" d="M758,174.6C757.9,174.5,759.9,174.4,758,174.6z"/>
		</g>
		<g transform="matrix(3.125,0,0,3.125,-1662.68,1085.13)">
			<path class="st0" d="M738.1,37.9c0.8-0.2,1.6-0.4,2.4-0.6l0,0.1c-0.8,0.2-1.6,0.4-2.4,0.6L738.1,37.9z M735.8,38.9
				c-2.7,0.8-4.5,1.4-4.7,1.7c1.7-0.6,2.6-0.9,3-1c0.4-0.1,0.3,0,0.2,0.1c-0.4,0.2-1.1,0.5,0.5,0.1l4.4-1.6c1.2-0.4,2.4-0.9,3.9-1.3
				c-1.2,0.2-1.6,0.2-2.1,0.3c-0.5,0.1-1.1,0.1-2.8,0.6c-0.4,0.2-1.8,0.7-2.7,1c-0.5,0.2-0.8,0.3-0.8,0.4
				C734.6,39.2,735,39.1,735.8,38.9z"/>
		</g>
		<g transform="matrix(3.125,0,0,3.125,-1662.68,1085.13)">
			<path class="st0" d="M810.6,63.3C810.6,63.1,811.7,64.7,810.6,63.3z"/>
		</g>
		<g transform="matrix(3.125,0,0,3.125,-1662.68,1085.13)">
			<path class="st0" d="M819.5,78.2C819.5,78.1,820.2,79.9,819.5,78.2z"/>
		</g>
		<g transform="matrix(3.125,0,0,3.125,-1662.68,1085.13)">
			<path class="st0" d="M817.8,74.9C817.9,74.7,818.7,76.5,817.8,74.9z"/>
		</g>
		<g transform="matrix(3.125,0,0,3.125,-1662.68,1085.13)">
			<path class="st0" d="M819.5,78.2C819.4,78.4,818.7,76.6,819.5,78.2z"/>
		</g>
		<g transform="matrix(3.125,0,0,3.125,-1662.68,1085.13)">
			<path class="st0" d="M817.8,74.9c-0.2-0.2-0.1,0-0.7-1C817.3,74.1,817.3,73.8,817.8,74.9z"/>
		</g>
		<g transform="matrix(3.125,0,0,3.125,-1662.68,1085.13)">
			<path class="st0" d="M818.2,76.1C818,75.6,818.5,76.8,818.2,76.1z"/>
		</g>
		<g transform="matrix(3.125,0,0,3.125,-1662.68,1085.13)">
			<path class="st0" d="M817.1,73.8C817,74.2,814.8,69.6,817.1,73.8z"/>
		</g>
		<g transform="matrix(3.125,0,0,3.125,-1662.68,1085.13)">
			<path class="st0" d="M732.4,40.5c-0.6,0.2-0.7,0.3-1,0.5c-0.3,0.2-0.9,0.4-2.4,1c0.6-0.3,0.7-0.4,1-0.6
				C730.3,41.3,730.8,41,732.4,40.5z"/>
		</g>
		<g transform="matrix(3.125,0,0,3.125,-1662.68,1085.13)">
			<path class="st0" d="M734.8,39.9C734.3,40,735.6,39.7,734.8,39.9z"/>
		</g>
		<g transform="matrix(3.125,0,0,3.125,-1662.68,1085.13)">
			<path class="st0" d="M815.7,71.8C815.7,71.7,816.6,73.4,815.7,71.8z"/>
		</g>
		<g transform="matrix(3.125,0,0,3.125,-1662.68,1085.13)">
			<path class="st0" d="M767.7,171.6C767.6,171.5,769.5,171.2,767.7,171.6z"/>
		</g>
		<g transform="matrix(3.125,0,0,3.125,-1662.68,1085.13)">
			<path class="st0" d="M726.8,43.2c3.3-1.5,6.5-2.5,5.8-2c-1.8,0.5-2.7,0.9-3,1.1c-0.3,0.2,0.1,0.1,0.8,0c-1.5,0.6-1.7,0.6-2.1,0.7
				c-0.3,0.1-0.7,0.2-2.5,1C726.7,43.5,727,43.2,726.8,43.2z"/>
		</g>
		<g transform="matrix(3.125,0,0,3.125,-1662.68,1085.13)">
			<path class="st0" d="M767.7,171.4C769.2,171.1,768.5,171.4,767.7,171.4z"/>
		</g>
		<g transform="matrix(3.125,0,0,3.125,-1662.68,1085.13)">
			<path class="st0" d="M729.4,42.9c-0.8,0.3-1.3,0.5-1.7,0.7c-0.5,0.2-0.9,0.4-1.6,0.8c-0.3,0.1-1,0.3-2.2,1c0.5-0.4,1.5-1,2.1-1.3
				C727.2,43.5,729.2,42.8,729.4,42.9z"/>
		</g>
		<g transform="matrix(3.125,0,0,3.125,-1662.68,1085.13)">
			<path class="st0" d="M772.4,169.8C772.9,169.7,771.6,169.9,772.4,169.8z"/>
		</g>
		<g transform="matrix(3.125,0,0,3.125,-1662.68,1085.13)">
			<path class="st0" d="M726,44.4C726.2,44.4,724.5,45.2,726,44.4z"/>
		</g>
		<g transform="matrix(3.125,0,0,3.125,-1662.68,1085.13)">
			<path class="st0" d="M723.9,45.6C722.6,46.2,723.2,45.8,723.9,45.6z"/>
		</g>
		<g transform="matrix(3.125,0,0,3.125,-1662.68,1085.13)">
			<path class="st0" d="M723.9,45.6c1.5-0.8,2.4-1.1,3.3-1.5c-0.2,0.4-1.9,1.4-2.9,2.2c-1.4,0.6-0.8,0.2-0.1-0.3
				c0.7-0.5,1.6-1.1,0.9-0.9c-1.3,0.6-1.4,0.8-1.6,1c-0.3,0.2-0.7,0.5-2.5,1.5C721.8,47,722.4,46.5,723.9,45.6z"/>
		</g>
		<g transform="matrix(3.125,0,0,3.125,-1662.68,1085.13)">
			<path class="st0" d="M776.8,167.6C778.1,167.1,777.5,167.5,776.8,167.6z"/>
		</g>
		<g transform="matrix(3.125,0,0,3.125,-1662.68,1085.13)">
			<path class="st0" d="M776.8,167.6c-0.8,0.3-1.5,0.5-2.3,0.7c0.2-0.1-0.5,0.1-1.2,0.3c0-0.1,0.9-0.3,1.1-0.5
				c0.8-0.2,1-0.3,1.3-0.3C775.9,167.7,776.1,167.7,776.8,167.6L776.8,167.6z"/>
		</g>
		<g transform="matrix(3.125,0,0,3.125,-1662.68,1085.13)">
			<path class="st0" d="M780.9,165.2C781.4,165,780.2,165.4,780.9,165.2z"/>
		</g>
		<g transform="matrix(3.125,0,0,3.125,-1662.68,1085.13)">
			<path class="st0" d="M788.4,157c-0.5,0.5-0.8,0.6-0.8,0.5C787.6,157.4,787.8,157.2,788.4,157z"/>
		</g>
		<g transform="matrix(3.125,0,0,3.125,-1662.68,1085.13)">
			<path class="st0" d="M765.6,159.6c-0.7,0.3-1.3,0.3-1.5,0.2C763.9,159.7,764.3,159.6,765.6,159.6z"/>
		</g>
		<g transform="matrix(3.125,0,0,3.125,-1662.68,1085.13)">
			<path class="st0" d="M774.4,157.2C774.3,157.2,775.8,156.7,774.4,157.2z"/>
		</g>
		<g transform="matrix(3.125,0,0,3.125,-1662.68,1085.13)">
			<path class="st0" d="M791,147.8C791.4,147.5,790.5,148.1,791,147.8z"/>
		</g>
		<g transform="matrix(3.125,0,0,3.125,-1662.68,1085.13)">
			<path class="st0" d="M763,155.7C763.4,155.6,762.3,155.7,763,155.7z"/>
		</g>
		<g transform="matrix(3.125,0,0,3.125,-1662.68,1085.13)">
			<path class="st0" d="M763.4,152.6C763.3,152.5,764.7,152.3,763.4,152.6z"/>
		</g>
		<g transform="matrix(3.125,0,0,3.125,-1662.68,1085.13)">
			<path class="st0" d="M750.1,152.9c-0.5-0.1-1-0.1-0.9-0.2C749.8,152.7,750.3,152.8,750.1,152.9z"/>
		</g>
		<g transform="matrix(3.125,0,0,3.125,-1662.68,1085.13)">
			<path class="st0" d="M708.9,121.5c-0.7-2,0.1-0.3,0.3-0.1C710,123.4,709,121.7,708.9,121.5z"/>
		</g>
		<g transform="matrix(3.125,0,0,3.125,-1662.68,1085.13)">
			<path class="st0" d="M723.1,141c-0.2,0-1.3-1-2-1.7C721.2,139.4,722.3,140.4,723.1,141z"/>
		</g>
		<g transform="matrix(3.125,0,0,3.125,-1662.68,1085.13)">
			<path class="st0" d="M706.8,113.1c0.2-0.1,0.6,0.4,1.1,1.1c0.5,0.7,1,1.7,1.4,2.7c-0.4-0.4-0.8-0.6-1.2-1
				C707.7,115.4,707.3,114.7,706.8,113.1z"/>
		</g>
		<g transform="matrix(3.125,0,0,3.125,-1662.68,1085.13)">
			<path class="st0" d="M706.8,110.5c-0.1,0.5-0.2-0.2-0.3-0.6C706.6,109.4,706.6,109.2,706.8,110.5z"/>
		</g>
		<g transform="matrix(3.125,0,0,3.125,-1662.68,1085.13)">
			<path class="st0" d="M706.6,107.9C706.6,108.3,706.6,107.4,706.6,107.9z"/>
		</g>
		<g transform="matrix(3.125,0,0,3.125,-1662.68,1085.13)">
			<path class="st0" d="M706.8,110.5c0.2,0.5,0.3,0.4,0.4,0.5c0.1,0.1,0.3,0.5,0.5,1.9c-0.2-0.7-0.3-0.8-0.5-0.9
				C707.2,111.9,707,111.7,706.8,110.5z"/>
		</g>
		<g transform="matrix(3.125,0,0,3.125,-1662.68,1085.13)">
			<path class="st0" d="M707,104.5c0.3-0.5,0.3,0.1,0.3,0.6C707.2,105.5,707.1,105.8,707,104.5z"/>
		</g>
		<g transform="matrix(3.125,0,0,3.125,-1662.68,1085.13)">
			<path class="st0" d="M708,112.9C707.5,112,708.1,111.9,708,112.9z"/>
		</g>
		<g transform="matrix(3.125,0,0,3.125,-1662.68,1085.13)">
			<path class="st0" d="M708.6,113.6c-0.2-0.9-0.2-1.3-0.2-1.5c0-0.2,0.1-0.2,0.1-0.2c0.1,0.7,0.1,0.8,0.2,1.6L708.6,113.6z"/>
		</g>
		<g transform="matrix(3.125,0,0,3.125,-1662.68,1085.13)">
			<path class="st0" d="M708.4,107C708.4,108,708.3,107.5,708.4,107z"/>
		</g>
		<g transform="matrix(3.125,0,0,3.125,-1662.68,1085.13)">
			<path class="st0" d="M708.7,109.4c0.1,1.2,0,1-0.1,0.6C708.6,109.7,708.5,109.1,708.7,109.4z"/>
		</g>
		<g transform="matrix(3.125,0,0,3.125,-1662.68,1085.13)">
			<path class="st0" d="M709.6,98c-0.1,0,0.1-1,0.2-1.6C709.8,96.5,709.6,97.4,709.6,98z"/>
		</g>
		<g transform="matrix(3.125,0,0,3.125,-1662.68,1085.13)">
			<path class="st0" d="M709.7,98.1C709.6,98.4,709.8,97.5,709.7,98.1z"/>
		</g>
		<g transform="matrix(3.125,0,0,3.125,-1662.68,1085.13)">
			<path class="st0" d="M713.9,85c0.4-0.3,0.1,0.3-0.1,0.6C713.5,86,713.3,86.2,713.9,85z"/>
		</g>
		<g transform="matrix(3.125,0,0,3.125,-1662.68,1085.13)">
			<path class="st0" d="M713.2,87.4C713.1,87.7,713.5,87,713.2,87.4z"/>
		</g>
		<g transform="matrix(3.125,0,0,3.125,-1662.68,1085.13)">
			<path class="st0" d="M715.2,87.5C715.3,86.5,715.9,86.8,715.2,87.5z"/>
		</g>
		<g transform="matrix(3.125,0,0,3.125,-1662.68,1085.13)">
			<path class="st0" d="M715.6,87.6C715.4,87.9,715.8,87.2,715.6,87.6z"/>
		</g>
		<g transform="matrix(3.125,0,0,3.125,-1662.68,1085.13)">
			<path class="st0" d="M716.4,86.3C716,87.2,716.1,86.7,716.4,86.3z"/>
		</g>
	</g>
	<g transform="matrix(1.64761,0,0,1.64761,-77.052,347.567)">
		<path class="st0" d="M267.5-69.2c-0.9-2.6-4.9-1.7-7-2c-3-0.4-6.2-1.8-8-4.3c3.8-3.9,10.8-5.2,16-6.3c6.4-1.3,13.8-3.5,20.4-3.4
			c-0.3,5.7-2.2,11.3-2.4,17.2c-0.2,5.3,0.6,11.6-1.4,16.6c-6.2-1.9-9.8-6.3-8.8-12.8c-6.5,2.3-10.4,6.4-14.1,12.3
			c-2.3,3.7-4.5,7.4-7.8,10.4c-2.5,2.3-5.2,3.9-3.7,7.6c1.7,4.3,5.2,7.5,6.1,12.2c1.1,5.4,1.3,11.3-0.3,16.7
			c-3.5,11.5-10.9,21.1-22,26.2c-5.7,2.6-12.3,3.5-18.5,2.1c-8-1.8-17.3-6.7-21.9-13.6c-4.4-6.6-5.6-15.1-5.4-22.8
			c0.2-8,2.6-15.6,7.1-22.3c4.1-6.2,9.7-12.6,17.2-14.5c7.7-2,15.9,0.4,23.2,2.9c8.4,3,14.6-7.3,19.4-12.7
			C258.9-63.9,262.6-66.9,267.5-69.2z M226.5,15.1c12.6-0.1,24.3-25.6,21.7-31.3C226.6-86.2,151.9,8.9,226.5,15.1z"/>
	</g>
</g>
</svg>
