<?xml version="1.0" encoding="utf-8"?>
<!-- Generator: Adobe Illustrator 26.0.0, SVG Export Plug-In . SVG Version: 6.00 Build 0)  -->
<svg version="1.1" id="Layer_1" xmlnsSerif="http://www.serif.com/"
	 xmlns="http://www.w3.org/2000/svg" xmlnsXlink="http://www.w3.org/1999/xlink" x="0px" y="0px" viewBox="0 0 576 587"
	 style="enable-background:new 0 0 576 587;" xml:space="preserve">
<style type="text/css">
	.st0{fill-rule:evenodd;clip-rule:evenodd;fill:#21EDED;}
</style>
<g id="Mercury">
	<g transform="matrix(1.08591,0,0,1.08591,-437.715,-1248.27)">
		<g transform="matrix(3.125,0,0,3.125,-1662.68,1085.13)">
			<path class="st0" d="M714.5,82.7c-0.1-0.1,0.4-0.8,0.7-1.4C715.2,81.4,714.8,82.1,714.5,82.7z M714,82.4c0.6-0.9,1.1-1.4,0.7-0.5
				C713.9,83.4,714.3,82.1,714,82.4z M713.4,82.1C713.2,82.4,713.7,81.7,713.4,82.1z M711.2,81.8C711,82.1,711.5,81.3,711.2,81.8z
				 M718.5,137.3C718.7,137.6,718.1,136.9,718.5,137.3z M752.1,151c0.1-0.1,1-0.1,1.5-0.1c0.2,0,0.3,0,0.1,0.1
				C753.5,151,753.1,151,752.1,151C752.2,151.1,750.8,151,752.1,151z M754.8,151c0,0.1-1.1,0.1-1.8,0.1
				C753.1,151.1,754.1,151.1,754.8,151z M704.3,113.6c0.3,0.8,0.7,2.2,1,3.4c-0.1-0.1-0.3-0.6-0.5-1.3
				C704.6,115,704.4,114.2,704.3,113.6z M744.1,150.6C744.5,150.7,743.5,150.4,744.1,150.6z M757.5,151.3c-1.3,0.2-2,0.1-2,0
				s0.6-0.2,2-0.3V151.3z M727.2,145c-1.2-0.6-1.7-1-1.6-1.1c0-0.1,0.6,0.2,1.7,0.9L727.2,145z M757.6,151.8c-1.3,0.2-2,0.1-2,0
				s0.7-0.2,2-0.3V151.8z M706.7,80.4c0.7-0.6,1.2-0.6,1.5-0.4c0.3,0.3,0.5,0.9,0.6,1.4c-0.5,0.7-0.9,1.1-1.1,1.2
				c-0.2,0.1-0.4-0.1-0.5-0.3C707.1,81.8,707.1,80.8,706.7,80.4z M709.9,130.5C709.4,130.3,710.7,130.9,709.9,130.5z M707,78.5
				c0.5-0.9,0.8-1.3,1-1.4c0.2-0.2,0.2-0.1,0.3,0c-0.8,1.4-1.2,2.1-1.4,2.2C706.6,79.5,706.7,79.2,707,78.5z M705.3,81.8
				c-0.1-0.1,0.4-1,0.7-1.7C706.1,80.1,705.6,81.1,705.3,81.8z M757.7,153.4C758.1,153.4,757.1,153.4,757.7,153.4z M707.2,77.5
				C707.5,76.5,708,76.8,707.2,77.5z M707,76.3c0.6-1.3,1-1.6,1.1-1.5s0,0.6-0.2,1c-0.5,0.7-0.6,1-0.7,0.9c0,0,0-0.3,0.1-0.5
				C707.5,75.7,707.8,75.1,707,76.3z M781.9,59.2C781.6,58.9,782.4,59.6,781.9,59.2z M729.5,150.6
				C728.4,150.4,728.6,149.8,729.5,150.6z M714.2,64.9c0.7-0.7,1.2-1.1,1.4-1.2c0.3-0.2,0.4-0.1,0.3,0c-0.2,0.3-0.9,1.2-2,2.3
				C714.7,65,714.3,65.1,714.2,64.9z M727.5,150.4c-0.8-0.3-1.4-0.6-1.6-0.9c-0.2-0.2,0-0.2,0.9,0.2c0.8,0.4,1,0.6,1,0.6
				s-0.3-0.1-0.5-0.2C726.7,149.9,726.1,149.7,727.5,150.4z M716,62.6c1.9-1.5-0.4,0.7-2,2.2C714.1,64.5,715.3,63.3,716,62.6z
				 M725.9,151.2c-0.8-0.5-1.1-0.7-1-0.8c0-0.1,0.3,0,0.6,0.1c0.6,0.2,1.3,0.4-0.1-0.5c1.7,0.9,2.3,1.2,2.2,1.4
				C727.5,151.6,726.7,151.5,725.9,151.2z M787.2,147C787.5,146.8,786.6,147.3,787.2,147z M778.6,152.4c-1.3,0.8-2.1,1.1-2.2,1.1
				C776.3,153.4,777,153,778.6,152.4z M781.3,151c-0.8,0.5-1,0.5-1.3,0.5c-0.2,0.1-0.5,0.1-1.5,0.7c0.1-0.1,0.7-0.4,1.4-0.8
				c0.7-0.4,1.5-0.8,2.2-1.2C782.2,150.3,781,151,781.3,151z M768.2,156.5C768.6,156.4,767.5,156.6,768.2,156.5z M781.3,151.1
				C781.7,150.9,780.7,151.3,781.3,151.1z M788.3,146.7C788.6,146.5,787.7,147.1,788.3,146.7z M778.9,153
				C779.3,152.8,778.2,153.2,778.9,153z M771.5,156.7c-0.5,0.3-0.8,0.3-0.9,0.3C770.6,156.9,770.9,156.8,771.5,156.7z M781.2,152.9
				c0,0.1-1.1,0.7-1.8,1C779.3,153.8,780.5,153.3,781.2,152.9z M772.6,156.8c0,0.1-1.2,0.5-2,0.7
				C770.6,157.4,771.8,157.1,772.6,156.8z M753.1,163.5c1.1-0.1,0.8-0.2,0.9-0.4c0-0.1,0.1-0.1,0.4-0.2c0.3-0.1,0.9-0.1,2-0.2
				c-1.4,0.2-0.7,0.3-0.4,0.4c0.2,0.1,0.2,0.1-0.2,0.2S754.6,163.4,753.1,163.5z M702.9,66.1c0-0.1,0.8-1.1,1.3-1.8
				C704.2,64.4,703.4,65.4,702.9,66.1z M753.1,164.1c-0.9,0-1.2,0-1.2,0s0.4,0,0.8-0.1C753.5,164,754.4,163.9,753.1,164.1z
				 M703.8,63.9C703.5,64.3,704.3,63.4,703.8,63.9z M704.2,62.8c0-0.1,0.9-1.1,1.4-1.7C705.7,61.1,704.7,62.1,704.2,62.8z
				 M751.9,165.1c-1.5-0.1-1.8-0.2-1.6-0.3c0.1-0.1,0.6-0.2,0.5-0.3c1.8,0.1,2.2,0.2,2.1,0.3S752.1,165,751.9,165.1z M690.7,116.8
				C690.8,117.3,690.6,116.1,690.7,116.8z M705.5,60.9c0.5-0.3-0.1,0.3-0.5,0.7C704.6,62,704.3,62.2,705.5,60.9
				c-0.5,0.3,0.1-0.3,0.5-0.7C706.4,59.8,706.6,59.6,705.5,60.9z M710.2,56c0-0.1,1-1,1.7-1.5C712,54.6,710.9,55.4,710.2,56z
				 M711,55.1C711.8,54,712.2,54.5,711,55.1z M741.7,164.8C742.1,164.9,740.9,164.6,741.7,164.8z M765.6,164.5c-0.6,0.3-1,0.3-1,0.2
				S764.9,164.5,765.6,164.5z M706.4,58.6c1.4-1.4,1.8-1.7,1.8-1.6c0,0.1-0.5,0.7-0.8,1C706.3,59.1,706.6,58.5,706.4,58.6z
				 M747.3,166c-1-0.2-1.1-0.3-0.9-0.3c0.3,0,0.9,0,1.5,0.1c0.6,0,1.2,0.1,1.2,0.1C749.3,166,748.8,166,747.3,166z M715.1,51
				C716,50,716.4,50.5,715.1,51z M757.7,166.5C756.5,166.8,757.1,166.7,757.7,166.5C758.3,166.4,758.9,166.3,757.7,166.5z
				 M708.3,55.6c1.2-0.9,1-0.5,0.3,0.3c-1,0.9-1.2,0.9-1.1,0.7S708,55.9,708.3,55.6z M715.6,49.7c1.3-0.9,2.1-1.4,2.6-1.6
				c0.5-0.2,0.6-0.2,0.5,0c-0.7,0.4-1.7,1-2.4,1.4C715.6,49.9,715.2,50.1,715.6,49.7z M718.3,47.4c1.3-0.7,2-1,1.7-0.7
				c-0.2,0.2-1.4,0.9-3.5,2.3c0.2-0.2,0.7-0.6,1.1-0.9C718.1,47.7,718.4,47.4,718.3,47.4z M741.3,166.8c-0.6-0.3,0.3-0.2,0.9,0
				c0.3,0.1,0.5,0.1,0.4,0.2C742.6,167,742.2,167,741.3,166.8c0.6,0.3-0.3,0.2-0.9,0c-0.3-0.1-0.5-0.2-0.4-0.2
				C740.1,166.7,740.4,166.7,741.3,166.8z M709.9,153.5c-1.2-1.1-0.1-0.5,0.3-0.4c0.8,0.7,1.3,1.1,1.5,1.3s0.1,0.2-0.1,0.1
				C711.2,154.4,710.3,153.8,709.9,153.5z M737.6,167C738.1,167.2,736.9,166.8,737.6,167z M709.8,153.6c-0.1,0-1.2-0.9-1.9-1.5
				C708,152,709.1,153,709.8,153.6z M685.6,99.7c0.1-1,0.2-1.2,0.2-1c0,0.1,0,0.7,0,1.2s-0.1,1-0.1,1.1
				C685.6,101.1,685.6,100.8,685.6,99.7c-0.2,0.6-0.2-0.3-0.1-0.9c0-0.3,0.1-0.5,0.1-0.5C685.6,98.4,685.6,98.8,685.6,99.7z
				 M765.1,168.1c0,0.1-1.4,0.3-2.4,0.5C762.8,168.5,764.2,168.3,765.1,168.1z M684.9,97.3c0.1-0.8,0.2-1.3,0.2-1.8
				c0.1-0.5,0.2-1,0.3-1.8c0.1,0.3-0.1,1.4-0.2,2.4C685.1,97,685,97.8,684.9,97.3z M733.9,166.9
				C734.4,167.1,733.2,166.7,733.9,166.9z M684.8,96c0.1-0.8,0.2-1.6,0.3-2.4h0.2c-0.1,0.8-0.2,1.6-0.3,2.4H684.8z M732.7,166.8
				C731.3,166.7,731.4,166.1,732.7,166.8z M705.4,151.3c-0.6-0.4-0.8-0.7-0.8-0.7C704.6,150.5,705,150.7,705.4,151.3z M685.3,89.9
				c0.1-0.2,0.1,0.3,0,1.1c-0.1,0.9-0.3,2.2-0.5,3.7c-0.1,0.2-0.1-0.3-0.1-1.1C684.8,92.8,685,91.5,685.3,89.9z M758,170
				c-1.3,0.1-1.9,0.1-2.2,0.1s-0.2-0.1-0.3-0.2c1,0,1.2,0,2.4-0.1L758,170z M737.3,36.9C736.8,37,738.1,36.8,737.3,36.9z
				 M748.2,170.1c0,0.1-1.5,0-2.5-0.1C745.8,169.9,747.3,170,748.2,170.1z M760.4,169.8C761,169.8,759.6,169.9,760.4,169.8z
				 M803.7,56.8C803.4,56.4,804.2,57.4,803.7,56.8z M821.2,90.4c0.2,1.3,0.1,1.4,0,0.8c-0.2-0.6-0.5-1.8-0.8-3.2
				C820.7,88.6,821,89.8,821.2,90.4z M700.4,147.6C699.7,147.2,701.4,148,700.4,147.6z M753.1,171.3c-1.1-0.1-1.4-0.1-1.4-0.2
				c0.1,0,0.5-0.1,1-0.1C753.7,171,754.8,171.1,753.1,171.3z M820.6,85.4C820.4,84.9,820.7,86.2,820.6,85.4z M748.1,171.9
				c-1.6,0-2-0.1-1.9-0.1C746.4,171.7,747.2,171.7,748.1,171.9z M684.8,83.4c0.5-0.6,0.3,0.3,0,0.9c-0.1,0.3-0.2,0.6-0.3,0.5
				C684.5,84.7,684.5,84.3,684.8,83.4c-0.3,0.5-0.1-0.4,0.2-1c0.1-0.3,0.2-0.5,0.2-0.4C685.1,82.1,685,82.5,684.8,83.4z
				 M736.8,170.6C735,170.3,735.9,170.4,736.8,170.6C737.7,170.7,738.6,170.9,736.8,170.6z M693.1,140.5
				C693.3,140.1,695.9,144.6,693.1,140.5C693.1,140.6,692.1,139,693.1,140.5z M687.1,76.1c0.3-1.4,1.6-3.3,1.2-2.2
				c-0.5,1-0.7,1.5-0.8,1.7s-0.1,0.1-0.1,0C687.5,75.4,687.6,74.9,687.1,76.1z M731.8,169.7C732.3,169.8,731.1,169.4,731.8,169.7z
				 M736.7,171l-3.7-1c0-0.2,0.7,0,1.9,0.3s2.8,0.7,4.3,1c-0.4,0-1.1-0.2-1.7-0.3C737,171,736.6,170.9,736.7,171z M750.6,32.7
				c0.7-0.2,1.1-0.1,1.1,0C751.7,32.7,751.3,32.8,750.6,32.7z M691.9,139.8c-0.5-0.5-1.1-1.7-1.3-2.2c-0.1-0.2-0.1-0.3,0.2,0
				c0.2,0.3,0.6,0.9,1.3,2.1C691.5,139.1,691.1,138.5,691.9,139.8z M693.3,141.9C693.5,142.4,692.8,141.2,693.3,141.9z M685.3,127.3
				c-0.1,0-0.6-1.5-0.9-2.4C684.4,124.9,684.9,126.4,685.3,127.3z M690.9,138.9c-0.1,0-0.9-1.3-1.4-2.2
				C689.6,136.7,690.4,138,690.9,138.9z M685.6,76.9c0.5-1.2,0.8-1.5,0.8-1.3c0.1,0.2-0.1,0.9-0.3,1.5c-0.4,0.9-0.6,1.3-0.7,1.4
				c-0.1,0.1-0.1-0.1,0-0.4C685.5,77.5,685.8,76.6,685.6,76.9z M701,152.1C701.4,152.5,700.5,151.5,701,152.1z M754.4,31.7
				C753.9,31.7,755.3,31.8,754.4,31.7z M686.2,74.3c0.4-0.9,0.6-1.2,0.7-1.3c0.1-0.1,0,0.2-0.1,0.5c-0.2,0.6-0.6,1.5-0.2,1
				c-0.6,1.5-0.7,1.5-0.7,1.2C685.9,75.3,686.2,74.5,686.2,74.3z M687.8,134.7c-0.5-0.6-0.6-1-0.5-1
				C687.4,133.6,687.6,133.9,687.8,134.7z M732.7,171.4C732.6,171.3,734.5,171.9,732.7,171.4c-0.2,0.1-1.4-0.3-2-0.5
				c-0.3-0.1-0.4-0.2-0.2-0.1C730.7,170.8,731.4,171,732.7,171.4z M737.7,172.7c-1-0.1-1.7-0.3-1.9-0.4
				C735.7,172.2,736.1,172.2,737.7,172.7z M719.4,166.4C719.8,166.6,718.6,165.9,719.4,166.4z M682.9,124
				C683,124.5,682.7,123.2,682.9,124z M725.1,169.3C725.6,169.6,724.4,169,725.1,169.3z M735,172.7
				C734.1,172.7,737.7,172.7,735,172.7z M699.1,152.2c-0.7-0.7-0.9-1-0.9-1.1s0.2,0.1,0.5,0.4c0.5,0.5,1.2,1.1,0.7,0.4
				c0.8,0.8,1.2,1.3,1.5,1.6c0.2,0.3,0.2,0.3,0,0.2C700.5,153.5,699.6,152.7,699.1,152.2z M717.8,166.4l0.1-0.3c1.1,0.6,2,1,2.5,1.3
				s0.7,0.4,0.6,0.4C720.9,167.9,719.7,167.4,717.8,166.4z M681.3,120.4c-0.3-1.3-0.3-1.7-0.5-2.2c-0.1-0.5-0.3-1.2-0.6-2.9
				c0.3,1.4,0.5,1.5,0.7,2c0.1,0.3,0.2,0.6,0.4,1.3c0.2,0.7,0.4,1.6,0.8,3.1C681.3,119.3,682,122.1,681.3,120.4z M684.1,129.1
				c-0.4-0.7-0.5-1-0.4-1.1C683.8,128,684,128.4,684.1,129.1z M692.8,145.4c-0.5-0.7-1-1.4-1.5-2.2l0.1-0.1c0.5,0.7,1,1.4,1.5,2.2
				L692.8,145.4z M679.4,114c-0.2-1.6-0.2-1.7-0.1-1.4c0.1,0.4,0.3,1.2,0.4,1.3c0.3,1.6,0.2,1.7,0.1,1.4
				C679.6,115,679.4,114.2,679.4,114z M717.5,167c-1.7-0.9-2.5-1.4-2.5-1.5s0.9,0.3,2.6,1.3L717.5,167z M694.2,57.7
				c0.3,0,0,0.9-0.8,2.5s-1.9,3.7-3.1,6c-0.1-0.4,0.5-1.8,1.3-3.5C692.3,61,693.4,59.2,694.2,57.7z M684.1,130.6
				c-0.1-0.1-0.4-0.7-0.6-1.3c-0.2-0.6-0.4-1.1-0.4-1.2C683.4,128.6,683.5,129.2,684.1,130.6z M680.6,120.5
				C680.7,121.1,680.5,119.7,680.6,120.5z M723.4,170c-0.8-0.3-1.6-0.7-2.4-1.1l0.1-0.1c0.8,0.4,1.6,0.7,2.4,1.1L723.4,170z
				 M716.3,166.5c-0.7-0.2-1-0.5-1-0.6C715.3,165.9,715.7,166,716.3,166.5z M728.4,172c-1.5-0.5-1.6-0.7-1.3-0.7s1.1,0.2,1.4,0.3
				c1.5,0.5,1.6,0.6,1.3,0.6C729.5,172.2,728.7,172.1,728.4,172z M684.5,131.9c0-0.3,0.8,1.3,0.8,1.1c0.5,1.1,0.7,1.6,0.5,1.5
				C685.7,134.4,685.2,133.6,684.5,131.9c0.1,0.6-0.3-0.3-0.5-0.9c-0.1-0.3-0.2-0.5-0.1-0.5C683.9,130.6,684.1,131,684.5,131.9z
				 M700.3,154.7c-0.7-0.4-0.9-0.8-0.8-0.8C699.5,153.9,699.8,154.1,700.3,154.7z M678.7,111.4C678.7,111.9,678.6,110.5,678.7,111.4
				z M681.8,125.7c-0.5-1.7-0.5-2.5-0.3-2.2c0.1,0.1,0.3,0.6,0.6,1.3c0.3,0.7,0.7,1.8,1.2,3.2c-0.6-1.1-0.8-1.5-0.9-1.6
				C682.2,126.2,682.2,126.2,681.8,125.7z M691.6,144.7c-0.1,0-1-1.3-1.6-2.2C690.1,142.5,691,143.9,691.6,144.7z M713.9,165.4
				C714.3,165.7,713.1,164.9,713.9,165.4z M727.1,171.7C727.6,171.9,726.3,171.3,727.1,171.7z M712.6,164.8
				C713.1,165.2,711.9,164.3,712.6,164.8z M718.5,168.1c-0.8-0.2-1.1-0.5-1-0.5C717.5,167.5,717.8,167.6,718.5,168.1z M714.8,166.5
				c-1-0.7-1.3-0.9-1.2-0.9s0.6,0.3,1,0.6c0.5,0.3,1,0.6,1.1,0.7C715.9,167,715.7,166.9,714.8,166.5z M679.8,120.7
				c-0.4-1.4-0.5-2.2-0.5-2.5s0-0.1,0.2,0.2c0.2,0.7,0.7,2.1,0.8,2.2c0.2,1.2,0.5,2.3,0.7,2.6c0.3,1.3,0.4,1.6,0.3,1.4
				c-0.1-0.2-0.3-1-0.6-1.8C680.1,121.1,679.6,119.2,679.8,120.7z M724.3,171.3c-1.3-0.5-2-0.8-2.2-1c-0.2-0.1-0.1-0.1,0.3,0
				c0.7,0.2,2.1,0.6,2.1,0.6C728,172.3,724.1,171,724.3,171.3z M678,111.5C678,112,678,110.6,678,111.5z M714.7,166.6
				c-0.2,0-0.8-0.4-1.3-0.7s-1-0.7-1-0.7C713,165.4,713.4,165.9,714.7,166.6z M721.8,170.4C722.3,170.7,721,170,721.8,170.4z
				 M689.3,143c-1.1-1.6-1.5-2.5-1.5-2.6c0.1,0,0.6,0.8,1.7,2.4L689.3,143z M725.5,172c-0.1,0.1-1.6-0.5-2.5-0.9
				C723,171,724.5,171.6,725.5,172z M694,149.6C692.7,148.1,693.3,148.9,694,149.6l0.8,0.8C694.8,150.5,694.7,150.3,694,149.6z
				 M706.6,161.8c0.8,0.5,1.1,0.4,1.7,0.7c0.3,0.1,0.7,0.4,1.4,0.8c0.7,0.4,1.6,1,2.9,1.8c-1.4-0.8-1.6-0.7-2.1-0.9
				c-0.2-0.1-0.5-0.2-1.1-0.5C708.7,163.3,707.9,162.7,706.6,161.8z M716.9,168.2c1.2,0.7,1.5,0.9,2,1.1l2.8,1.3
				c0.3,0.2-1.3-0.4-2.7-1.1C717.6,168.7,716.3,168,716.9,168.2z M720.4,170.2c-0.1,0.1-1.5-0.6-2.5-1.1
				C718,169,719.5,169.8,720.4,170.2z M691.3,146.6c0.4,0.4,1.1,1.3,2.6,3.1C694.2,150.3,692.5,148.3,691.3,146.6z M684.2,135
				C683.5,134.4,685.1,135.8,684.2,135z M706.4,162c-0.7-0.4-1-0.7-0.9-0.7C705.5,161.2,705.9,161.4,706.4,162z M719.1,169.8
				C719.6,170.1,718.3,169.4,719.1,169.8z M713.1,166.7c-1.1-0.7-2.4-1.6-3.4-2.3c-1.1-0.8-1.9-1.4-2-1.7c1.1,0.9,1.9,1.4,2.5,1.8
				c0.6,0.4,1.1,0.7,1.6,0.9s0.9,0.5,1.5,0.8s1.3,0.8,2.4,1.4c-1.1-0.5-2.2-1.2-2.8-1.4C712.3,166,712.2,166,713.1,166.7z
				 M716.7,168.6C717.1,168.9,715.9,168.2,716.7,168.6z M727.8,31.9c0-0.1,1.5-0.6,2.6-0.9C730.4,31.1,728.8,31.5,727.8,31.9z
				 M705.3,161.3C705.7,161.7,704.6,160.7,705.3,161.3z M713,166.8C713.5,167.2,712.3,166.3,713,166.8z M682.7,132.7
				c-0.1-0.1-0.4-0.6-0.7-1.4c-0.3-0.7-0.7-1.6-1-2.4c0.1,0.1,0.3,0.7,0.6,1.4C682,131,682.3,131.9,682.7,132.7z M676.2,100.7
				c0.1-1.1,0.2-0.9,0.2-0.1c0.1,0.9,0.1,2.4,0.2,4.2h0.1c0-1,0-1.4,0.1-1.4c0,0.1,0.1,0.5,0.1,1.2c0.1,1.3,0.2,3.4,0.2,4.2
				c-0.1,0-0.2-0.9-0.2-1.9c-0.1-1-0.1-2-0.2-2.1c0,1.2,0.1,2,0.1,2.1s-0.1-0.4-0.1-2.1c-0.1-0.1-0.2-0.1-0.3-0.7
				C676.2,103.6,676.1,102.6,676.2,100.7z M701.8,159c0.6,0.5,0.7,0.5,1,0.7s0.8,0.6,2.3,1.8c0,0.1-0.2,0-0.8-0.4
				C703.8,160.7,702.9,160,701.8,159z M689.8,146c-0.5-0.7-1-1.5-1.5-2.3l0.1-0.1c0.5,0.8,1,1.5,1.5,2.3L689.8,146z M711.6,166.5
				c-0.8-0.3-1-0.6-1-0.6C710.6,165.8,711,166,711.6,166.5z M704.8,161.8C705.3,162.2,704.2,161.2,704.8,161.8z M675.6,96.5
				c-0.1,0,0.1-1.7,0.2-2.8C675.9,93.8,675.7,95.4,675.6,96.5z M700.2,158.8c-1-0.8-1.5-1.4-1.7-1.7s-0.1-0.3,0.2-0.1
				c0.6,0.4,2.1,1.7,3.9,3.3c-0.3-0.1-0.9-0.6-1.4-1S700.2,158.6,700.2,158.8z M682.8,135.7c-0.7-1.4-1-2.2-1.1-2.6
				c-0.1-0.3,0-0.2,0.2,0c0.4,0.6,1.2,2,1.4,2.3c0.4,0.9,0.6,1.3,0.6,1.4c0,0.1-0.2-0.2-0.4-0.5C683,135.7,682.5,134.8,682.8,135.7z
				 M705.5,163.2c-0.2-0.1-0.7-0.5-1.2-0.9s-1-0.8-0.9-0.8C703.9,161.8,704.3,162.2,705.5,163.2z M707.7,164.9
				c-1-0.7-1.4-1.2-1.2-1.1c0.2,0,1,0.5,2.5,1.7C709.1,165.6,707.6,164.6,707.7,164.9z M690.7,148.7
				C691.1,149.2,690.2,147.9,690.7,148.7z M675.8,89.5C675.6,90,676,88.6,675.8,89.5z M700.7,160.4c-1.6-1.3-2.2-2.1-2.2-2.1
				c0.1-0.1,0.8,0.6,2.3,2L700.7,160.4z M680.1,132.3c-0.5-1.1-0.8-1.8-0.9-2.3c-0.1-0.4-0.1-0.5-0.1-0.5c0.1,0.1,0.5,0.9,0.7,1.3
				C680.5,132.6,680.1,132,680.1,132.3z M676.7,124.5c-0.4-1.6-0.5-2.4-0.4-2.3s0.5,1.2,1.2,3.6c0,0.3-0.2-0.3-0.4-0.8
				C676.8,124.3,676.6,123.9,676.7,124.5z M678,128.5C678.2,129.1,677.7,127.6,678,128.5z M686.1,145.1
				C686.4,145.6,685.7,144.3,686.1,145.1z M674.3,116.2c-0.2-1.4-0.5-2.8-0.6-4.3c0-0.6,0.1-0.1,0.3,0.5c0.1,0.6,0.2,1.2,0.3,0.9
				c0.1,1,0.1,1.6,0.1,1.9C674.4,115.6,674.3,115.8,674.3,116.2z M672.9,110.6c-0.1-1.2,0-1.9,0.1-1.8s0.3,1,0.5,3.2
				c-0.1,0.3-0.2-0.3-0.3-0.9C673,110.5,672.9,110,672.9,110.6z M682,140.9C682.3,141.4,681.6,140,682,140.9z M681.9,140.9
				C682.1,141.5,681.4,140.1,681.9,140.9z M680.8,139.9C681,140.5,680.4,139,680.8,139.9z M671.3,106.4c0.1-0.1,0.2,0.9,0.3,2.2
				c0.1,1.3,0.3,2.8,0.3,3.6C671.8,111.9,671.5,109.7,671.3,106.4z M670.7,99c0.1-1,0.2-1.5,0.2-1.7c0.1-0.1,0.2,0.1,0.2,0.6
				c0.1,1,0.2,3.1,0.3,5.5c0.1-1.6,0.1-1.3,0.2-0.8c0.1,0.6,0.2,1.4,0.3,0.8c0,0.8,0,1.9,0.1,2.7c0,0.8,0.1,1.5,0.2,1.6
				c0,1.1,0,1.5,0,1.6c-0.1,0-0.1-0.3-0.2-0.9c-0.2-1.1-0.4-2.9-0.5-3.6c0-0.5,0-1,0-1.4c-0.2,0.9-0.4-0.3-0.4-1.8
				C671,100.3,670.9,98.7,670.7,99z M682.2,127c0.4,1.1,0.7,1.8,1,2.4l1.1,2.5c-1-1.7-1.9-3.1-2.8-4.6c-0.8-1.4-1.6-2.8-2.3-4.2
				c-0.7-1.4-1.4-2.8-2.1-4.5c-0.7-1.6-1.3-3.4-1.9-5.6c0.1,1.2,0.3,2.5,0.3,2.8c-0.9-3.4-1.4-6.1-1.9-8.3c-0.4-2.2-0.8-3.9-1.1-5.5
				c-0.3-1.5-0.6-2.9-0.8-4.3s-0.4-2.9-0.5-4.8c-0.1-1.5,0.1-3.9,0.4-6.3c0.3-2.4,0.6-4.6,0.7-5.6c0,0-0.2,0.7-0.3,0.8
				c0,0.1-0.1,0,0-0.3s0.2-1,0.6-2c-0.4,0.9-0.6,1.1-0.6,0.7c0-0.3,0.1-1.2,0.3-2.4c-0.5,1.6-0.8,2.7-1,3.3
				c-0.2,0.6-0.2,0.8-0.3,0.8c0-0.1,0.1-1,0.1-1.2c-0.6,2.2-0.7,2.9-0.7,3.4s0,0.9-0.4,2.6c0.4-2.1,0.7-3.1,0.9-3.7
				c0.2-0.5,0.3-0.6,0.4-0.7l-0.8,2.9c-0.2,0.7-0.4,1.4-0.5,3l0.4,0.1c0.3-1.8,0.7-3.5,0.7-2.9c-0.4,1.8-0.7,3.5-0.7,2.9
				c-0.3,1.5-0.5,3-0.7,4.5c0.1,0.1,0.1,1,0.2,1.2c0.1,0.2,0.2-0.2,0.5-2.6c-0.1,0.8-0.2,2-0.2,3.3c-0.1,1.3-0.1,2.6,0,3.7
				c0,1.1,0.1,1.9,0.1,2c0.1,0.2,0.1-0.2,0.2-1.6c0-1-0.1-1.8-0.1-2.7c0-0.9,0-1.9,0.1-3.2c0.2-0.4,0.3,0.3,0.3,1.1
				c0,0.8,0,1.8,0,1.9c-0.1,1.5-0.2,1.7-0.3,2.9c0.1,0,0,1.8,0,2.9c0.2-0.1,0.3,0.4,0.4,1.5c0.1,1.1,0.2,3,0.5,5.8h-0.2
				c0.2,2.1,0.4,3.1,0.6,3.8c0.2,0.7,0.3,1.1,0.6,1.9c-0.3-2-0.3-3-0.4-3.6l-0.1-2.2c0.1,0.7,0.3,1.5,0.5,2.9
				c0.1-0.4,0.2-0.1,0.5,0.8c0.3,1,0.6,2.6,1.2,4.8c0,0.7-0.2,0.3-0.4-0.3c-0.2-0.6-0.5-1.3-0.6-1c-0.3-1.4-0.5-2.9-0.6-4.3
				c0.1,1.8,0.2,2.1,0.1,2.2c0,0.1-0.1,0-0.1,0.7c0.4,2.2,0.8,3.7,1.2,4.6c0.3,0.9,0.5,1.3,0.7,1.4c0.3,0.2,0.4-0.6,0.5-0.6
				c-0.2-1.1-0.6-2.8-0.5-2.8c0.2,1.1,0.6,2.8,0.5,2.8c0.3,1.4,0.5,1.8,0.7,2.4s0.4,1.2,1,3.1c0.3,0.6,0.9,1.8,1.6,3.3
				c0.7,1.6,1.6,3.5,2.6,5.8c0.6,0.9,0.1-0.1-0.5-1.4c-0.6-1.3-1.2-2.8-1-2.6c0.4,0.3,1,1.4,1.8,2.8c0.8,1.4,1.8,3.2,2.8,4.8
				c1,1.7,2.1,3.2,3,4.4c0.9,1.1,1.6,1.9,1.9,1.9c-0.9-1.1-1.3-1.8-1.4-2.1c-0.2-0.3-0.1-0.2,0.1,0c0.4,0.5,1.2,1.6,1.3,2.1
				c1.3,1.8,2.2,2.8,2.8,3.3s0.9,0.6,1,0.6c-1-1.3-1.9-2.6-1.5-2.3c0.8,1.1,1,1.3,1.7,2.1l-0.2,0.1c0.2,0.1,1.5,1.4,3.1,2.8
				c1.6,1.5,3.7,3.1,5.2,4.1s2.7,1.6,3.1,1.6c0.4,0,0.1-0.5-1.2-1.7l1.8,1.4c0.7,0.6,1.5,1.1,2.2,1.5c0.6,0.4,1,0.7,1,0.6
				c0-0.1-0.5-0.5-1.6-1.5c3.2,2.4,6.4,4,8.5,4.8c1,0.4,1.8,0.6,2.2,0.6s0.4-0.2-0.1-0.6c2,1.1,3.6,1.7,4.9,2.1
				c1.2,0.4,2.2,0.6,3,0.7c0.8,0.1,1.5,0.1,2.4,0.2c0.8,0.1,1.8,0.3,3.1,0.6c0.1,0,0.2,0,0.5,0c0.3,0.1,0.9,0.2,1.9,0.6
				c-0.3,0-1.3-0.3-2.4-0.6c0,0.3-0.6,0.3-1.6,0.2s-2.3-0.4-3.5-0.6c-1.2-0.3-2.3-0.5-2.9-0.6c-0.6-0.1-0.7,0.1,0.1,0.6
				c-2.6-1.2-4.5-2-5.4-2.3s-0.9,0,0.4,0.8c-0.9-0.5-1.4-0.8-1.8-1c-0.4-0.2-0.8-0.4-1.5-0.9c-0.8-0.1-2.2-0.6-3.8-1.3
				s-3.3-1.6-5-2.6s-3.3-2-4.5-2.7s-2.1-1.2-2.5-1.1c-1.3-1.2-2.2-2.1-2.9-2.8s-1.2-1-1.4-1.2c-0.6-0.4-0.5,0-0.2,0.7l-3.3-3.8
				c-0.9-1-1.6-1.8-2.2-2.4c-0.8-0.9-1.5-1.4-2.1-1.9s-1.2-0.9-1.8-1.4s-1.3-1.1-2.2-2.1c-0.8-1-1.8-2.2-3-4.1
				c0.7,1.5,1.1,2.3,1.2,2.6c-1.3-2.6-2-4.1-2-3.9c0.7,1.8,0.4,1.3,0.2,1c-0.1-0.2-0.2-0.3-0.1-0.1c0.1,0.2,0.3,0.7,0.8,1.9
				c-0.5-1-1.1-2.1-1.9-4l-0.2,0.1c0.7,1.6,0.3,0.9,0,0c-0.4-0.5-0.9-0.9-1.8-2.5c1.9,4.1,3.9,7.2,5.8,9.8c1.9,2.6,3.8,4.6,5.6,6.4
				c1.8,1.8,3.6,3.3,5.4,4.9c1.8,1.5,3.8,3.1,6,4.7c0.7,0.6,1.3,1.3,2,1.9c-0.7-0.3-1.6-0.9-2.6-1.6c-1-0.7-2-1.5-2.9-2.2
				c-1.8-1.5-3.2-2.6-2.9-1.7c1.1,0.9,1.6,1.7,2.9,3.2c-0.4-0.5,0.4,0.2,0.9,0.7c0.3,0.2,0.5,0.4,0.4,0.3c-0.1-0.1-0.4-0.4-1.1-1.2
				c-0.2-0.1-0.8-0.7-1-1.1c-0.2-0.3-0.1-0.3,1.1,1c0.9,0.9,0.7,0.5,0.8,0.4c0,0,0.2,0,0.5,0.3c0.4,0.3,1,0.9,2.1,1.9
				c0.2,0.3-0.3-0.1-0.8-0.4c-0.5-0.4-0.9-0.7-0.6-0.2c1.7,1.7,2.3,2.1,2.7,2.3s0.7,0.3,1.7,1.2c-0.9-0.8-1.4-1.2-1.7-1.5
				s-0.3-0.4-0.3-0.5c-0.6-0.6-1.2-1.1-1-1c0.6,0.6,1.2,1.1,1,1c1,0.9,2.1,1.9,3.2,2.7c-0.2-0.3,0.7,0.3,1.4,0.8s1.1,0.8,0-0.3
				c1.3,1.1,2.2,1.8,2.3,1.6c-0.1-0.1-0.7-0.6-1.2-1s-1-0.8-1-0.8c-0.7-0.5-1.3-1-1-0.9c-0.4-0.3-0.7-0.6-1.1-0.9
				c-2.2-1.7,0.2,0.3,0.9,1.1c-0.8-0.7-1.8-1.5-2.6-2.2s-1.4-1.3-1.6-1.5c1.1,1,1.2,0.9,1.4,1s0.4,0.3,1.8,1.6
				c0-0.2,0.9,0.5,2.3,1.6c0,0.1-0.6-0.3-1.2-0.7c0.7,0.5,1.3,1,1,0.9c0.7,0.5,1.2,0.8,1.6,1.2c0.5,0.3,0.9,0.7,1.7,1.3
				c-0.4-0.5-0.5-0.6-0.1-0.4c0.4,0.2,1.2,0.8,2.7,1.6c0.9,0.6,1.2,0.9,1,1c0.7,0.4,2.2,1.2,3.5,1.9s2.5,1.2,2.7,1.2
				c-1-0.5-1.5-0.8-1.9-1c-0.3-0.2-0.5-0.2-0.6-0.2s-0.3-0.1-0.6-0.2c-0.3-0.2-0.9-0.5-1.8-1.1c1,0.5,1.4,0.6,1.3,0.4
				c-0.8-0.4-1.3-0.7-1.8-1s-1-0.5-1.8-1.1c0-0.2,0.7,0.1-1-1c0.1,0.2-1.7-1.1,0,0c1.2,0.5,2.6,1.7,4.7,2.8l0.2-0.3
				c-0.4-0.2-0.8-0.5-1.2-0.7c0,0-1-0.5-1.2-0.7c-1.4-0.9-0.7-0.5,0,0c0.4,0.2,0.8,0.5,1.2,0.7c0,0,1,0.5,1.2,0.7
				c1.2,0.7,1.4,0.6,1.7,0.7c0.2,0.1,0.4,0.2,0.9,0.4s1.2,0.6,2.3,1.2c-0.4-0.2-0.9-0.4-1.1-0.4c-0.2,0,0,0.1,1,0.6
				c0.7,0.2,1.5,0.6,2.3,1c0.9,0.4,1.8,0.9,2.7,1.1l0.1-0.4c-1.5-0.6-0.7-0.4,0,0c1,0.4,1.3,0.4,2.6,0.9c0.5-0.1,1.6,0,3.3,0.3
				s4.1,0.8,7.4,1.4c-1.9-0.4-3.7-0.8-3.9-1c-0.7-0.2-1.4-0.5,0-0.1c1.6,0.2,2.7,0.3,3.7,0.4c0.9,0,1.7,0,2.5,0s1.6,0,2.7,0l4.4,0.1
				c-1-0.2-1.1-0.4-0.7-0.5c0.4-0.1,1.2-0.2,2.2-0.2c1-0.1,2.1-0.1,3.1-0.2c0.9-0.1,1.7-0.2,1.9-0.3c0.3-0.1,1.3-0.1,2-0.1
				c0.7-0.1,1.2-0.1,0.5-0.2c-1.1,0.1-2.3,0.1-2.5,0.1c1.8-0.2,2.7-0.4,3.6-0.6c0.8-0.2,1.5-0.4,2.7-0.6c-1,0.1-2.5,0.2-2.5,0.1
				c1,0,2.5-0.2,2.5-0.1c0.9-0.1,1.3-0.2,1.3-0.2s-0.3-0.1-0.7-0.1c-0.9,0-2.4,0-3.1,0c2-0.2,3-0.3,3.9-0.5c0.9-0.1,1.7-0.3,3.5-0.6
				c-0.5-0.1,0.8-0.3,1.2-0.5c-1,0.2-1.6,0.3-1.9,0.3c-0.3,0-0.4,0-0.5,0c0-0.1,1.5-0.3,2.4-0.5c0-0.1,0.8-0.3,1.6-0.4
				c0.8-0.2,1.7-0.4,1.9-0.6c-1.9,0.3-2.3,0.2-2,0.1c0.3-0.2,1.2-0.5,1.8-0.9c1-0.2,0.7,0,2.4-0.4c-0.8,0.1,0.6-0.3,1.6-0.6
				c0.5-0.2,0.9-0.3,0.9-0.3s-0.3,0.1-1.4,0.4c-0.1,0.1-0.7,0.3-1.2,0.4c-0.5,0.1-1.1,0.3-1.1,0.2c0.4-0.1,1-0.3,1.6-0.5
				c0.5-0.2,0.9-0.3,0.7-0.3c-0.7,0.2-1.4,0.4-1.2,0.3c-1.1,0.3-0.9,0.1-1.2,0.2c1.2-0.3,2.1-0.6,3-0.9c0.9-0.3,1.7-0.6,2.7-1
				c0.1-0.4,0.6-0.6-0.3-0.7c1.8-0.6,2.8-1.2,3.6-1.6c0.7-0.5,1.1-0.8,1.4-1.2c0.3-0.4,0.6-0.8,1.1-1.2c0.5-0.5,1.3-1.1,2.7-2
				c-1.4,0.7-2,0.9-2.1,1c-0.1,0,0.2-0.2,0.6-0.5c0.9-0.6,2.5-1.5,2.3-1.5c-0.1-0.1-0.9,0.4-1.7,0.9s-1.5,0.9-1.4,0.7
				c1.1-0.7,1.7-1.1,2.2-1.4c0.5-0.3,0.8-0.6,1.5-1.2c-0.1,0-0.9,0.4-1.6,0.8c-0.7,0.4-1.4,0.7-1.4,0.7c0.9-0.5,1.3-0.8,1.4-0.9
				c0.1-0.1-0.1,0-0.3,0s-0.3,0-0.2-0.1c0.2-0.2,0.6-0.5,1.6-1.3c-1.2,0.7-0.6,0.2,0,0c1.1-0.8,1.8-1.3,2.1-1.6s0.3-0.4,0.1-0.5
				c-0.4,0-1.4,0.3-1.9,0.4c1.4-1.2,2.1-1.9,2.4-2.4c0.3-0.4,0.1-0.6-0.1-0.7c-0.2-0.1-0.6-0.1-0.7-0.3c-0.1-0.2-0.1-0.6,0.4-1.3
				c1-0.8,1.7-1.4,2.2-1.8c0.5-0.5,0.8-0.8,0.9-1c0.3-0.4-0.1-0.3-0.6-0.1c-0.6,0.2-1.3,0.6-1.9,0.9c-0.6,0.2-1,0.4-0.7,0.1
				c-1.4,1.1-2.2,1.6-3,2.1s-1.5,0.9-3,1.7c-1.1,0.7-2.6,1.6-4.2,2.5c-1.6,0.8-3.3,1.6-4.8,2c-1,0.4-1.6,0.6-2.2,0.7
				c-0.6,0.1-1,0.3-1.7,0.4c0.1,0.2-2.5,1-5.4,1.6c-1.4,0.3-2.9,0.5-4.1,0.5c-1.2,0.1-2.2,0.1-2.5,0c-0.7,0.2-2,0.3-3.3,0.3
				c-1.2,0.1-2.4,0.1-2.9,0.2c0.7-0.2,1.6-0.4,2.4-0.6c0.9-0.2,1.7-0.5,2.4-0.8c0.6-0.3,1-0.5,0.9-0.8c-0.1-0.2-0.6-0.4-1.7-0.6
				c0.5-0.5,1.4-1,2.4-1.5s2.1-0.9,3-1.4s1.7-1,2-1.4c0.3-0.5,0.2-0.9-0.5-1.4c-1.3,0.2-1.8,0.3-2,0.2c-0.1,0,0.1-0.1,0.4-0.2
				c0.3-0.1,0.7-0.2,0.7-0.3c0.1-0.1-0.1-0.1-1,0c-0.8,0.4-1.7,0.1-2.6,0.2c-1.7,0.2-2.5,0.3-3.5,0.4c-0.5,0-1.1,0.1-2,0.1
				c-0.8,0-1.9,0-3.4-0.2c0.1,0.1-0.9,0.1-2.7-0.2c0-0.1,0.7-0.1,1.8,0c-1.7-0.4-2.7-0.4-4-0.5c-0.6,0-1.4-0.1-2.3-0.2
				c-0.9-0.1-2-0.4-3.4-0.8c-0.4-0.3-0.1-0.2,0.4-0.1c0.5,0.1,1.2,0.3,1.4,0.3c-1.8-0.5-3-0.8-4-1.1s-1.8-0.5-2.8-1.2
				c0.1,0.2-1.1-0.2-2.4-0.9c-1.3-0.6-2.8-1.5-3.2-1.8c0.3,0.1,1,0.4,1.6,0.7c0.7,0.3,1.4,0.6,1.7,0.7c-0.2-0.2-1.3-0.8-2.4-1.4
				c-1-0.6-2-1.2-2.1-1.4c0-0.1,0-0.3,0.9,0.3c1.1,0.7,0.1,0.4,1.4,1.1c0.2-0.1,0.3-0.2-0.5-0.8c-3.1-1.8-5.7-3.6-7.9-5.5
				s-4.2-4-5.8-6.5c-0.5-0.3-1.2-1.2-2-2.2c-0.8-1.1-1.5-2.3-2.3-3.4c0.3,0.3,0.5,0.5,0.5,0.3s-0.3-0.8-0.9-2.1
				c-0.8-0.9-2-3.1-3.2-6.2l0.3-0.1c-0.4-1.3-0.6-2.2-0.8-2.9c-0.2-0.7-0.3-1.1-0.5-1.5c-0.1-0.4-0.3-0.7-0.4-1.2
				c-0.1-0.5-0.3-1-0.4-1.9c0.1-0.4,0.3,0.3,0.5,0.9c0.2,0.5,0.3,0.9,0.2-0.1c-0.2-1.1-0.2-1.5-0.3-1.6c0-0.1-0.1,0.1-0.1,0.3
				c0,0.2,0,0.4,0,0.3s-0.1-0.5-0.2-1.5c-0.1-1.3,0.1,0.3,0.2,0c-0.1-0.9-0.2-1.4-0.2-1.7c-0.1-0.3-0.1-0.5-0.2-0.7
				c-0.1-0.2-0.1-0.4-0.2-0.8c-0.1-0.4-0.1-1-0.1-2c0-1.2,0.1-1.5,0.2-1.6c0.1,0,0.2,0.3,0.3,0.6c0.1,0.3,0.2,0.6,0.3,0.4
				c0.1-0.1,0.1-0.7,0.2-2.1c0,0.9,0.1,1,0.1,1c0.1,0,0.2,0,0.2,0.7c0.1-0.8,0.2-1,0.3-1s0.2,0.3,0.3,0.6c0.2,0.6,0.5,1.3,0.7,0.5
				c0,0.8,0,1.7,0,2.5c0.2-0.4,0.3,0,0.3,0.5c0.1,0.6,0.1,1.4,0,1.9c0.1,0,0.2,1,0.3,1.6c-0.2-0.1-0.3,0.5-0.1,1.7
				c0.3,0.6,0.3,0,0.3-0.6s0.1-1.2,0.4-0.3c0.2,1.3,0.3,1.9,0.2,2.2c0,0.3-0.2,0.3-0.3,0.3s-0.3,0-0.3,0.3s0,1,0.4,2.3
				c0.2-0.7,0.4-0.8,0.5-1.3c0.1-0.3,0.1-0.6,0.1-1.2s-0.1-1.4-0.2-2.6c-0.3-1.4-0.6-2.5-0.8-3.9c-0.1-0.7-0.2-1.5-0.2-2.4
				s0-2,0.1-3.4c-0.2,0.9-0.3,0.4-0.3-0.6s0.2-2.5,0.4-3.4c-0.1,0.1,0.1-1.2,0,0c0,0.1,0.2-0.4,0.3-1.1c0.1-0.6,0.3-1.3,0.2-1.3
				c-0.2,1-0.2,0.5,0,0c0.3-1.3,0.5-2.3,0.7-3.3c0.2-0.9,0.4-1.7,0.6-2.5c0.2-0.8,0.4-1.6,0.7-2.4s0.6-1.7,1.1-2.8
				c-0.1,0,0.5-1.1,0,0c-0.5,1.6,0.4,0.1,0.9-0.5c-0.4,0.8-0.6,1.2-0.7,1.4c-0.1,0.2,0,0.1,0.1,0c0.2-0.3,0.6-0.9,0.5-0.4
				c0.5-1,0.7-1.6,0.9-2.1s0.4-1,0.8-1.5c-0.1,0.6-0.7,2-1,3.2s-0.5,2.1-0.1,1.7c0-0.3,0.5-1.3,0.7-1.4c0,0.3-0.2,1.2-0.3,1.8
				c-0.1,0.6,0,0.9,0.6,0.1c0-0.3-0.1-0.4-0.1-0.7c0-0.3,0.1-0.7,0.6-1.7l0.3,0.1c0.6-1,0.6-0.8,0.4-0.5c-0.2,0.4-0.4,0.9-0.4,0.5
				c-0.6,1.3-0.1,1.1,0.3,0.9c0.2-0.1,0.4-0.2,0.4-0.1s-0.1,0.4-0.4,1.1c0.1,0.3,0.3,0,1-1.2c0-0.3,0.3-0.9,0.6-1.6
				c0.4-0.6,0.8-1.3,1-1.9c1-1.4,2-2.7,3-3.8c1-1.1,2.1-2.2,3-3.2c0.2-0.6-0.8,0.3-0.9,0.2c1.3-1.4,2.4-2.3,3.4-3.1
				c1-0.8,1.8-1.4,2.5-2.1c1-0.6,2.3-1.4,3.8-2.3c1.4-0.8,3-1.7,4.5-2.2c-1.4,1.1,1.2-0.2,3.1-0.7c-0.6,0.3-0.8,0.4-0.5,0.5
				c0.3,0,1-0.1,2.1-0.5c-0.4,0-0.6-0.1-0.5-0.2c0.2-0.1,0.7-0.4,1.9-0.7c-1.1,0.3-2.1,0.6-2.3,0.5c0.5-0.6,1.5-1.2,2.6-1.9
				c1.2-0.6,2.6-1.2,4.1-1.8c1.5-0.5,3.2-1,4.8-1.4s3.1-0.7,4.4-1c2.8,0.2,5.3,0.8,7.4,1.4c2.1,0.6,3.8,1.2,5.1,1.4
				c0.5,0.2,0.9,0.4,1.4,0.7c0.6,0.3,1.3,0.6,2.4,1.1c0.2,0,1.2,0.3,2.3,0.9c1.1,0.5,2.3,1.3,3,1.7c0.2-0.1,1.6,0.6,2.8,1.3
				c1.2,0.7,2,1.2,1.2,0.4c1,0.7,1.8,1.3,2.4,1.7c0.6,0.4,1,0.6,1.3,0.8c0.6,0.3,0.8,0.1,1,0c1.2,0.8,2.2,1.2,3,1.5
				c0.8,0.2,1.4,0.3,1.9,0.2c1.1-0.1,1.9-0.7,3.1-0.5c0.7,0.1,1.6,0.5,2.2,0.7c2,0.5,4,1.1,6.2,2.1s4.5,2.3,7,4.5
				c1.2,1.1,2.5,2.4,3.8,3.9c1.3,1.6,2.6,3.4,3.8,5.5c1.2,2.2,2.4,4.7,3.4,7.6s1.8,6.2,2.3,9.9c-0.1-1.8-0.1-2.8-0.1-3.3
				s0.1-0.5,0.1-0.3c0.2,0.3,0.4,1.2,0.3-0.2c-0.1-0.5-0.1-1.1-0.2-2.5c-0.2-0.5-0.4-1.1-0.6-1.8c-0.2-0.7-0.4-1.7-0.7-3.1
				c0.1-0.2,0.3,0.4,0.4,0.8c0.2,0.4,0.3,0.8,0.4,0.3c-0.2-1.2-0.5-3-1-5.1s-1.1-4.4-1.8-6.5s-1.5-3.9-2-5.1
				c-0.6-1.2-0.9-1.7-0.8-1.2c0.3,0.5,0.6,1,1,1.8s0.9,2,1.5,3.9c-0.9-1.8-1.7-3.2-2.6-4.8c-1-1.6-2.1-3.4-3.7-6
				c0.3,0.6,0.6,1.2-0.1,0h0.1c-0.6-1.1-1-1.6-1-1.8c-0.1-0.2,0.1,0,0.3,0.3c0.5,0.6,1.2,1.7,1.1,1.3c-0.9-1.5-1.6-2.3-2.3-3.1
				c-0.7-0.8-1.3-1.5-2.1-2.8c1,0.9,2.2,2,3.6,3.9c0.7,0.9,1.5,2,2.4,3.4s1.8,3,2.7,4.9c-0.8-2.3-1.7-3.9-2.5-5.3s-1.5-2.4-2.2-3.3
				s-1.4-1.8-2.2-2.7s-1.6-1.9-2.7-3.2l0.2-0.1c-0.3-0.3-0.5-0.7-0.8-1c-0.1,0.2-1-0.6-2.8-2.5c0.2,0.1,0.7,0.5,0.8,0.6
				s-0.1-0.3-1.5-1.6c-0.2-0.2-0.1,0.1-1-0.8c0.2,0.2,0.1-0.1,1,0.8c1.2,1.1,2,1.8,2.6,2.4c0.6,0.5,1.1,0.9,1.5,1.3
				c0.5,0.4,1,0.9,1.7,1.6c0.7,0.8,1.6,1.9,2.9,3.7c-0.7-1.5,0.6,0,1.8,1.4c0.6,0.7,1.2,1.4,1.5,1.7c0.3,0.3,0.4,0.2,0.1-0.7
				c-0.5-0.4-1.8-2.4-3.2-4.4c-1.4-2-3-4.1-3.7-5c0.5,1.1-0.1,0.5-1-0.4c-0.9-1-2.2-2.3-3-2.8c-0.6-0.7-1.5-1.8-2.6-2.8
				c-0.3-0.1-0.8-0.4-1.3-0.7s-0.9-0.6-1-0.5c-0.9-0.9-1.3-1.3-1.3-1.5c0-0.1,0.2,0,0.4,0c0.2,0.1,0.5,0.2,0.3,0
				c-0.1-0.2-0.6-0.7-1.7-1.7c0.4,0.6-0.6-0.2-2-1.2c-0.7-0.5-1.5-1.1-2.4-1.6c-0.8-0.5-1.6-1-2.2-1.2c-0.7-0.6,0.1-0.2,0.8,0.1
				c0.6,0.3,1,0.5-0.4-0.6c-1.1-0.5-1.8-0.9-2.2-1.3c-0.5-0.4-0.7-0.7-1-0.9c-0.7-0.3-1.6-0.8-2.1-0.9c-0.5-0.1-0.4-0.1,0.8,0.7
				c-1.9-1.1-3.9-1.9-5.5-2.5c-1.7-0.6-3-1.1-3.9-1.5c0.8,0.2,1.2,0.2,1.2,0.1c0-0.1-0.3-0.4-1-0.7c-0.6-0.1-1.1-0.4-2.4-0.8
				c0.8,0.5-1.3-0.2-3.7-0.8c-1.2-0.3-2.4-0.6-3.4-0.8c-1-0.2-1.6-0.3-1.7-0.4c-1.5-0.4-1-0.3-0.3-0.2c0.8,0.1,1.9,0.3,1.6,0.1
				c-2.3-0.5-3.5-0.7-4.1-0.9s-0.7-0.3-0.8-0.4s-0.2-0.2-0.9-0.4c-0.7-0.2-1.9-0.4-4.3-0.6c0.2,0.2-0.7,0.2-2.6,0.2
				c0.1-0.1,0.2-0.2-1.3-0.3c-0.3,0.1-1.4,0.3-2.8,0.4c-1.4,0.2-3,0.4-4.4,0.6c-1.4,0.2-2.7,0.5-3.3,0.7s-0.6,0.3,0.4,0.3
				c0.5-0.2,1.8-0.5,3.2-0.7c1.4-0.2,3.1-0.4,4.4-0.5c2.2,0,3.3,0.1,3.8,0.2c-1.5,0.1-3,0.1-4.5,0.2c-1.5,0.1-3,0.2-4.3,0.5
				c0.8,0.1,0.7,0.2-0.1,0.5c-0.7,0.2-2,0.5-3.5,0.9c-1.5,0.4-3.2,0.9-4.7,1.4s-2.9,1-3.7,1.4c1.4-0.4,1.8-0.4,1.6-0.3
				c-0.2,0.1-0.8,0.3-1.6,0.5c-1.5,0.5-3.1,1.1-1.1,0.6c1.4-0.4,3.4-0.9,3.6-0.8c-1.7,0.5-2.9,0.8-3.6,0.8c-0.4,0.1-0.8,0.2-1.2,0.3
				c-1,0.4-1.3,0.6-1.9,0.9c-0.6,0.3-1.5,0.7-3.7,1.5c1.1-0.2,1.4-0.2,1.2,0.1s-1,0.7-2.1,1.3s-2.5,1.3-3.9,2
				c-1.5,0.7-3,1.5-4.5,2.1c-1.1,0.8-2.1,1.6-2.3,1.9c-0.3,0.3,0.1,0.2,1.6-0.8c-1.8,1.2-2.6,1.9-3.1,2.4c-0.5,0.4-0.5,0.6-0.6,0.8
				s-0.1,0.3-0.6,0.7c-0.4,0.4-1.3,1.2-2.8,2.5c-0.2,0.2,0.1,0.1-0.8,0.9c0.2-0.2-0.1-0.1,0.8-0.9c1.9-2.8,4.6-6,8-9
				c3.3-3,7.3-6,11.6-8.5s8.9-4.6,13.3-6.1c4.4-1.6,8.5-2.7,11.8-3.6c-0.6,0.1-1.2,0-2.8,0c-0.5,0.2-1.6,0.3-2.7,0.5
				c-1.1,0-1.4,0-2.7,0.1c-1.5,0.1-2.4,0.3-3.1,0.5c-0.7,0.2-1.1,0.3-1.6,0.4c-0.4,0.1-0.9,0.3-1.6,0.5c-0.7,0.2-1.6,0.4-3.1,0.7
				c-0.9,0-3.1,0.3-5.1,0.8c-2,0.4-3.9,1-4.3,1c-1.1,0.5-1.6,0.8-2.3,1.2c-0.7,0.4-1.7,0.9-3.8,1.9c-3,1.1-7,2.9-11,5.5
				c1.6-1,0.9-0.8,1-1c-1.6,1-2.2,1.4-2.7,1.7s-0.9,0.5-2,1.3c0.1,0,0,0.2-0.6,0.6c-0.5,0.4-1.4,1.1-2.6,2.1
				c-0.2,0.1-0.7,0.5-1.2,0.9s-1,0.8-1,0.8c0-0.3,0.4-1,1.1-1.8c0.7-0.8,1.6-1.8,2.4-2.6c0.8-0.8,1.5-1.5,1.7-1.9s-0.1-0.4-1.1,0.1
				c-1.6,1.6-4.8,4.3-8.3,8.1c-1.8,1.9-3.7,4-5.5,6.4c-1.9,2.4-3.7,5-5.4,7.8c-1.1,1.5-2,2.7-3,4.3s-2.1,3.5-3.5,6.7
				c0.2-0.1,0.3-0.1-0.3,1.4c-0.8,2.1-1.4,3.4-2,5c-0.5,1.5-1.1,3.2-1.7,5.8c-0.5,3.2-0.6,6.1-0.6,8.9c0,2.7,0.2,5.3,0.5,8
				c0.3,2.6,0.7,5.3,1.3,8.1c0.6,2.9,1.4,5.9,2.5,9.4c-0.5-1-0.8-1.8-1-2.5c-0.3-0.7-0.5-1.5-0.9-2.7c0.2,1.3,0.4,2.1,0.6,3.1
				l0.9,3.6c-0.2-1.9,0.5,1,0.1-1.4c0.5,2.1,0.8,3.1,1,3.8c0.2,0.6,0.4,0.9,0.6,1.4l-0.6-2.2c-0.2-0.8-0.4-1.5-0.4-1.7
				c0.3,1.2,0.7,2.8,1.1,4c0.4,1.2,0.7,1.9,0.5,1.2c-0.3-1-0.8-2.5-0.7-2.6c0.3,1,0.8,2.5,0.7,2.6c0.6,1.7,0.9,2.2,0.9,2.1
				C682.4,128,682.3,127.4,682.2,127z"/>
		</g>
		<g transform="matrix(3.125,0,0,3.125,-1662.68,1085.13)">
			<path class="st0" d="M673,75.1c0,0.2-0.3,0.9-0.5,1.6s-0.4,1.3-0.3,1.3c-0.4,1.4-0.4,1.1-0.6,1.4c0.2-1,0.4-1.5,0.6-2.1
				C672.4,76.8,672.6,76.1,673,75.1z"/>
		</g>
		<g transform="matrix(3.125,0,0,3.125,-1662.68,1085.13)">
			<path class="st0" d="M768.1,184.6c0.3,0-1.4,0.4-2.9,0.6c-1.5,0.2-2.8,0.3-1.6,0.1c1-0.1,2-0.3,3-0.4
				C766.3,184.9,767.2,184.8,768.1,184.6z"/>
		</g>
		<g transform="matrix(3.125,0,0,3.125,-1662.68,1085.13)">
			<path class="st0" d="M672.1,127.4C672.2,128,671.8,126.4,672.1,127.4z"/>
		</g>
		<g transform="matrix(3.125,0,0,3.125,-1662.68,1085.13)">
			<path class="st0" d="M669.5,117.1C669.6,117.7,669.4,116.1,669.5,117.1z"/>
		</g>
		<g transform="matrix(3.125,0,0,3.125,-1662.68,1085.13)">
			<path class="st0" d="M759.2,185.7C759,185.7,761.3,185.5,759.2,185.7z"/>
		</g>
		<g transform="matrix(3.125,0,0,3.125,-1662.68,1085.13)">
			<path class="st0" d="M669.6,117.1c-0.2-1.2,0-1.5,0.2-0.7c0.3,0.7,0.7,2.4,1.3,5.1c-0.3-1-0.6-1.6-0.8-2.2
				C670.1,118.6,669.9,118,669.6,117.1z"/>
		</g>
		<g transform="matrix(3.125,0,0,3.125,-1662.68,1085.13)">
			<path class="st0" d="M759.1,185.6c0.8-0.1,0.9-0.2,1.3-0.3c0.4-0.1,1.1-0.2,3.1-0.4c-0.8,0.1-0.9,0.2-1.3,0.3
				C761.9,185.3,761.2,185.5,759.1,185.6z"/>
		</g>
		<g transform="matrix(3.125,0,0,3.125,-1659.77,1074.63)">
			<path class="st0" d="M815.5,117.9c-0.2,1.4-0.4,1.8-0.4,1.7C815,119.4,815.2,118.7,815.5,117.9z M815.9,122.9
				c-0.2,0.8-0.5,1.5-0.7,2.3l-0.1-0.1C815.4,124.4,815.6,123.6,815.9,122.9L815.9,122.9z M816,124.1c0.1,0.1-0.4,1.4-0.7,2.3
				C815.2,126.4,815.7,125,816,124.1z M811.7,135.3c0.1,0.1-0.7,1.3-1.1,2.1C810.5,137.3,811.2,136.1,811.7,135.3z M815.8,126.6
				c-0.3,0.8-0.6,1.5-0.9,2.2l-0.1-0.1C815.1,128,815.4,127.2,815.8,126.6L815.8,126.6z M815.9,126.7c0.1,0.1-0.5,1.4-0.8,2.3
				C815,128.9,815.6,127.5,815.9,126.7z M808.4,141.7C808.7,141.3,807.9,142.4,808.4,141.7z M808.8,142c-0.6,0.9-1.1,1.4-1.3,1.7
				c-0.3,0.3-0.4,0.3-0.3,0.1c1.1-1.5,1.4-1.9,1.5-2C808.8,141.8,808.7,142.1,808.8,142z M807.9,144.4
				C808.3,144,807.4,145,807.9,144.4z M806.2,147.8c0,0.1-0.9,1.2-1.6,1.9C804.6,149.7,805.6,148.6,806.2,147.8z M808.8,145.1
				c-0.8,1.1-1.2,1.5-1.3,1.6s0-0.2,0.3-0.5C808.2,145.5,809,144.4,808.8,145.1z M800.6,156.4c-1.1,1-1.8,1.5-2.2,1.8
				s-0.6,0.4-0.7,0.4c-0.2,0-0.1-0.2-1.4,0.7c0.2-0.3,0.9-0.9,1.5-1.3c0.6-0.4,1-0.7,0.5-0.2c1.1-0.9,1.7-1.5,1.9-1.7
				c1.4-1.2,1.3-1.1,0.9-0.6C800.9,155.9,800.3,156.6,800.6,156.4z M804.3,152.9c0,0.1-1.1,1.2-1.8,1.9
				C802.6,154.7,803.7,153.7,804.3,152.9z M803.1,155.3c-1.3,1.3-2.1,1.9-2.2,1.8c-0.1-0.1,0.6-0.7,2-2L803.1,155.3z M810.2,149.4
				c-1.1,1.4-2.3,2.7-3.5,4l-0.1-0.1c1.2-1.3,2.4-2.6,3.5-4L810.2,149.4z M808.1,152.9c-0.6,0.8-1.2,1.4-1.4,1.4
				C806.6,154.4,806.9,154,808.1,152.9z M794.3,165.3c-1.6,1.1-2.4,1.4-2.2,1.2s1.2-0.9,3.1-2.2C795.8,164.1,794.6,165,794.3,165.3z
				 M813.5,146.9c0,0.1-0.9,1.4-1.6,2.2C811.9,149,812.9,147.8,813.5,146.9z M794.4,165.4C794.8,165.2,793.6,165.9,794.4,165.4z
				 M802.8,158.9C803.3,158.6,802.1,159.5,802.8,158.9z M790.1,168.8c-1.2,0.7-1.9,1-2.2,1.2c-0.3,0.1-0.3,0.1-0.1,0
				c0.4-0.3,1.2-0.8,0.9-0.7C790.4,168.4,789.9,168.9,790.1,168.8z M793.6,166.7c-0.6,0.5-1,0.7-1,0.6
				C792.5,167.3,792.8,167,793.6,166.7z M768.8,177.1c-0.9,0.3-1.8,0.4-2,0.4C766.6,177.4,767.1,177.3,768.8,177.1z M785.4,171.5
				C785.9,171.3,784.6,171.8,785.4,171.5z M809.3,153.9c-0.4,0.7-0.7,0.9-0.8,0.9C808.4,154.7,808.6,154.4,809.3,153.9z
				 M791.5,168.5c-1,0.6-1.3,0.8-1.2,0.8c0,0,0.4-0.3,0.8-0.5C791.9,168.2,792.8,167.5,791.5,168.5z M809.4,154.1
				C809.8,153.7,808.8,154.7,809.4,154.1z M784.5,172.9c-1.9,0.9-2.6,1-2.4,0.8c0.3-0.2,1.5-0.8,3.4-1.7c0.6-0.1,0.1,0.1-0.3,0.4
				C784.8,172.6,784.3,172.9,784.5,172.9z M789.4,170.4c0,0.1-1.4,0.8-2.4,1.3C787,171.6,788.5,170.9,789.4,170.4z M808.9,155.5
				c-1.5,1.5-1.7,1.6-1.6,1.5c0-0.1,0.3-0.4-0.5,0.2c0.8-0.8,1.3-1.3,1.6-1.6s0.4-0.4,0.5-0.4C808.9,155.2,808.7,155.7,808.9,155.5z
				 M799,165C799.5,164.7,798.2,165.5,799,165z M781,175c-0.7,0.4-1.1,0.5-1.1,0.4C779.8,175.4,780.2,175.2,781,175z M807.5,157.9
				C808,157.6,806.8,158.5,807.5,157.9z M777.2,176.7c-1.1,0.4-1.9,0.6-2.3,0.7c-0.4,0.1-0.5,0.1-0.5,0c0.1-0.1,0.9-0.4,1.4-0.6
				C777.6,176.3,776.9,176.7,777.2,176.7z M804.5,160.8c-0.8,0.7-1.2,0.9-1.2,1c-0.1,0,0.1-0.2,0.4-0.4
				C804.1,160.8,804.9,160.1,804.5,160.8c0.8-0.7,1.1-1,1.2-1c0.1,0-0.1,0.2-0.3,0.4C804.9,160.7,804.1,161.3,804.5,160.8z
				 M786.2,173.2C786.8,173,785.4,173.5,786.2,173.2z M797.1,167C796.9,167,798.7,165.8,797.1,167C797.2,167,795.4,168.2,797.1,167z
				 M782.5,175C783,174.8,781.6,175.3,782.5,175z M801.6,163.8c-0.7,0.6-1.5,1.1-2.2,1.7l-0.1-0.1c0.7-0.6,1.5-1.1,2.2-1.7
				L801.6,163.8z M802.7,163c0,0.1-1.3,1.1-2.1,1.8C800.6,164.7,801.9,163.7,802.7,163z M782.7,175.6c-1.2,0.5-1.9,0.8-2.3,0.9
				c-0.4,0.1-0.6,0.1-0.5,0.1c0.1-0.1,0.9-0.6,1.4-0.8c1.4-0.6,1.6-0.6,1.5-0.4C782.7,175.5,782.4,175.7,782.7,175.6z M789.1,172.6
				c-0.8,0.6-1.7,0.9-1.9,0.9C787,173.6,787.4,173.3,789.1,172.6z M792.8,170.7c-0.9,0.5-1.3,0.7-1.4,0.7c-0.1,0,0.1-0.1,0.4-0.3
				c0.6-0.4,1.4-1,0.8-0.7c1.5-0.9,1.6-0.9,1.3-0.6C793.7,170.1,793,170.6,792.8,170.7z M801.1,165.4c-0.7,0.6-1.5,1.1-2.3,1.7
				l-0.1-0.1c0.8-0.5,1.5-1.1,2.2-1.7L801.1,165.4z M804.3,162.7C804.8,162.3,803.6,163.2,804.3,162.7z M779,177.7
				C779.6,177.6,778.1,178,779,177.7z M789.4,173.3c-0.8,0.4-2,1-3.2,1.5s-2.4,1-3.3,1.3c0.7-0.4,2.5-1.2,4.1-1.9
				C788.5,173.5,789.8,172.9,789.4,173.3z M793.1,171.2c-0.6,0.5-1,0.7-1.1,0.6C792,171.7,792.3,171.5,793.1,171.2z M804.6,163
				c-0.9,0.8-1.6,1.3-2,1.5s-0.5,0.2-0.4,0c1.6-1.4,2.1-1.8,2.3-1.8C804.6,162.8,804.4,163.1,804.6,163z M801.3,165.8
				C801.8,165.4,800.6,166.3,801.3,165.8z M775,179.2L775,179.2C773.4,179.6,774.1,179.3,775,179.2
				C775.8,178.9,776.6,178.8,775,179.2c-0.1,0.2-1.5,0.5-2.2,0.7c-0.3,0.1-0.5,0.1-0.2,0C772.9,179.8,773.6,179.6,775,179.2z
				 M780.4,177.5c-0.7,0.4-1.1,0.5-1.2,0.4C779.2,177.8,779.6,177.6,780.4,177.5z M784.4,175.9C784.9,175.7,783.5,176.2,784.4,175.9
				z M792,172.1C792.5,171.8,791.1,172.5,792,172.1z M789.6,173.6c-1.7,0.8-2.4,1-2.7,1c1.9-1,2.5-1.2,2.6-1.2
				C789.7,173.4,789.4,173.7,789.6,173.6z M795.7,170c-0.8,0.7-1.6,1.1-1.8,1.1C793.7,171.2,794.1,170.8,795.7,170z M772.4,180.2
				c-0.8,0.3-1.2,0.4-1.2,0.3C771.1,180.4,771.5,180.3,772.4,180.2z M798.2,168.6C798.7,168.3,797.4,169.1,798.2,168.6z
				 M794.7,171.2c-0.8,0.5-1.6,1-2.5,1.5l-0.1-0.1C792.9,172.1,793.7,171.7,794.7,171.2L794.7,171.2z M796,170.5
				C796.5,170.2,795.2,171,796,170.5z M771.1,181.2l-2.4,0.5c-0.9,0.2-1.6,0.3-1.8,0.4c-1.3,0.2-1.7,0.2-1.6,0.2
				c0.1-0.1,0.7-0.2,1.5-0.4l2.6-0.6c0.8-0.2,1.5-0.3,1.7-0.3V181.2z M768.4,181.9c0,0.1-1.7,0.4-2.8,0.6
				C765.6,182.4,767.3,182.1,768.4,181.9z M765.6,182.8C766.2,182.7,764.7,182.9,765.6,182.8z M769.9,182c-1.2,0.3-2,0.4-2.4,0.5
				s-0.6,0-0.5,0c0.1-0.1,1-0.4,1.5-0.5C770.3,181.7,769.6,182,769.9,182z M791.4,174C791.9,173.7,790.5,174.4,791.4,174z
				 M795.1,171.8c-1.2,0.8-1.9,1.2-2.1,1.3c-0.3,0.1-0.2,0,0.1-0.2c0.6-0.5,2.1-1.5,3-2.2c-1.2,0.8-1.9,1.2-2.2,1.3s-0.1,0,0.2-0.2
				c0.6-0.4,1.8-1.2,2-1.2c1.2-0.7,1.8-1.2,2-1.3c0.3-0.2,0.2-0.1,0,0c-0.3,0.3-1.2,0.9-0.7,0.7c1.4-1,0.8-0.4,0,0
				C795.5,171.4,792.2,173.6,795.1,171.8z M792.8,173.6L792.8,173.6c-0.7,0.3-1.5,0.7-0.1-0.1c-0.2,0,1.8-1.1,0,0L792.8,173.6
				C793.5,173.1,794.2,172.8,792.8,173.6C793,173.6,791,174.7,792.8,173.6z M778.4,180.3C778.9,180.1,777.5,180.5,778.4,180.3z
				 M760,184.2c-0.8,0.2-1.2,0.2-1.2,0.1C758.7,184.2,759.1,184.1,760,184.2z M778.4,180.4C779,180.3,777.5,180.7,778.4,180.4z
				 M767.2,183.6c-0.2-0.2,0.8-0.7,2.7-1.4s4.7-1.7,8.2-3c-1.6,0.8-3.2,1.5-5,2.2C771.3,182.2,769.4,182.9,767.2,183.6z
				 M782.6,179.1C781.8,179.4,781,179.7,782.6,179.1c-0.4,0-0.1-0.2-1.4,0.3c1.2-0.7,2.7-1,4.1-1.6c-0.5,0,0.1-0.4,1.2-0.9
				c-1.9,0.8-2.7,1.2-3.5,1.5s-1.5,0.7-3.2,1.2c-0.8,0.2,0.4-0.3,0.9-0.6c0.3-0.1,0.4-0.2,0.1-0.1c-0.3,0.1-1,0.4-2.5,0.9
				c0.6-0.4,2.6-1.1,3.8-1.7c0.6-0.3,1.1-0.5,1.2-0.6c0.1-0.1-0.2,0-1.2,0.2c1.6-0.6,2.4-1.1,3-1.3c0.6-0.3,0.8-0.4,1-0.6
				c0.2-0.1,0.4-0.3,0.9-0.5l2.7-1.4c-0.2,0,1.8-1,0,0c-1.2,0.7-1.8,1.1-2.2,1.4c-0.4,0.3-0.4,0.5-0.5,0.6c-0.1,0.2-0.2,0.3-0.7,0.7
				c-0.4,0.3-1.2,0.8-2.7,1.4c0.2,0,1.5-0.5,2.7-1.1s2.4-1.2,2.6-1.2c0.7-0.4,1.5-0.7,0,0.1l0.1,0.1c0.7-0.4,1.5-0.7,0,0.1
				c-0.1,0.1-0.8,0.5-1.7,0.9l-2.2,1.1c-0.3,0.2,0,0.2-1.3,0.7C784,178.6,782.9,179.1,782.6,179.1z M790.6,175.5
				C791.1,175.3,789.7,175.9,790.6,175.5z M788,177c0,0.1-1.6,0.8-2.6,1.3C785.4,178.2,787,177.5,788,177z M758.6,185
				c-1.3,0-1.6,0-1.8-0.1s-0.2-0.2-1.1-0.2c1.9-0.1,3.8-0.2,5.8-0.4c0.8,0.1,0.1,0.2-0.9,0.4C759.6,184.7,758.5,184.9,758.6,185z
				 M755.7,185.2c-1.3,0-2.2,0-2.6-0.1c-0.3-0.1-0.1-0.1,1.1-0.2c1.6,0,1.7,0,1.6,0.1C755.7,185.1,755.3,185.2,755.7,185.2z
				 M780,180.5c0.3-0.2,1.1-0.5,2.7-1.1c-0.2,0,2-0.8,0,0C782.4,179.6,781.6,180,780,180.5c-0.1,0.2-1.5,0.6-2.2,0.8
				c-0.4,0.1-0.5,0.1-0.2,0C777.8,181.2,778.5,181,780,180.5z M780.1,180.7c0,0.1-1.7,0.6-2.8,1C777.3,181.6,779,181.1,780.1,180.7z
				 M755.7,185.4C756.3,185.4,754.7,185.4,755.7,185.4z M751.3,185.6c-1.7,0-2.1,0-2.4,0c-0.3,0-0.6-0.1-2-0.2c1,0,3.1,0,5.8,0
				C752.8,185.5,752.1,185.6,751.3,185.6c1.5,0,2.3,0,2.6,0s0.1,0-0.2,0.1C753,185.8,751.4,185.8,751.3,185.6z M785.6,178.8
				c-0.1,0.1-0.8,0.4-1.5,0.7c-0.6,0.3-1.3,0.5-1.3,0.4C783.5,179.6,784.1,179.5,785.6,178.8z M723.8,181.1
				C724.4,181.3,722.9,180.7,723.8,181.1z M752.8,186.3c0.4-0.1,1.3-0.1,2.1-0.2c0.7-0.1,1.2-0.2,0.9-0.3c-1.5,0.1-2.3,0.1-2.6,0.1
				s-0.1,0,0.2-0.1c0.7,0,2.2-0.1,2.4,0c2-0.1,2.5-0.3,3.2-0.5s1.5-0.4,4-0.7c-0.1-0.1,0.7-0.2,1.4-0.4c1.1-0.2,1.4-0.2,1.2-0.1
				c-0.1,0.1-0.7,0.2-1.2,0.3s-1,0.1-1.4,0.2c0.3,0.1-0.9,0.4-2.1,0.6c-1.2,0.2-2.5,0.4-2.2,0.6c1.8-0.1,0.9,0,0,0
				c-1.7,0.1-1.9,0.2-2.4,0.3c-0.2,0-0.5,0.1-1,0.1C754.8,186.3,754,186.3,752.8,186.3z M755.7,186.3
				C756.3,186.4,754.7,186.3,755.7,186.3z M732.1,184.2C732.8,184.4,731.2,183.9,732.1,184.2z M749.8,186.6
				C750.4,186.7,748.8,186.5,749.8,186.6z M749.8,186.8C750.4,186.9,748.8,186.7,749.8,186.8z M729.1,183.9c-0.2,0-0.9-0.2-1.6-0.4
				c-0.7-0.2-1.3-0.4-1.3-0.5C726.9,183.1,727.5,183.4,729.1,183.9z M712.3,177.5C712.9,177.9,711.5,177,712.3,177.5z M726.1,183.6
				c-2.1-0.6-3.1-1.1-3.1-1.2c0-0.1,1.1,0.2,3.2,1L726.1,183.6z M721.7,182.3C721.6,182.2,723.8,183,721.7,182.3
				C721.9,182.5,719.7,181.6,721.7,182.3z M717.3,181.1C717.9,181.4,716.4,180.7,717.3,181.1z M710.2,178.2
				c-1.5-0.8-2.2-1.3-2.5-1.5s-0.1-0.1,0.2,0c0.6,0.3,1.8,0.8,1.1,0.3c1.4,0.8,1.6,0.9,1.4,1C710.3,178.1,709.9,178,710.2,178.2z
				 M714.3,180.3c-1.3-0.6-1.8-1-1.5-0.9s1.3,0.5,3,1.4l-0.1,0.1C714.5,180.4,714.4,180.3,714.3,180.3z M698.4,170.9
				C698.9,171.4,697.7,170.3,698.4,170.9z M704.8,175.3c0.8,0.6,1,0.8,0.8,0.8s-0.7-0.3-1.4-0.6c-1.3-0.6-2.8-1.5-2.5-1.1
				c1.4,0.9,2.4,1.4,3.2,1.8c0.8,0.4,1.4,0.6,2,0.8c0.7,0.3,1.4,0.6,2.5,1.1s2.6,1.3,4.8,2.3c-0.3-0.1-0.9-0.3-1.5-0.6
				s-1.2-0.5-1.4-0.6c3.1,1.4,5.7,2.4,8,3.1c2.3,0.7,4.2,1.1,6,1.5c1.7,0.3,3.3,0.5,4.9,0.7c1.5,0.2,3.1,0.3,4.8,0.5
				c2,0.4,1.2,0.4,1.4,0.6c2,0.2,2.7,0.2,2.6,0.1c-0.1-0.1-1.1-0.3-2.4-0.7c2.3,0.4,3.5,0.6,4.4,0.7c0.9,0.1,1.6,0.2,3,0.3
				c0.9,0,0.9-0.1,1.3-0.2c0.4-0.1,1.1-0.1,3.1,0c0.5,0.1,1.3,0.3,1.4,0.4c0.1,0.1-0.6,0.2-2.9,0.1c-0.5,0.3-2.3,0.4-4.2,0.4
				s-4,0-4.9,0.1c1.7,0.3,2.9,0.4,3.7,0.4s1.2,0,1.6-0.1c0.8-0.1,1.3-0.2,3.7-0.2c0.8,0.2-0.1,0.3-0.9,0.4c-0.8,0.1-1.6,0.2-0.7,0.4
				c2.9,0.1,4.8,0,6-0.1s1.6-0.2,1.5-0.4c-1.2,0-2.9,0-3-0.1c1,0,2,0,3,0c2.1-0.2,4.9-0.5,7.2-0.8c2.3-0.4,4.2-0.8,4.5-1.2
				c0.2-0.1,0.9-0.3,1.9-0.5c1-0.3,2.1-0.6,3.1-0.9c1-0.3,1.7-0.6,2-0.7c0.2-0.1-0.1-0.1-1.4,0.1c1.2-0.2,1.9-0.4,2.3-0.6
				c0.4-0.1,0.5-0.2,0.5-0.3c-0.8,0.2-1.6,0.3,0-0.1v0.1c0.5-0.1,0.9-0.2,1.4-0.4c2.1-0.4,2.5-0.5,2.2-0.2c-0.3,0.2-1.4,0.7-2.6,1.2
				c-1.1,0.4-2.3,0.9-2.7,1.1c-0.4,0.2,0,0.3,2-0.1c1.2-0.3,1.4-0.4,2.8-0.9v-0.1c-1.1,0.3-1.6,0.4-1.6,0.4s0.3-0.1,0.9-0.3
				c1.1-0.3,2.9-0.9,3.5-1.2c-0.3,0-0.1-0.1-1.5,0.3c0.2,0-2,0.7,0,0c1.7-0.7,3.2-1.2,3.7-1.3c0.3-0.1,0.3,0-0.1,0.1
				c-0.3,0.2-1,0.5-2.1,0.9c0.5-0.1,2.4-0.7,3.8-1.2c1.5-0.6,2.6-1.1,1.7-0.9c-1.7,0.7-0.9,0.2,0,0c2.7-1.2,5.2-2.7,5.1-2.9
				c-1.5,0.7-2.3,1.1-2.6,1.3c0.7-0.3,1.5-0.6,0,0.1c0,0-1,0.6-1.3,0.6c-1.1,0.5-1.8,0.8-2.2,0.9c-0.4,0.1-0.5,0.1-0.6,0.1
				c1.6-0.6,2.2-0.9,2.4-1s-0.1,0-0.4,0.1c-0.3,0.1-0.5,0.2-0.4,0.1c0.2-0.1,0.8-0.4,2.3-1c0,0,0.6-0.3,1.2-0.6
				c0.6-0.3,1.3-0.6,1.5-0.6c1.9-1,3-1.8,3.8-2.4c0.8-0.6,1.2-0.9,1.4-1.2c0.5-0.5,0.5-0.7,1.8-1.8c0.7-0.6,0.9-0.7,1.3-0.9
				c0.4-0.2,0.9-0.5,2.2-1.6c1.4-1.2,2.1-2,2-2.1s-0.9,0.3-2.5,1.4c1.5-1.1,3-2.3,4.5-3.5c2.1-2.6,4.1-5.4,6.1-8.4
				c1.9-3,3.7-6.2,5.3-9.5c1.1-2.9,2.2-6.1,3.1-9.6c0.9-3.4,1.5-7,1.8-10.5c0.3-3.5,0.3-6.9-0.1-9.9c-0.3-3-0.9-5.6-1.7-7.6
				c-0.4-1.2-1-2.4-1.5-3.3c-0.6-0.9-1.1-1.5-1.7-1.4c0,0-0.4,0.9-0.8,1.6c-0.5,0.7-1,1.2-1.3,0.5c-0.1,1.2-0.3,2.1-0.4,3
				c-0.2,0.8-0.3,1.6-0.5,2.4s-0.4,1.6-0.7,2.6s-0.6,2.1-1,3.6c-0.3,1.1-0.2,1.3-0.1,1.2c0.1-0.1,0.3-0.4,0.3-0.1
				c-0.5,1.8-0.8,2.4-1.1,2.9s-0.5,0.8-1,2.1c-0.7,2.1-1.1,3.2-1.6,4.4c-0.5,1.2-1,2.4-2.3,4.3c0.1,0.1-0.2,0.9-0.7,1.8
				c-0.5,0.9-1.1,2-1.7,3c-1.5,5.1-3.6,10-6.5,14.6c-2.8,4.6-6.4,9-10.8,13c-4.4,4-9.6,7.7-15.9,10.6c-6.3,3-13.6,5.3-22.1,6.3
				c-4.3,0.4-8.9,0.4-13.5,0s-9.2-1.2-13.7-2.4s-8.8-2.7-12.9-4.5c-4-1.8-7.8-3.8-11.2-6c1.4,1.2,0.7,0.7,0,0
				c-1.8-1.4-2.4-1.7-2.6-1.7c0.6,0.5,0.9,0.9,0.9,0.9c0,0.1-0.3-0.2-1-0.8c-0.1,0.2-1-0.4-2-1.1c-0.9-0.7-1.9-1.4-2.1-1.4
				c1.7,1.6,3.3,2.8,4.6,3.8c1.4,1,2.6,1.8,3.7,2.5c1.2,0.7,2.3,1.3,3.4,2C702,173.9,703.3,174.5,704.8,175.3z"/>
		</g>
		<g transform="matrix(3.125,0,0,3.125,-1662.68,1085.13)">
			<path class="st0" d="M768,184.3C768.7,184.2,767.1,184.4,768,184.3z"/>
		</g>
		<g transform="matrix(3.125,0,0,3.125,-1662.68,1085.13)">
			<path class="st0" d="M753.4,185.7L753.4,185.7c1.1-0.1,2-0.1,2.4-0.1s0.6,0,0.4,0.1C756,185.7,754.5,185.8,753.4,185.7z"/>
		</g>
		<g transform="matrix(3.125,0,0,3.125,-1662.68,1085.13)">
			<path class="st0" d="M733.9,183.6C734.5,183.7,733,183.3,733.9,183.6z"/>
		</g>
		<g transform="matrix(3.125,0,0,3.125,-1662.68,1085.13)">
			<path class="st0" d="M736.9,184.1C737.5,184.2,735.9,183.9,736.9,184.1z"/>
		</g>
		<g transform="matrix(3.125,0,0,3.125,-1662.68,1085.13)">
			<path class="st0" d="M770.9,183.6c0,0.1-1.8,0.4-2.9,0.7C768,184.2,769.8,183.8,770.9,183.6z"/>
		</g>
		<g transform="matrix(3.125,0,0,3.125,-1662.68,1085.13)">
			<path class="st0" d="M776.7,182C776.9,182.1,774.6,182.7,776.7,182z"/>
		</g>
		<g transform="matrix(3.125,0,0,3.125,-1662.68,1085.13)">
			<path class="st0" d="M765,184.6C765.7,184.5,764.1,184.7,765,184.6z"/>
		</g>
		<g transform="matrix(3.125,0,0,3.125,-1662.68,1085.13)">
			<path class="st0" d="M742.8,184.9C743.4,185,741.8,184.7,742.8,184.9z"/>
		</g>
		<g transform="matrix(3.125,0,0,3.125,-1662.68,1085.13)">
			<path class="st0" d="M776.7,182C776.5,182,778.8,181.4,776.7,182z"/>
		</g>
		<g transform="matrix(3.125,0,0,3.125,-1662.68,1085.13)">
			<path class="st0" d="M769.5,183.8c0.8-0.2,0.9-0.3,1.3-0.4c0.4-0.1,1.1-0.3,3-0.8c-0.8,0.2-0.9,0.3-1.3,0.5
				C772.1,183.2,771.4,183.4,769.5,183.8z"/>
		</g>
		<g transform="matrix(3.125,0,0,3.125,-1662.68,1085.13)">
			<path class="st0" d="M766.5,184.2C765.7,184.6,767.7,183.5,766.5,184.2z"/>
		</g>
		<g transform="matrix(3.125,0,0,3.125,-1662.68,1085.13)">
			<path class="st0" d="M674.2,131.5C674.4,132.1,673.9,130.5,674.2,131.5z"/>
		</g>
		<g transform="matrix(3.125,0,0,3.125,-1662.68,1085.13)">
			<path class="st0" d="M779.5,180.9C779.6,180.9,777.4,181.6,779.5,180.9z"/>
		</g>
		<g transform="matrix(3.125,0,0,3.125,-1662.68,1085.13)">
			<path class="st0" d="M779.5,180.9c0.2-0.2-0.3-0.1,1.3-0.7C780.6,180.3,781.1,180.3,779.5,180.9z"/>
		</g>
		<g transform="matrix(3.125,0,0,3.125,-1662.68,1085.13)">
			<path class="st0" d="M773.7,182.3C773.9,182.4,771.6,182.9,773.7,182.3z"/>
		</g>
		<g transform="matrix(3.125,0,0,3.125,-1662.68,1085.13)">
			<path class="st0" d="M769.4,183.3c0,0.1-1.8,0.4-2.9,0.6C766.5,183.8,768.2,183.5,769.4,183.3z"/>
		</g>
		<g transform="matrix(3.125,0,0,3.125,-1662.68,1085.13)">
			<path class="st0" d="M745.8,184.6c0,0-1.2,0-1.5-0.1C744.8,184.5,745.3,184.6,745.8,184.6z"/>
		</g>
		<g transform="matrix(3.125,0,0,3.125,-1662.68,1085.13)">
			<path class="st0" d="M675.4,131c-0.4-0.4-1.1-1.3-1.9-3.1c-0.8-1.8-1.7-4.4-2.3-8.1c1.2,4,2.2,7.4,3.5,9.9c0,0-0.3-1-0.6-2
				s-0.7-2.1-0.8-2.2c-0.4-1.6-0.4-2-0.2-1.5c0.3,0.6,0.8,2.1,1.4,4.2C674.5,128.1,674.8,129.3,675.4,131z"/>
		</g>
		<g transform="matrix(3.125,0,0,3.125,-1662.68,1085.13)">
			<path class="st0" d="M780.8,180.2c0-0.1,0-0.1,0.3-0.3s1-0.4,2.4-1C782.9,179.3,782.1,179.6,780.8,180.2z"/>
		</g>
		<g transform="matrix(3.125,0,0,3.125,-1662.68,1085.13)">
			<path class="st0" d="M776.5,181.4C778.3,180.9,777.4,181.3,776.5,181.4z"/>
		</g>
		<g transform="matrix(3.125,0,0,3.125,-1662.68,1085.13)">
			<path class="st0" d="M747.3,184.7c-0.5,0-1-0.1-1.5-0.1C745.8,184.6,747,184.6,747.3,184.7z"/>
		</g>
		<g transform="matrix(3.125,0,0,3.125,-1662.68,1085.13)">
			<path class="st0" d="M769.3,183.1C769.5,183.2,767.2,183.6,769.3,183.1z"/>
		</g>
		<g transform="matrix(3.125,0,0,3.125,-1662.68,1085.13)">
			<path class="st0" d="M777.9,180.9C779.6,180.3,778.8,180.7,777.9,180.9z"/>
		</g>
		<g transform="matrix(3.125,0,0,3.125,-1662.68,1085.13)">
			<path class="st0" d="M769.3,183.1c-0.7,0,0.4-0.2,1.1-0.3c0.4-0.1,0.6-0.1,0.5,0C770.9,182.8,770.4,182.9,769.3,183.1z"/>
		</g>
		<g transform="matrix(3.125,0,0,3.125,-1662.68,1085.13)">
			<path class="st0" d="M676.5,135.4C676.7,136,676.1,134.5,676.5,135.4z"/>
		</g>
		<g transform="matrix(3.125,0,0,3.125,-1662.68,1085.13)">
			<path class="st0" d="M777.9,180.9c-0.5,0.1-0.9,0.3-1.4,0.4C776.5,181.3,777.6,180.9,777.9,180.9z"/>
		</g>
		<g transform="matrix(3.125,0,0,3.125,-1662.68,1085.13)">
			<path class="st0" d="M669.7,100.5C669.6,101.1,669.8,99.5,669.7,100.5z"/>
		</g>
		<g transform="matrix(3.125,0,0,3.125,-1662.68,1085.13)">
			<path class="st0" d="M679.3,140.7c-0.5-0.7-0.7-1.1-0.6-1.1C678.8,139.5,679,139.8,679.3,140.7z"/>
		</g>
		<g transform="matrix(3.125,0,0,3.125,-1662.68,1085.13)">
			<path class="st0" d="M764.9,183.6C764.7,183.5,767,183.2,764.9,183.6z"/>
		</g>
		<g transform="matrix(3.125,0,0,3.125,-1662.68,1085.13)">
			<path class="st0" d="M680.2,141.9C680.5,142.4,679.8,141,680.2,141.9z"/>
		</g>
		<g transform="matrix(3.125,0,0,3.125,-1662.68,1085.13)">
			<path class="st0" d="M681.1,143.1C681.4,143.6,680.6,142.2,681.1,143.1z"/>
		</g>
		<g transform="matrix(3.125,0,0,3.125,-1662.68,1085.13)">
			<path class="st0" d="M679.1,139.1c0.2,0.8-0.4-0.2-0.7-0.9c-0.2-0.4-0.2-0.6-0.2-0.6C678.3,137.7,678.5,138.1,679.1,139.1z"/>
		</g>
		<g transform="matrix(3.125,0,0,3.125,-1662.68,1085.13)">
			<path class="st0" d="M670.3,104.9C670.3,105.6,670.3,104,670.3,104.9z"/>
		</g>
		<g transform="matrix(3.125,0,0,3.125,-1662.68,1085.13)">
			<path class="st0" d="M787.3,176.5L787.3,176.5c-0.4,0.3-0.9,0.5-1.3,0.7C786,177.1,786.1,177,787.3,176.5z"/>
		</g>
		<g transform="matrix(3.125,0,0,3.125,-1662.68,1085.13)">
			<path class="st0" d="M682,144.3C682.3,144.8,681.6,143.4,682,144.3z"/>
		</g>
		<g transform="matrix(3.125,0,0,3.125,-1662.68,1085.13)">
			<path class="st0" d="M679.1,139.1C679.1,138.9,680.1,141,679.1,139.1z"/>
		</g>
		<g transform="matrix(3.125,0,0,3.125,-1662.68,1085.13)">
			<path class="st0" d="M789.8,175c0,0-0.6,0.3-1.2,0.6c-0.6,0.3-1.3,0.6-1.5,0.6C788.1,175.9,789,175.5,789.8,175z"/>
		</g>
		<g transform="matrix(3.125,0,0,3.125,-1662.68,1085.13)">
			<path class="st0" d="M682.9,145.4c-0.6-0.6-0.7-1.1-0.7-1.1C682.3,144.3,682.6,144.6,682.9,145.4z"/>
		</g>
		<g transform="matrix(3.125,0,0,3.125,-1662.68,1085.13)">
			<path class="st0" d="M680.7,141.6C680.6,142,678,136.5,680.7,141.6z"/>
		</g>
		<g transform="matrix(3.125,0,0,3.125,-1662.68,1085.13)">
			<path class="st0" d="M674.8,128.1c-0.1,0-0.6-1.7-1-2.8C673.9,125.3,674.4,127,674.8,128.1z"/>
		</g>
		<g transform="matrix(3.125,0,0,3.125,-1662.68,1085.13)">
			<path class="st0" d="M680.7,141.6c-0.2-0.8,0.3,0.2,0.7,0.8c0.2,0.3,0.3,0.6,0.2,0.5C681.6,142.9,681.3,142.5,680.7,141.6z"/>
		</g>
		<g transform="matrix(3.125,0,0,3.125,-1662.68,1085.13)">
			<path class="st0" d="M671.3,109.3c-0.2-0.3,0,1.7-0.2,1.5l-0.3-3c-0.1-0.8-0.1-1.6-0.2-2.9c0.1,1.1,0.2,1.7,0.3,2.2
				C671.1,107.7,671.2,108.3,671.3,109.3z"/>
		</g>
		<g transform="matrix(3.125,0,0,3.125,-1662.68,1085.13)">
			<path class="st0" d="M683.9,146.5c-0.6-0.6-0.8-1-0.7-1.1C683.3,145.4,683.6,145.7,683.9,146.5z"/>
		</g>
		<g transform="matrix(3.125,0,0,3.125,-1662.68,1085.13)">
			<path class="st0" d="M675.5,129.4C675.7,130,675.2,128.5,675.5,129.4z"/>
		</g>
		<g transform="matrix(3.125,0,0,3.125,-1662.68,1085.13)">
			<path class="st0" d="M689.3,153.5C689.6,154,688.7,152.7,689.3,153.5z"/>
		</g>
		<g transform="matrix(3.125,0,0,3.125,-1662.68,1085.13)">
			<path class="st0" d="M684.8,57.7c0.7-1,1-1.4,1.1-1.4c0,0-0.2,0.4-0.5,0.9c-0.6,1-1.4,2.3-1,2c-1,1.5-1.5,2.2-1.6,2.3
				s0.1-0.3,0.4-0.9C683.9,59.4,685.1,57.6,684.8,57.7z"/>
		</g>
		<g transform="matrix(3.125,0,0,3.125,-1662.68,1085.13)">
			<path class="st0" d="M784.4,177.1c-0.5,0.2-0.9,0.4-1.4,0.5v-0.1C783.8,177.2,784.6,176.9,784.4,177.1z"/>
		</g>
		<g transform="matrix(3.125,0,0,3.125,-1662.68,1085.13)">
			<path class="st0" d="M682.5,143.9c-0.7-1-0.9-1.4-0.8-1.3c0,0,0.3,0.4,0.6,0.9C682.9,144.4,683.6,145.4,682.5,143.9z"/>
		</g>
		<g transform="matrix(3.125,0,0,3.125,-1662.68,1085.13)">
			<path class="st0" d="M675.6,129.4C675.6,129.5,674.9,127.4,675.6,129.4z"/>
		</g>
		<g transform="matrix(3.125,0,0,3.125,-1662.68,1085.13)">
			<path class="st0" d="M675.6,129.4C675.7,129.2,676.4,131.4,675.6,129.4z"/>
		</g>
		<g transform="matrix(3.125,0,0,3.125,-1662.68,1085.13)">
			<path class="st0" d="M685.9,148.7C685.9,148.9,684.7,147,685.9,148.7z"/>
		</g>
		<g transform="matrix(3.125,0,0,3.125,-1662.68,1085.13)">
			<path class="st0" d="M789.5,174.3L789.5,174.3C788.8,174.8,788,175.1,789.5,174.3z"/>
		</g>
		<g transform="matrix(3.125,0,0,3.125,-1662.68,1085.13)">
			<path class="st0" d="M685.9,148.7c-0.3-0.7,0.4,0.2,0.8,0.8c0.2,0.3,0.3,0.5,0.3,0.5C686.9,149.9,686.6,149.6,685.9,148.7z"/>
		</g>
		<g transform="matrix(3.125,0,0,3.125,-1662.68,1085.13)">
			<path class="st0" d="M691.5,155.4C691.9,155.9,690.9,154.7,691.5,155.4z"/>
		</g>
		<g transform="matrix(3.125,0,0,3.125,-1662.68,1085.13)">
			<path class="st0" d="M789.4,174.1L789.4,174.1C788.7,174.6,787.9,174.9,789.4,174.1z"/>
		</g>
		<g transform="matrix(3.125,0,0,3.125,-1662.68,1085.13)">
			<path class="st0" d="M686.3,148.5c0.3,0.4,0.6,0.8,0.9,1.2c1.1,1.5,0.7,1.1,0.1,0.4C686.6,149.3,685.9,148.2,686.3,148.5z"/>
		</g>
		<g transform="matrix(3.125,0,0,3.125,-1662.68,1085.13)">
			<path class="st0" d="M685.4,147.3c-0.1,0-1-1.4-1.7-2.4C683.8,144.9,684.7,146.4,685.4,147.3z"/>
		</g>
		<g transform="matrix(3.125,0,0,3.125,-1662.68,1085.13)">
			<path class="st0" d="M687.1,149.6C687.1,149.5,688.4,151.3,687.1,149.6z"/>
		</g>
		<g transform="matrix(3.125,0,0,3.125,-1662.68,1085.13)">
			<path class="st0" d="M686.3,148.5c-0.7-1-0.9-1.5-0.8-1.6c0.1-0.1,0.5,0.4,1.2,1.3c0.7,1.1,0.5,0.9,0.2,0.6
				C686.5,148.4,686,147.9,686.3,148.5z"/>
		</g>
		<g transform="matrix(3.125,0,0,3.125,-1662.68,1085.13)">
			<path class="st0" d="M678.4,134.6C678.4,134.7,677.5,132.6,678.4,134.6z"/>
		</g>
		<g transform="matrix(3.125,0,0,3.125,-1662.68,1085.13)">
			<path class="st0" d="M690,152.9C690,153.1,688.6,151.3,690,152.9z"/>
		</g>
		<g transform="matrix(3.125,0,0,3.125,-1662.68,1085.13)">
			<path class="st0" d="M784,176.2C784.2,176.2,782.1,177,784,176.2z"/>
		</g>
		<g transform="matrix(3.125,0,0,3.125,-1662.68,1085.13)">
			<path class="st0" d="M690,152.9C689.9,152.8,691.3,154.5,690,152.9z"/>
		</g>
		<g transform="matrix(3.125,0,0,3.125,-1662.68,1085.13)">
			<path class="st0" d="M784,176.2C783.8,176.2,785.9,175.3,784,176.2z"/>
		</g>
		<g transform="matrix(3.125,0,0,3.125,-1662.68,1085.13)">
			<path class="st0" d="M673,115C673,115.6,672.9,114,673,115z"/>
		</g>
		<g transform="matrix(3.125,0,0,3.125,-1662.68,1085.13)">
			<path class="st0" d="M691.1,153.8c-1.3-1.3-1.5-1.7-1.4-1.6C689.9,152.3,690.5,153,691.1,153.8z"/>
		</g>
		<g transform="matrix(3.125,0,0,3.125,-1662.68,1085.13)">
			<path class="st0" d="M686.6,148.2C686.6,148,687.9,149.9,686.6,148.2z"/>
		</g>
		<g transform="matrix(3.125,0,0,3.125,-1662.68,1085.13)">
			<path class="st0" d="M687.7,149.2C688,149.7,687.1,148.5,687.7,149.2z"/>
		</g>
		<g transform="matrix(3.125,0,0,3.125,-1662.68,1085.13)">
			<path class="st0" d="M689.5,151.4c-0.1-0.1-0.6-0.7-1.1-1.4c-0.6-0.7-1.2-1.5-1.5-2c-0.3-0.4,0.6,0.7,1.4,1.8
				C689.2,150.9,690,151.9,689.5,151.4z"/>
		</g>
		<g transform="matrix(3.125,0,0,3.125,-1662.68,1085.13)">
			<path class="st0" d="M675.7,124.7C675.9,125.3,675.5,123.8,675.7,124.7z"/>
		</g>
		<g transform="matrix(3.125,0,0,3.125,-1662.68,1085.13)">
			<path class="st0" d="M697.4,159.8C697.8,160.2,696.7,159.1,697.4,159.8z"/>
		</g>
		<g transform="matrix(3.125,0,0,3.125,-1662.68,1085.13)">
			<path class="st0" d="M692.4,154.6c-0.7-0.8-0.9-1.1-0.9-1.2c0-0.1,0.2,0.2,0.5,0.4c0.5,0.5,1.3,1.3,0.8,0.5
				c1.2,1.5,1.7,2.1,1.7,2.3C693.3,155.5,692.7,154.8,692.4,154.6z"/>
		</g>
		<g transform="matrix(3.125,0,0,3.125,-1662.68,1085.13)">
			<path class="st0" d="M676.5,126c0.3,1,0.4,1.5,0.5,1.6c0,0.1-0.1-0.1-0.2-0.5c-0.3-0.7-0.7-1.7-0.5-1c-0.5-1.7-0.5-1.8-0.3-1.5
				C676.1,125,676.4,125.8,676.5,126z"/>
		</g>
		<g transform="matrix(3.125,0,0,3.125,-1662.68,1085.13)">
			<path class="st0" d="M698.6,160.5c0.4,0.7-0.4,0-0.9-0.6c-0.3-0.3-0.4-0.5-0.4-0.5C697.5,159.5,697.8,159.8,698.6,160.5z"/>
		</g>
		<g transform="matrix(3.125,0,0,3.125,-1662.68,1085.13)">
			<path class="st0" d="M690.7,152.3C689.9,151.9,691.8,153,690.7,152.3z"/>
		</g>
		<g transform="matrix(3.125,0,0,3.125,-1662.68,1085.13)">
			<path class="st0" d="M698.6,160.5C698.6,160.3,700.2,161.8,698.6,160.5z"/>
		</g>
		<g transform="matrix(3.125,0,0,3.125,-1662.68,1085.13)">
			<path class="st0" d="M680.8,136.6C681,137.2,680.4,135.8,680.8,136.6z"/>
		</g>
		<g transform="matrix(3.125,0,0,3.125,-1662.68,1085.13)">
			<path class="st0" d="M701,162.1C701.4,162.6,700.3,161.5,701,162.1z"/>
		</g>
		<g transform="matrix(3.125,0,0,3.125,-1662.68,1085.13)">
			<path class="st0" d="M698.9,160.2c-0.9-0.6-1.4-1.3-1.5-1.4C697.3,158.6,697.7,158.9,698.9,160.2z"/>
		</g>
		<g transform="matrix(3.125,0,0,3.125,-1662.68,1085.13)">
			<path class="st0" d="M702.1,163c-1.1-0.9-1.1-1.1-0.6-0.8s1.7,1.1,3.1,2.2C703.6,163.8,702.6,163.2,702.1,163z"/>
		</g>
		<g transform="matrix(3.125,0,0,3.125,-1662.68,1085.13)">
			<path class="st0" d="M697,158.1c0,0-0.5-0.4-1-0.9s-0.9-1-1-1.2C695.7,156.8,696.3,157.5,697,158.1z"/>
		</g>
		<g transform="matrix(3.125,0,0,3.125,-1662.68,1085.13)">
			<path class="st0" d="M705.8,165.2c-1.1-0.8-1.6-1.2-1.8-1.4c-0.1-0.2,0.1-0.1,0.4,0.1c0.7,0.4,1.9,1.1,1.7,0.8
				C710.4,168,705.5,164.6,705.8,165.2z"/>
		</g>
		<g transform="matrix(3.125,0,0,3.125,-1662.68,1085.13)">
			<path class="st0" d="M683,138.7C682.4,138.1,684,139.5,683,138.7z"/>
		</g>
		<g transform="matrix(3.125,0,0,3.125,-1662.68,1085.13)">
			<path class="st0" d="M710.7,167.9c-0.8-0.3-1.1-0.6-1-0.7C709.8,167.1,710.1,167.3,710.7,167.9z"/>
		</g>
		<g transform="matrix(3.125,0,0,3.125,-1662.68,1085.13)">
			<path class="st0" d="M708.5,166.2c-0.8-0.3-1-0.6-1-0.7C707.5,165.5,707.9,165.6,708.5,166.2z"/>
		</g>
		<g transform="matrix(3.125,0,0,3.125,-1662.68,1085.13)">
			<path class="st0" d="M684.9,140.8C685.2,141.4,684.5,140,684.9,140.8z"/>
		</g>
		<g transform="matrix(3.125,0,0,3.125,-1662.68,1085.13)">
			<path class="st0" d="M711.1,167.3c0.2,0.3-1.4-0.7-1.3-0.5c-1.4-1-1.5-1.1-1.1-0.9c0.4,0.2,1.1,0.6,1.3,0.7
				C710.3,166.9,710.7,167.1,711.1,167.3z"/>
		</g>
		<g transform="matrix(3.125,0,0,3.125,-1662.68,1085.13)">
			<path class="st0" d="M675.4,106.2C675.4,106.8,675.5,105.3,675.4,106.2z"/>
		</g>
		<g transform="matrix(3.125,0,0,3.125,-1662.68,1085.13)">
			<path class="st0" d="M713.7,168.3c-0.5-0.4,0.6,0.2,1.5,0.5c0.8,0.4,1.4,0.6-0.1-0.2c0.1,0,0.9,0.4,1.5,0.7
				c0.7,0.3,1.3,0.6,1,0.4c1.2,0.6,1.7,0.9,1.8,1s-0.2,0-0.5-0.1c-0.7-0.3-1.6-0.6-0.3,0.2c-1.2-0.7-1.8-1-2.4-1.3
				C715.6,169.3,714.9,169,713.7,168.3z"/>
		</g>
		<g transform="matrix(3.125,0,0,3.125,-1662.68,1085.13)">
			<path class="st0" d="M744.9,27.2C744.4,27.2,745.8,27.1,744.9,27.2z"/>
		</g>
		<g transform="matrix(3.125,0,0,3.125,-1662.68,1085.13)">
			<path class="st0" d="M675.9,108.9c-0.2-0.8-0.2-1.2-0.1-1.2C675.9,107.7,676,108.1,675.9,108.9z"/>
		</g>
		<g transform="matrix(3.125,0,0,3.125,-1662.68,1085.13)">
			<path class="st0" d="M719.9,34.1c0.2,0-1.5,0.9-1.1,0.9c-1,0.4-2,0.9-3.7,1.8c0.9-0.5,1.4-0.8,1.9-1.2
				C717.6,35.2,718.3,34.8,719.9,34.1z"/>
		</g>
		<g transform="matrix(3.125,0,0,3.125,-1662.68,1085.13)">
			<path class="st0" d="M746.3,27.2C744.7,27.4,745.5,27.2,746.3,27.2z"/>
		</g>
		<g transform="matrix(3.125,0,0,3.125,-1662.68,1085.13)">
			<path class="st0" d="M734.2,29.2c0.9-0.2,1.4-0.3,2-0.4s1.1-0.2,2.1-0.4c-0.2,0.1-1,0.3-2.1,0.5c-1,0.2-2.3,0.5-3.2,0.8
				C733.6,29.5,734.2,29.3,734.2,29.2z"/>
		</g>
		<g transform="matrix(3.125,0,0,3.125,-1662.68,1085.13)">
			<path class="st0" d="M676.9,113C677,113.6,676.8,112.1,676.9,113z"/>
		</g>
		<g transform="matrix(3.125,0,0,3.125,-1662.68,1085.13)">
			<path class="st0" d="M721.4,34C720.8,34.2,722.2,33.7,721.4,34z"/>
		</g>
		<g transform="matrix(3.125,0,0,3.125,-1662.68,1085.13)">
			<path class="st0" d="M677.4,114.3c0,0.5,0.1,1.6-0.2,0c-0.1-0.9-0.1-1.3-0.1-1.3C677.2,113,677.3,113.4,677.4,114.3z"/>
		</g>
		<g transform="matrix(3.125,0,0,3.125,-1662.68,1085.13)">
			<path class="st0" d="M815.7,145.1C815.6,145.1,816.8,143.4,815.7,145.1z"/>
		</g>
		<g transform="matrix(3.125,0,0,3.125,-1662.68,1085.13)">
			<path class="st0" d="M733.4,173.6L733.4,173.6C734.2,173.7,734.9,173.9,733.4,173.6z"/>
		</g>
		<g transform="matrix(3.125,0,0,3.125,-1662.68,1085.13)">
			<path class="st0" d="M740,174.4C740.6,174.5,739.2,174.2,740,174.4z"/>
		</g>
		<g transform="matrix(3.125,0,0,3.125,-1662.68,1085.13)">
			<path class="st0" d="M742.7,174.6C743.2,174.7,741.8,174.4,742.7,174.6z"/>
		</g>
		<g transform="matrix(3.125,0,0,3.125,-1662.68,1085.13)">
			<path class="st0" d="M760.9,31.4C760.4,31.3,761.7,31.5,760.9,31.4z"/>
		</g>
		<g transform="matrix(3.125,0,0,3.125,-1662.68,1085.13)">
			<path class="st0" d="M771,33.8c-1-0.2-1.4-0.2-1.3,0c-1.8-0.4-2.4-0.6-2.1-0.6C767.9,33.2,769.2,33.4,771,33.8z"/>
		</g>
		<g transform="matrix(3.125,0,0,3.125,-1662.68,1085.13)">
			<path class="st0" d="M789.9,41.9C789.5,41.6,790.6,42.3,789.9,41.9z"/>
		</g>
		<g transform="matrix(3.125,0,0,3.125,-1662.68,1085.13)">
			<path class="st0" d="M772.2,34.5C771.6,34.3,773,34.7,772.2,34.5z"/>
		</g>
		<g transform="matrix(3.125,0,0,3.125,-1662.68,1085.13)">
			<path class="st0" d="M770.9,34.4C770.3,34.2,771.7,34.6,770.9,34.4z"/>
		</g>
		<g transform="matrix(3.125,0,0,3.125,-1662.68,1085.13)">
			<path class="st0" d="M794,45C793.6,44.6,794.7,45.5,794,45z"/>
		</g>
		<g transform="matrix(3.125,0,0,3.125,-1662.68,1085.13)">
			<path class="st0" d="M781.6,38.4C781.2,38.1,782.4,38.7,781.6,38.4z"/>
		</g>
		<g transform="matrix(3.125,0,0,3.125,-1662.68,1085.13)">
			<path class="st0" d="M753.1,172.7C754.7,172.7,753.9,172.8,753.1,172.7z"/>
		</g>
		<g transform="matrix(3.125,0,0,3.125,-1662.68,1085.13)">
			<path class="st0" d="M745.5,33.2C745,33.2,746.4,33.2,745.5,33.2z"/>
		</g>
		<g transform="matrix(3.125,0,0,3.125,-1662.68,1085.13)">
			<path class="st0" d="M741.8,33.8C741.3,33.8,742.6,33.7,741.8,33.8z"/>
		</g>
		<g transform="matrix(3.125,0,0,3.125,-1662.68,1085.13)">
			<path class="st0" d="M744.3,33.4c1.2-0.1,1.6-0.1,1.5-0.1c0,0-0.5,0.1-1.1,0.2c-1.1,0.2-2.6,0.5-1.6,0.5c-1.1,0.1-2.8,0.3-5,0.8
				c0.4-0.3,1.9-0.6,3.2-0.8C742.8,33.7,744.1,33.6,744.3,33.4z"/>
		</g>
		<g transform="matrix(3.125,0,0,3.125,-1662.68,1085.13)">
			<path class="st0" d="M755.6,172.4C755.5,172.3,757.5,172.3,755.6,172.4z"/>
		</g>
		<g transform="matrix(3.125,0,0,3.125,-1662.68,1085.13)">
			<path class="st0" d="M735.7,35.7c0.8-0.2,1.6-0.4,2.4-0.6v0.1C737.3,35.4,736.5,35.6,735.7,35.7L735.7,35.7z M733.4,36.8
				c-2.7,0.8-4.5,1.4-4.7,1.7c1.7-0.6,2.6-0.9,3-1s0.3,0,0.2,0.1c-0.4,0.2-1.1,0.5,0.5,0.1l4.4-1.6c1.2-0.4,2.4-0.9,3.9-1.3
				c-1.2,0.2-1.6,0.2-2.1,0.3s-1.1,0.1-2.8,0.6c-0.4,0.2-1.8,0.7-2.7,1c-0.5,0.2-0.8,0.3-0.8,0.4C732.2,37,732.6,36.9,733.4,36.8z"
				/>
		</g>
		<g transform="matrix(3.125,0,0,3.125,-1662.68,1085.13)">
			<path class="st0" d="M808.2,61.1C808.2,60.9,809.3,62.5,808.2,61.1z"/>
		</g>
		<g transform="matrix(3.125,0,0,3.125,-1662.68,1085.13)">
			<path class="st0" d="M817.1,76.1C817.1,75.9,817.8,77.7,817.1,76.1z"/>
		</g>
		<g transform="matrix(3.125,0,0,3.125,-1662.68,1085.13)">
			<path class="st0" d="M815.4,72.7C815.5,72.5,816.3,74.3,815.4,72.7z"/>
		</g>
		<g transform="matrix(3.125,0,0,3.125,-1662.68,1085.13)">
			<path class="st0" d="M817.1,76.1C817,76.2,816.3,74.4,817.1,76.1z"/>
		</g>
		<g transform="matrix(3.125,0,0,3.125,-1662.68,1085.13)">
			<path class="st0" d="M815.4,72.7c-0.2-0.2-0.1,0-0.7-1C814.9,71.9,814.9,71.6,815.4,72.7z"/>
		</g>
		<g transform="matrix(3.125,0,0,3.125,-1662.68,1085.13)">
			<path class="st0" d="M815.8,73.9C815.6,73.4,816.1,74.6,815.8,73.9z"/>
		</g>
		<g transform="matrix(3.125,0,0,3.125,-1662.68,1085.13)">
			<path class="st0" d="M814.7,71.7C814.6,72,812.4,67.4,814.7,71.7z"/>
		</g>
		<g transform="matrix(3.125,0,0,3.125,-1662.68,1085.13)">
			<path class="st0" d="M730,38.3c-0.6,0.2-0.7,0.3-1,0.5s-0.9,0.4-2.4,1c0.6-0.3,0.7-0.4,1-0.6C727.9,39.1,728.4,38.8,730,38.3z"/>
		</g>
		<g transform="matrix(3.125,0,0,3.125,-1662.68,1085.13)">
			<path class="st0" d="M732.4,37.7C731.9,37.8,733.2,37.5,732.4,37.7z"/>
		</g>
		<g transform="matrix(3.125,0,0,3.125,-1662.68,1085.13)">
			<path class="st0" d="M813.3,69.6C813.3,69.5,814.2,71.2,813.3,69.6z"/>
		</g>
		<g transform="matrix(3.125,0,0,3.125,-1662.68,1085.13)">
			<path class="st0" d="M765.3,169.4C765.2,169.3,767.1,169,765.3,169.4z"/>
		</g>
		<g transform="matrix(3.125,0,0,3.125,-1662.68,1085.13)">
			<path class="st0" d="M724.4,41c3.3-1.5,6.5-2.5,5.8-2c-1.8,0.5-2.7,0.9-3,1.1c-0.3,0.2,0.1,0.1,0.8,0c-1.5,0.6-1.7,0.6-2.1,0.7
				c-0.3,0.1-0.7,0.2-2.5,1C724.3,41.3,724.6,41.1,724.4,41z"/>
		</g>
		<g transform="matrix(3.125,0,0,3.125,-1662.68,1085.13)">
			<path class="st0" d="M765.3,169.2C766.8,168.9,766.1,169.2,765.3,169.2z"/>
		</g>
		<g transform="matrix(3.125,0,0,3.125,-1662.68,1085.13)">
			<path class="st0" d="M727,40.7c-0.8,0.3-1.3,0.5-1.7,0.7c-0.5,0.2-0.9,0.4-1.6,0.8c-0.3,0.1-1,0.3-2.2,1c0.5-0.4,1.5-1,2.1-1.3
				C724.8,41.3,726.8,40.6,727,40.7z"/>
		</g>
		<g transform="matrix(3.125,0,0,3.125,-1662.68,1085.13)">
			<path class="st0" d="M770,167.6C770.5,167.5,769.2,167.7,770,167.6z"/>
		</g>
		<g transform="matrix(3.125,0,0,3.125,-1662.68,1085.13)">
			<path class="st0" d="M723.6,42.2C723.8,42.2,722.1,43,723.6,42.2z"/>
		</g>
		<g transform="matrix(3.125,0,0,3.125,-1662.68,1085.13)">
			<path class="st0" d="M721.5,43.4C720.2,44,720.8,43.6,721.5,43.4z"/>
		</g>
		<g transform="matrix(3.125,0,0,3.125,-1662.68,1085.13)">
			<path class="st0" d="M721.5,43.4c1.5-0.8,2.4-1.1,3.3-1.5c-0.2,0.4-1.9,1.4-2.9,2.2c-1.4,0.6-0.8,0.2-0.1-0.3s1.6-1.1,0.9-0.9
				c-1.3,0.6-1.4,0.8-1.6,1c-0.3,0.2-0.7,0.5-2.5,1.5C719.4,44.8,720,44.3,721.5,43.4z"/>
		</g>
		<g transform="matrix(3.125,0,0,3.125,-1662.68,1085.13)">
			<path class="st0" d="M774.4,165.4C775.7,164.9,775.1,165.3,774.4,165.4z"/>
		</g>
		<g transform="matrix(3.125,0,0,3.125,-1662.68,1085.13)">
			<path class="st0" d="M774.4,165.4c-0.8,0.3-1.5,0.5-2.3,0.7c0.2-0.1-0.5,0.1-1.2,0.3c0-0.1,0.9-0.3,1.1-0.5
				c0.8-0.2,1-0.3,1.3-0.3C773.5,165.6,773.7,165.5,774.4,165.4L774.4,165.4z"/>
		</g>
		<g transform="matrix(3.125,0,0,3.125,-1662.68,1085.13)">
			<path class="st0" d="M778.5,163C779,162.8,777.8,163.2,778.5,163z"/>
		</g>
		<g transform="matrix(3.125,0,0,3.125,-1662.68,1085.13)">
			<path class="st0" d="M786,154.8c-0.5,0.5-0.8,0.6-0.8,0.5C785.2,155.3,785.4,155,786,154.8z"/>
		</g>
		<g transform="matrix(3.125,0,0,3.125,-1662.68,1085.13)">
			<path class="st0" d="M763.2,157.4c-0.7,0.3-1.3,0.3-1.5,0.2C761.6,157.5,761.9,157.4,763.2,157.4z"/>
		</g>
		<g transform="matrix(3.125,0,0,3.125,-1662.68,1085.13)">
			<path class="st0" d="M772,155C771.9,155,773.4,154.5,772,155z"/>
		</g>
		<g transform="matrix(3.125,0,0,3.125,-1662.68,1085.13)">
			<path class="st0" d="M788.6,145.6C789,145.3,788.1,145.9,788.6,145.6z"/>
		</g>
		<g transform="matrix(3.125,0,0,3.125,-1662.68,1085.13)">
			<path class="st0" d="M760.6,153.5C761,153.5,759.9,153.5,760.6,153.5z"/>
		</g>
		<g transform="matrix(3.125,0,0,3.125,-1662.68,1085.13)">
			<path class="st0" d="M761,150.4C760.9,150.3,762.3,150.1,761,150.4z"/>
		</g>
		<g transform="matrix(3.125,0,0,3.125,-1662.68,1085.13)">
			<path class="st0" d="M747.7,150.7c-0.5-0.1-1-0.1-0.9-0.2C747.4,150.6,747.9,150.6,747.7,150.7z"/>
		</g>
		<g transform="matrix(3.125,0,0,3.125,-1662.68,1085.13)">
			<path class="st0" d="M706.5,119.3c-0.7-2,0.1-0.3,0.3-0.1C707.6,121.2,706.6,119.5,706.5,119.3z"/>
		</g>
		<g transform="matrix(3.125,0,0,3.125,-1662.68,1085.13)">
			<path class="st0" d="M720.7,138.9c-0.2,0-1.3-1-2-1.7C718.8,137.2,719.9,138.2,720.7,138.9z"/>
		</g>
		<g transform="matrix(3.125,0,0,3.125,-1662.68,1085.13)">
			<path class="st0" d="M704.4,110.9c0.2-0.1,0.6,0.4,1.1,1.1s1,1.7,1.4,2.7c-0.4-0.4-0.8-0.6-1.2-1
				C705.3,113.2,704.9,112.5,704.4,110.9z"/>
		</g>
		<g transform="matrix(3.125,0,0,3.125,-1662.68,1085.13)">
			<path class="st0" d="M704.4,108.3c-0.1,0.5-0.2-0.2-0.3-0.6C704.2,107.2,704.3,107,704.4,108.3z"/>
		</g>
		<g transform="matrix(3.125,0,0,3.125,-1662.68,1085.13)">
			<path class="st0" d="M704.2,105.7C704.2,106.1,704.2,105.2,704.2,105.7z"/>
		</g>
		<g transform="matrix(3.125,0,0,3.125,-1662.68,1085.13)">
			<path class="st0" d="M704.4,108.3c0.2,0.5,0.3,0.4,0.4,0.5c0.1,0.1,0.3,0.5,0.5,1.9c-0.2-0.7-0.3-0.8-0.5-0.9
				C704.8,109.7,704.6,109.5,704.4,108.3z"/>
		</g>
		<g transform="matrix(3.125,0,0,3.125,-1662.68,1085.13)">
			<path class="st0" d="M704.6,102.3c0.3-0.5,0.3,0.1,0.3,0.6C704.8,103.3,704.7,103.6,704.6,102.3z"/>
		</g>
		<g transform="matrix(3.125,0,0,3.125,-1662.68,1085.13)">
			<path class="st0" d="M705.6,110.7C705.1,109.8,705.7,109.7,705.6,110.7z"/>
		</g>
		<g transform="matrix(3.125,0,0,3.125,-1662.68,1085.13)">
			<path class="st0" d="M706.2,111.4c-0.2-0.9-0.2-1.3-0.2-1.5s0.1-0.2,0.1-0.2C706.2,110.4,706.2,110.5,706.2,111.4L706.2,111.4z"
				/>
		</g>
		<g transform="matrix(3.125,0,0,3.125,-1662.68,1085.13)">
			<path class="st0" d="M706,104.8C706,105.8,705.9,105.3,706,104.8z"/>
		</g>
		<g transform="matrix(3.125,0,0,3.125,-1662.68,1085.13)">
			<path class="st0" d="M706.3,107.2c0.1,1.2,0,1-0.1,0.6C706.2,107.5,706.1,106.9,706.3,107.2z"/>
		</g>
		<g transform="matrix(3.125,0,0,3.125,-1662.68,1085.13)">
			<path class="st0" d="M707.2,95.8c-0.1,0,0.1-1,0.2-1.6C707.4,94.3,707.2,95.2,707.2,95.8z"/>
		</g>
		<g transform="matrix(3.125,0,0,3.125,-1662.68,1085.13)">
			<path class="st0" d="M707.3,95.9C707.2,96.2,707.4,95.4,707.3,95.9z"/>
		</g>
		<g transform="matrix(3.125,0,0,3.125,-1662.68,1085.13)">
			<path class="st0" d="M711.5,82.8c0.4-0.3,0.1,0.3-0.1,0.6C711.1,83.8,710.9,84,711.5,82.8z"/>
		</g>
		<g transform="matrix(3.125,0,0,3.125,-1662.68,1085.13)">
			<path class="st0" d="M710.8,85.2C710.7,85.5,711.1,84.8,710.8,85.2z"/>
		</g>
		<g transform="matrix(3.125,0,0,3.125,-1662.68,1085.13)">
			<path class="st0" d="M712.8,85.3C712.9,84.3,713.5,84.6,712.8,85.3z"/>
		</g>
		<g transform="matrix(3.125,0,0,3.125,-1662.68,1085.13)">
			<path class="st0" d="M713.2,85.4C713,85.7,713.4,85,713.2,85.4z"/>
		</g>
		<g transform="matrix(3.125,0,0,3.125,-1662.68,1085.13)">
			<path class="st0" d="M714,84.2C713.6,85,713.7,84.5,714,84.2z"/>
		</g>
	</g>
	<g transform="matrix(1.18885,0,0,1.18885,513.68,14.2694)">
		<path class="st0" d="M-112.2,157.3c5.7,4,2.4,11.4-1.6,15.3c-3.6,3.4-11.4,4.7-12,10.5c-0.4,4,2.5,8.2,4.1,11.6
			c3.2,6.8,7.8,15.4,8.4,23c0.7,8.4-4.1,18-11.1,22.7c-5.5,3.7-12.7,5.2-17.7,9.5c-6.3,5.6-6,19,2.9,22c5,1.7,13-1,18.1-2.1
			c5-1.2,7.8,1.5,5.5,7.1c-3.7,9.1-12.3,8.2-20.1,7.4c-7.3-0.8-11.1,4-9.6,10.9c1.2,5.3,3.2,9.4-3.2,11.7c-1.9,0.7-4,1.1-6,1.5
			c-0.2-9.9-2.2-20.9-13.3-23.5c-4.3-1-8.9-0.7-13.1-2.2c-4-1.4-10-6.3-6.2-10.8c4.3-5,14.5-2,19.9-1c4.8,0.9,5.2,0,5-5
			c-0.2-4.5-0.7-8.3-3.5-12c-16.8-22.6-51.8-43.1-9-68.9c-4.3-11.1-29-9.3-25-24c21.5,6.2,47.7,17.7,69.9,8.5
			C-123.1,166.7-117.6,161.9-112.2,157.3z M-160.2,184.9c-4.9,1-9.6,3.1-13.5,6.4c-6.5,5.5-9.1,14.5-8.7,22.8
			c0.7,14.2,13.3,30.3,28.3,31.2c9.3,0.5,20.1-6.6,25.9-13.5c7.4-8.8,7.5-22.5,2.2-32.3C-132.5,187.4-147.1,182.2-160.2,184.9z"/>
	</g>
</g>
</svg>
