<?xml version="1.0" encoding="UTF-8" standalone="no"?>
<!DOCTYPE svg PUBLIC "-//W3C//DTD SVG 1.1//EN" "http://www.w3.org/Graphics/SVG/1.1/DTD/svg11.dtd">
<svg width="100%" height="100%" viewBox="0 0 1080 1080" version="1.1" xmlns="http://www.w3.org/2000/svg" xmlnsXlink="http://www.w3.org/1999/xlink" xml:space="preserve" xmlnsSerif="http://www.serif.com/" style="fill-rule:evenodd;clip-rule:evenodd;stroke-linejoin:round;stroke-miterlimit:2;">
    <g transform="matrix(-1,0,0,1,1043.84,0)">
        <g id="Right-nav-light" serifId="Right nav light">
            <g transform="matrix(1,0,0,1,-25.5351,-25.309)">
                <rect x="90.127" y="540" width="950.816" height="50.618" style="fillRgb(235,235,235);"/>
            </g>
            <g transform="matrix(6.12323e-17,-1,1,6.12323e-17,-25.309,1105.54)">
                <rect x="90.127" y="540" width="950.816" height="50.618" style="fillRgb(235,235,235);"/>
            </g>
            <g transform="matrix(1,0,0,1,-36.1628,-28.4783)">
                <path d="M142.962,491.354L221.332,568.478L142.962,645.603L64.592,568.478L142.962,491.354Z" style="fillRgb(235,235,235);"/>
            </g>
            <g transform="matrix(1,0,0,1,397.038,-461.009)">
                <path d="M142.962,491.354L221.332,568.478L142.962,645.603L64.592,568.478L142.962,491.354Z" style="fillRgb(235,235,235);"/>
            </g>
            <g transform="matrix(1,0,0,1,397.038,403.397)">
                <path d="M142.962,491.354L221.332,568.478L142.962,645.603L64.592,568.478L142.962,491.354Z" style="fillRgb(235,235,235);"/>
            </g>
        </g>
    </g>
</svg>
