<?xml version="1.0" encoding="utf-8"?>
<!-- Generator: Adobe Illustrator 26.0.0, SVG Export Plug-In . SVG Version: 6.00 Build 0)  -->
<svg version="1.1" id="Layer_1" xmlnsSerif="http://www.serif.com/"
	 xmlns="http://www.w3.org/2000/svg" xmlnsXlink="http://www.w3.org/1999/xlink" x="0px" y="0px" viewBox="0 0 595.3 841.9"
	 style="enable-background:new 0 0 595.3 841.9;" xml:space="preserve">
<style type="text/css">
	.st0{fill-rule:evenodd;clip-rule:evenodd;fill:#FFD700;}
</style>
<g id="Sol">
	<g transform="matrix(1.08591,0,0,1.08591,-437.715,-1248.27)">
		<g transform="matrix(3.125,0,0,3.125,-1662.68,1085.13)">
			<path class="st0" d="M716.9,121.2c-0.1-0.1,0.4-0.8,0.7-1.4C717.6,119.9,717.2,120.7,716.9,121.2z M716.4,120.9
				c0.6-0.9,1.1-1.4,0.7-0.5C716.3,121.9,716.7,120.6,716.4,120.9z M715.8,120.6C715.6,120.9,716.1,120.2,715.8,120.6z M713.6,120.3
				C713.4,120.6,713.9,119.9,713.6,120.3z M720.9,175.9C721.1,176.1,720.5,175.4,720.9,175.9z M754.5,189.5c0.1-0.1,1-0.1,1.5-0.1
				c0.2,0,0.3,0,0.1,0.1C755.9,189.5,755.5,189.5,754.5,189.5C754.6,189.6,753.2,189.5,754.5,189.5z M757.2,189.6
				c0,0.1-1.1,0.1-1.8,0.1C755.5,189.6,756.5,189.6,757.2,189.6z M706.7,152.1c0.3,0.8,0.7,2.2,1,3.4c-0.1-0.1-0.3-0.6-0.5-1.3
				C707,153.5,706.8,152.7,706.7,152.1z M746.5,189.1C746.9,189.2,745.9,188.9,746.5,189.1z M759.9,189.8c-1.3,0.2-2,0.1-2,0
				c0-0.1,0.6-0.2,2-0.3L759.9,189.8z M729.6,183.5c-1.2-0.6-1.7-1-1.6-1.1c0-0.1,0.6,0.2,1.7,0.9L729.6,183.5z M760,190.3
				c-1.3,0.2-2,0.1-2,0c0-0.1,0.7-0.2,2-0.3L760,190.3z M709.1,119c0.7-0.6,1.2-0.6,1.5-0.4c0.3,0.3,0.5,0.9,0.6,1.4
				c-0.5,0.7-0.9,1.1-1.1,1.2c-0.2,0.1-0.4-0.1-0.5-0.3C709.5,120.3,709.5,119.3,709.1,119z M712.3,169.1
				C711.8,168.8,713.1,169.5,712.3,169.1z M709.4,117c0.5-0.9,0.8-1.3,1-1.4c0.2-0.2,0.2-0.1,0.3,0c-0.8,1.4-1.2,2.1-1.4,2.2
				C709,118,709.1,117.7,709.4,117z M707.7,120.3c-0.1-0.1,0.4-1,0.7-1.7C708.5,118.7,708,119.6,707.7,120.3z M760.1,192
				C760.5,192,759.5,192,760.1,192z M709.6,116.1C709.9,115,710.4,115.3,709.6,116.1z M709.4,114.9c0.6-1.3,1-1.6,1.1-1.5
				c0.1,0.1,0,0.6-0.2,1c-0.5,0.7-0.6,1-0.7,0.9c0,0,0-0.3,0.1-0.5C709.9,114.2,710.2,113.6,709.4,114.9z M784.3,97.7
				C784,97.5,784.8,98.1,784.3,97.7z M731.9,189.1C730.8,188.9,731,188.4,731.9,189.1z M716.6,103.4c0.7-0.7,1.2-1.1,1.4-1.2
				c0.3-0.2,0.4-0.1,0.3,0c-0.2,0.3-0.9,1.2-2,2.3C717.1,103.5,716.7,103.6,716.6,103.4z M729.9,188.9c-0.8-0.3-1.4-0.6-1.6-0.9
				c-0.2-0.2,0-0.2,0.9,0.2c0.8,0.4,1,0.6,1,0.6c0,0-0.3-0.1-0.5-0.2C729.1,188.4,728.5,188.2,729.9,188.9z M718.4,101.1
				c1.9-1.5-0.4,0.7-2,2.2C716.5,103,717.7,101.8,718.4,101.1z M728.3,189.7c-0.8-0.5-1.1-0.7-1-0.8c0-0.1,0.3,0,0.6,0.1
				c0.6,0.2,1.3,0.4-0.1-0.5c1.7,0.9,2.3,1.2,2.2,1.4C729.9,190.1,729.1,190,728.3,189.7z M789.6,185.5
				C789.9,185.3,789,185.9,789.6,185.5z M781,190.9c-1.3,0.8-2.1,1.1-2.2,1.1C778.7,191.9,779.4,191.5,781,190.9z M783.7,189.5
				c-0.8,0.5-1,0.5-1.3,0.5c-0.2,0.1-0.5,0.1-1.5,0.7c0.1-0.1,0.7-0.4,1.4-0.8c0.7-0.4,1.5-0.8,2.2-1.2
				C784.6,188.8,783.4,189.5,783.7,189.5z M770.6,195C771,194.9,769.9,195.1,770.6,195z M783.7,189.6
				C784.1,189.4,783.1,189.9,783.7,189.6z M790.7,185.3C791,185,790.1,185.6,790.7,185.3z M781.3,191.5
				C781.7,191.3,780.6,191.7,781.3,191.5z M773.9,195.3c-0.5,0.3-0.8,0.3-0.9,0.3C773,195.5,773.3,195.3,773.9,195.3z M783.6,191.4
				c0,0.1-1.1,0.7-1.8,1C781.7,192.4,782.9,191.8,783.6,191.4z M775,195.3c0,0.1-1.2,0.5-2,0.7C773,195.9,774.2,195.6,775,195.3z
				 M755.5,202c1.1-0.1,0.8-0.2,0.9-0.4c0-0.1,0.1-0.1,0.4-0.2c0.3-0.1,0.9-0.1,2-0.2c-1.4,0.2-0.7,0.3-0.4,0.4
				c0.2,0.1,0.2,0.1-0.2,0.2C757.8,201.9,757,202,755.5,202z M705.3,104.6c0-0.1,0.8-1.1,1.3-1.8
				C706.6,102.9,705.8,103.9,705.3,104.6z M755.5,202.6c-0.9,0-1.2,0-1.2,0c0,0,0.4,0,0.8-0.1C755.9,202.5,756.8,202.5,755.5,202.6z
				 M706.2,102.5C705.9,102.8,706.7,101.9,706.2,102.5z M706.6,101.3c0-0.1,0.9-1.1,1.4-1.7C708.1,99.6,707.1,100.6,706.6,101.3z
				 M754.3,203.7c-1.5-0.1-1.8-0.2-1.6-0.3c0.1-0.1,0.6-0.2,0.5-0.3c1.8,0.1,2.2,0.2,2.1,0.3C755.2,203.4,754.5,203.5,754.3,203.7z
				 M693.1,155.3C693.2,155.8,693,154.6,693.1,155.3z M707.9,99.4c0.5-0.3-0.1,0.3-0.5,0.7C707,100.5,706.7,100.7,707.9,99.4
				c-0.5,0.3,0.1-0.3,0.5-0.7C708.8,98.3,709,98.2,707.9,99.4z M712.6,94.5c0-0.1,1-1,1.7-1.5C714.4,93.1,713.3,93.9,712.6,94.5z
				 M713.4,93.6C714.2,92.5,714.6,93,713.4,93.6z M744.1,203.3C744.5,203.4,743.3,203.2,744.1,203.3z M768,203c-0.6,0.3-1,0.3-1,0.2
				C767,203.1,767.3,203,768,203z M708.8,97.1c1.4-1.4,1.8-1.7,1.8-1.6c0,0.1-0.5,0.7-0.8,1C708.7,97.6,709,97.1,708.8,97.1z
				 M749.7,204.5c-1-0.2-1.1-0.3-0.9-0.3c0.3,0,0.9,0,1.5,0.1c0.6,0,1.2,0.1,1.2,0.1C751.7,204.5,751.2,204.5,749.7,204.5z
				 M717.5,89.6C718.4,88.6,718.8,89.1,717.5,89.6z M760.1,205.1C758.9,205.4,759.5,205.2,760.1,205.1
				C760.7,204.9,761.3,204.8,760.1,205.1z M710.7,94.1c1.2-0.9,1-0.5,0.3,0.3c-1,0.9-1.2,0.9-1.1,0.7C710,95,710.4,94.4,710.7,94.1z
				 M718,88.2c1.3-0.9,2.1-1.4,2.6-1.6c0.5-0.2,0.6-0.2,0.5,0c-0.7,0.4-1.7,1-2.4,1.4C718,88.4,717.6,88.6,718,88.2z M720.7,85.9
				c1.3-0.7,2-1,1.7-0.7c-0.2,0.2-1.4,0.9-3.5,2.3c0.2-0.2,0.7-0.6,1.1-0.9C720.5,86.3,720.8,86,720.7,85.9z M743.7,205.4
				c-0.6-0.3,0.3-0.2,0.9,0c0.3,0.1,0.5,0.1,0.4,0.2C745,205.5,744.6,205.5,743.7,205.4c0.6,0.3-0.3,0.2-0.9,0
				c-0.3-0.1-0.5-0.2-0.4-0.2C742.5,205.2,742.8,205.2,743.7,205.4z M712.3,192c-1.2-1.1-0.1-0.5,0.3-0.4c0.8,0.7,1.3,1.1,1.5,1.3
				c0.2,0.2,0.1,0.2-0.1,0.1C713.6,192.9,712.7,192.3,712.3,192z M740,205.6C740.5,205.7,739.3,205.3,740,205.6z M712.2,192.1
				c-0.1,0-1.2-0.9-1.9-1.5C710.4,190.6,711.5,191.5,712.2,192.1z M688,138.3c0.1-1,0.2-1.2,0.2-1c0,0.1,0,0.7,0,1.2
				c0,0.5-0.1,1-0.1,1.1C688,139.6,688,139.3,688,138.3c-0.2,0.6-0.2-0.3-0.1-0.9c0-0.3,0.1-0.5,0.1-0.5
				C688,137,688,137.3,688,138.3z M767.5,206.7c0,0.1-1.4,0.3-2.4,0.5C765.2,207.1,766.6,206.9,767.5,206.7z M687.3,135.8
				c0.1-0.8,0.2-1.3,0.2-1.8c0.1-0.5,0.2-1,0.3-1.8c0.1,0.3-0.1,1.4-0.2,2.4C687.5,135.5,687.4,136.3,687.3,135.8z M736.3,205.5
				C736.8,205.6,735.6,205.2,736.3,205.5z M687.2,134.5c0.1-0.8,0.2-1.6,0.3-2.4l0.2,0c-0.1,0.8-0.2,1.6-0.3,2.4L687.2,134.5z
				 M735.1,205.3C733.7,205.2,733.8,204.6,735.1,205.3z M707.8,189.8c-0.6-0.4-0.8-0.7-0.8-0.7C707,189,707.4,189.2,707.8,189.8z
				 M687.7,128.4c0.1-0.2,0.1,0.3,0,1.1c-0.1,0.9-0.3,2.2-0.5,3.7c-0.1,0.2-0.1-0.3-0.1-1.1C687.2,131.3,687.4,130,687.7,128.4z
				 M760.4,208.6c-1.3,0.1-1.9,0.1-2.2,0.1c-0.3,0-0.2-0.1-0.3-0.2c1,0,1.2,0,2.4-0.1L760.4,208.6z M739.7,75.5
				C739.2,75.6,740.5,75.3,739.7,75.5z M750.6,208.6c0,0.1-1.5,0-2.5-0.1C748.2,208.4,749.7,208.6,750.6,208.6z M762.8,208.3
				C763.4,208.3,762,208.4,762.8,208.3z M806.1,95.3C805.8,94.9,806.6,95.9,806.1,95.3z M823.6,128.9c0.2,1.3,0.1,1.4,0,0.8
				c-0.2-0.6-0.5-1.8-0.8-3.2C823.1,127.1,823.4,128.3,823.6,128.9z M702.8,186.1C702.1,185.8,703.8,186.6,702.8,186.1z
				 M755.5,209.8c-1.1-0.1-1.4-0.1-1.4-0.2c0.1,0,0.5-0.1,1-0.1C756.1,209.6,757.2,209.6,755.5,209.8z M823,123.9
				C822.8,123.4,823.1,124.7,823,123.9z M750.5,210.4c-1.6,0-2-0.1-1.9-0.1C748.8,210.2,749.6,210.2,750.5,210.4z M687.2,121.9
				c0.5-0.6,0.3,0.3,0,0.9c-0.1,0.3-0.2,0.6-0.3,0.5C686.9,123.2,686.9,122.8,687.2,121.9c-0.3,0.5-0.1-0.4,0.2-1
				c0.1-0.3,0.2-0.5,0.2-0.4C687.5,120.6,687.4,121,687.2,121.9z M739.2,209.1C737.4,208.8,738.3,209,739.2,209.1
				C740.1,209.3,741,209.4,739.2,209.1z M695.5,179C695.7,178.6,698.3,183.1,695.5,179C695.5,179.2,694.5,177.5,695.5,179z
				 M689.5,114.6c0.3-1.4,1.6-3.3,1.2-2.2c-0.5,1-0.7,1.5-0.8,1.7c-0.1,0.2-0.1,0.1-0.1,0C689.9,113.9,690,113.4,689.5,114.6z
				 M734.2,208.2C734.7,208.4,733.5,207.9,734.2,208.2z M739.1,209.6l-3.7-1c0-0.2,0.7,0,1.9,0.3c1.2,0.3,2.8,0.7,4.3,1
				c-0.4,0-1.1-0.2-1.7-0.3C739.4,209.5,739,209.4,739.1,209.6z M753,71.2c0.7-0.2,1.1-0.1,1.1,0C754.1,71.3,753.7,71.3,753,71.2z
				 M694.3,178.3c-0.5-0.5-1.1-1.7-1.3-2.2c-0.1-0.2-0.1-0.3,0.2,0c0.2,0.3,0.6,0.9,1.3,2.1C693.9,177.6,693.5,177,694.3,178.3z
				 M695.7,180.4C695.9,180.9,695.2,179.7,695.7,180.4z M687.7,165.8c-0.1,0-0.6-1.5-0.9-2.4C686.8,163.4,687.3,164.9,687.7,165.8z
				 M693.3,177.4c-0.1,0-0.9-1.3-1.4-2.2C692,175.2,692.8,176.5,693.3,177.4z M688,115.4c0.5-1.2,0.8-1.5,0.8-1.3
				c0.1,0.2-0.1,0.9-0.3,1.5c-0.4,0.9-0.6,1.3-0.7,1.4c-0.1,0.1-0.1-0.1,0-0.4C687.9,116,688.2,115.1,688,115.4z M703.4,190.7
				C703.8,191.1,702.9,190,703.4,190.7z M756.8,70.3C756.3,70.2,757.7,70.3,756.8,70.3z M688.6,112.9c0.4-0.9,0.6-1.2,0.7-1.3
				c0.1-0.1,0,0.2-0.1,0.5c-0.2,0.6-0.6,1.5-0.2,1c-0.6,1.5-0.7,1.5-0.7,1.2C688.3,113.8,688.6,113,688.6,112.9z M690.2,173.2
				c-0.5-0.6-0.6-1-0.5-1C689.8,172.1,690,172.5,690.2,173.2z M735.1,209.9C735,209.8,736.9,210.4,735.1,209.9
				c-0.2,0.1-1.4-0.3-2-0.5c-0.3-0.1-0.4-0.2-0.2-0.1C733.1,209.3,733.8,209.5,735.1,209.9z M740.1,211.2c-1-0.1-1.7-0.3-1.9-0.4
				C738.1,210.7,738.5,210.8,740.1,211.2z M721.7,204.9C722.2,205.2,721,204.5,721.7,204.9z M685.3,162.5
				C685.4,163.1,685.1,161.7,685.3,162.5z M727.5,207.8C728,208.1,726.8,207.5,727.5,207.8z M737.4,211.3
				C736.5,211.3,740.1,211.2,737.4,211.3z M701.5,190.7c-0.7-0.7-0.9-1-0.9-1.1c0-0.1,0.2,0.1,0.5,0.4c0.5,0.5,1.2,1.1,0.7,0.4
				c0.8,0.8,1.2,1.3,1.5,1.6c0.2,0.3,0.2,0.3,0,0.2C702.9,192,702,191.3,701.5,190.7z M720.2,205l0.1-0.3c1.1,0.6,2,1,2.5,1.3
				c0.5,0.3,0.7,0.4,0.6,0.4C723.3,206.4,722.1,206,720.2,205z M683.7,158.9c-0.3-1.3-0.3-1.7-0.5-2.2c-0.1-0.5-0.3-1.2-0.6-2.9
				c0.3,1.4,0.5,1.5,0.7,2c0.1,0.3,0.2,0.6,0.4,1.3c0.2,0.7,0.4,1.6,0.8,3.1C683.7,157.8,684.4,160.7,683.7,158.9z M686.5,167.7
				c-0.4-0.7-0.5-1-0.4-1.1C686.2,166.6,686.4,166.9,686.5,167.7z M695.2,184c-0.5-0.7-1-1.4-1.5-2.2l0.1-0.1c0.5,0.7,1,1.4,1.5,2.2
				L695.2,184z M681.8,152.5c-0.2-1.6-0.2-1.7-0.1-1.4c0.1,0.4,0.3,1.2,0.4,1.3c0.3,1.6,0.2,1.7,0.1,1.4
				C682,153.5,681.8,152.7,681.8,152.5z M719.9,205.6c-1.7-0.9-2.5-1.4-2.5-1.5c0-0.1,0.9,0.3,2.6,1.3L719.9,205.6z M696.6,96.2
				c0.3,0,0,0.9-0.8,2.5c-0.8,1.6-1.9,3.7-3.1,6c-0.1-0.4,0.5-1.8,1.3-3.5C694.7,99.6,695.8,97.7,696.6,96.2z M686.5,169.1
				c-0.1-0.1-0.4-0.7-0.6-1.3c-0.2-0.6-0.4-1.1-0.4-1.2C685.8,167.2,685.9,167.7,686.5,169.1z M683,159.1
				C683.1,159.6,682.9,158.2,683,159.1z M725.8,208.5c-0.8-0.3-1.6-0.7-2.4-1.1l0.1-0.1c0.8,0.4,1.6,0.7,2.4,1.1L725.8,208.5z
				 M718.7,205.1c-0.7-0.2-1-0.5-1-0.6C717.7,204.4,718.1,204.6,718.7,205.1z M730.8,210.5c-1.5-0.5-1.6-0.7-1.3-0.7
				c0.3,0,1.1,0.2,1.4,0.3c1.5,0.5,1.6,0.6,1.3,0.6C731.9,210.8,731.1,210.6,730.8,210.5z M686.9,170.4c0-0.3,0.8,1.3,0.8,1.1
				c0.5,1.1,0.7,1.6,0.5,1.5C688.1,172.9,687.6,172.1,686.9,170.4c0.1,0.6-0.3-0.3-0.5-0.9c-0.1-0.3-0.2-0.5-0.1-0.5
				C686.3,169.1,686.5,169.5,686.9,170.4z M702.7,193.3c-0.7-0.4-0.9-0.8-0.8-0.8C701.9,192.4,702.2,192.6,702.7,193.3z
				 M681.1,149.9C681.1,150.5,681,149,681.1,149.9z M684.2,164.3c-0.5-1.7-0.5-2.5-0.3-2.2c0.1,0.1,0.3,0.6,0.6,1.3
				c0.3,0.7,0.7,1.8,1.2,3.2c-0.6-1.1-0.8-1.5-0.9-1.6C684.6,164.8,684.6,164.8,684.2,164.3z M694,183.2c-0.1,0-1-1.3-1.6-2.2
				C692.5,181,693.4,182.4,694,183.2z M716.3,203.9C716.7,204.2,715.5,203.4,716.3,203.9z M729.5,210.2
				C730,210.4,728.7,209.9,729.5,210.2z M715,203.4C715.5,203.7,714.3,202.9,715,203.4z M720.9,206.6c-0.8-0.2-1.1-0.5-1-0.5
				C719.9,206,720.2,206.2,720.9,206.6z M717.2,205c-1-0.7-1.3-0.9-1.2-0.9c0.1,0,0.6,0.3,1,0.6c0.5,0.3,1,0.6,1.1,0.7
				C718.3,205.5,718.1,205.5,717.2,205z M682.2,159.3c-0.4-1.4-0.5-2.2-0.5-2.5c0-0.3,0-0.1,0.2,0.2c0.2,0.7,0.7,2.1,0.8,2.2
				c0.2,1.2,0.5,2.3,0.7,2.6c0.3,1.3,0.4,1.6,0.3,1.4c-0.1-0.2-0.3-1-0.6-1.8C682.5,159.7,682,157.7,682.2,159.3z M726.7,209.8
				c-1.3-0.5-2-0.8-2.2-1c-0.2-0.1-0.1-0.1,0.3,0c0.7,0.2,2.1,0.6,2.1,0.6C730.4,210.8,726.5,209.6,726.7,209.8z M680.4,150
				C680.4,150.6,680.4,149.1,680.4,150z M717.1,205.1c-0.2,0-0.8-0.4-1.3-0.7c-0.5-0.3-1-0.7-1-0.7
				C715.4,204,715.8,204.4,717.1,205.1z M724.2,208.9C724.7,209.2,723.4,208.5,724.2,208.9z M691.7,181.6c-1.1-1.6-1.5-2.5-1.5-2.6
				c0.1,0,0.6,0.8,1.7,2.4L691.7,181.6z M727.9,210.5c-0.1,0.1-1.6-0.5-2.5-0.9C725.4,209.5,726.9,210.2,727.9,210.5z M696.4,188.1
				C695.1,186.7,695.7,187.4,696.4,188.1l0.8,0.8C697.2,189,697.1,188.8,696.4,188.1z M709,200.3c0.8,0.5,1.1,0.4,1.7,0.7
				c0.3,0.1,0.7,0.4,1.4,0.8c0.7,0.4,1.6,1,2.9,1.8c-1.4-0.8-1.6-0.7-2.1-0.9c-0.2-0.1-0.5-0.2-1.1-0.5
				C711.1,201.8,710.3,201.3,709,200.3z M719.3,206.7c1.2,0.7,1.5,0.9,2,1.1l2.8,1.3c0.3,0.2-1.3-0.4-2.7-1.1
				C720,207.3,718.7,206.5,719.3,206.7z M722.8,208.7c-0.1,0.1-1.5-0.6-2.5-1.1C720.4,207.5,721.9,208.3,722.8,208.7z M693.7,185.1
				c0.4,0.4,1.1,1.3,2.6,3.1C696.6,188.8,694.9,186.8,693.7,185.1z M686.6,173.5C685.9,173,687.5,174.4,686.6,173.5z M708.8,200.5
				c-0.7-0.4-1-0.7-0.9-0.7C707.9,199.8,708.3,200,708.8,200.5z M721.5,208.3C722,208.6,720.7,207.9,721.5,208.3z M715.5,205.2
				c-1.1-0.7-2.4-1.6-3.4-2.3c-1.1-0.8-1.9-1.4-2-1.7c1.1,0.9,1.9,1.4,2.5,1.8c0.6,0.4,1.1,0.7,1.6,0.9c0.5,0.2,0.9,0.5,1.5,0.8
				c0.6,0.3,1.3,0.8,2.4,1.4c-1.1-0.5-2.2-1.2-2.8-1.4C714.7,204.5,714.6,204.5,715.5,205.2z M719.1,207.2
				C719.5,207.5,718.3,206.7,719.1,207.2z M730.2,70.4c0-0.1,1.5-0.6,2.6-0.9C732.8,69.6,731.2,70.1,730.2,70.4z M707.7,199.8
				C708.1,200.2,707,199.2,707.7,199.8z M715.4,205.4C715.9,205.7,714.7,204.9,715.4,205.4z M685.1,171.2c-0.1-0.1-0.4-0.6-0.7-1.4
				c-0.3-0.7-0.7-1.6-1-2.4c0.1,0.1,0.3,0.7,0.6,1.4C684.4,169.6,684.7,170.5,685.1,171.2z M678.6,139.2c0.1-1.1,0.2-0.9,0.2-0.1
				c0.1,0.9,0.1,2.4,0.2,4.2l0.1,0c0-1,0-1.4,0.1-1.4c0,0.1,0.1,0.5,0.1,1.2c0.1,1.3,0.2,3.4,0.2,4.2c-0.1,0-0.2-0.9-0.2-1.9
				c-0.1-1-0.1-2-0.2-2.1c0,1.2,0.1,2,0.1,2.1c0,0.1-0.1-0.4-0.1-2.1c-0.1-0.1-0.2-0.1-0.3-0.7C678.6,142.1,678.5,141.1,678.6,139.2
				z M704.2,197.6c0.6,0.5,0.7,0.5,1,0.7c0.3,0.2,0.8,0.6,2.3,1.8c0,0.1-0.2,0-0.8-0.4C706.2,199.2,705.3,198.6,704.2,197.6z
				 M692.2,184.5c-0.5-0.7-1-1.5-1.5-2.3l0.1-0.1c0.5,0.8,1,1.5,1.5,2.3L692.2,184.5z M714,205c-0.8-0.3-1-0.6-1-0.6
				C713,204.3,713.4,204.5,714,205z M707.2,200.4C707.7,200.8,706.5,199.8,707.2,200.4z M678,135c-0.1,0,0.1-1.7,0.2-2.8
				C678.3,132.3,678.1,133.9,678,135z M702.6,197.3c-1-0.8-1.5-1.4-1.7-1.7c-0.2-0.3-0.1-0.3,0.2-0.1c0.6,0.4,2.1,1.7,3.9,3.3
				c-0.3-0.1-0.9-0.6-1.4-1C703.1,197.5,702.6,197.1,702.6,197.3z M685.2,174.2c-0.7-1.4-1-2.2-1.1-2.6c-0.1-0.3,0-0.2,0.2,0
				c0.4,0.6,1.2,2,1.4,2.3c0.4,0.9,0.6,1.3,0.6,1.4c0,0.1-0.2-0.2-0.4-0.5C685.4,174.2,684.9,173.3,685.2,174.2z M707.9,201.7
				c-0.2-0.1-0.7-0.5-1.2-0.9c-0.5-0.4-1-0.8-0.9-0.8C706.3,200.3,706.7,200.8,707.9,201.7z M710.1,203.4c-1-0.7-1.4-1.2-1.2-1.1
				c0.2,0,1,0.5,2.5,1.7C711.5,204.1,710,203.1,710.1,203.4z M693.1,187.2C693.5,187.7,692.6,186.5,693.1,187.2z M678.2,128
				C678,128.6,678.4,127.1,678.2,128z M703.1,198.9c-1.6-1.3-2.2-2.1-2.2-2.1c0.1-0.1,0.8,0.6,2.3,2L703.1,198.9z M682.5,170.8
				c-0.5-1.1-0.8-1.8-0.9-2.3c-0.1-0.4-0.1-0.5-0.1-0.5c0.1,0.1,0.5,0.9,0.7,1.3C682.9,171.2,682.5,170.5,682.5,170.8z M679.1,163
				c-0.4-1.6-0.5-2.4-0.4-2.3c0.1,0.1,0.5,1.2,1.2,3.6c0,0.3-0.2-0.3-0.4-0.8C679.2,162.9,679,162.4,679.1,163z M680.4,167.1
				C680.6,167.6,680.1,166.2,680.4,167.1z M688.5,183.6C688.8,184.1,688.1,182.8,688.5,183.6z M676.7,154.8
				c-0.2-1.4-0.5-2.8-0.6-4.3c0-0.6,0.1-0.1,0.3,0.5c0.1,0.6,0.2,1.2,0.3,0.9c0.1,1,0.1,1.6,0.1,1.9
				C676.8,154.2,676.7,154.4,676.7,154.8z M675.3,149.2c-0.1-1.2,0-1.9,0.1-1.8c0.1,0.1,0.3,1,0.5,3.2c-0.1,0.3-0.2-0.3-0.3-0.9
				C675.4,149.1,675.3,148.6,675.3,149.2z M684.4,179.4C684.7,179.9,684,178.5,684.4,179.4z M684.3,179.5
				C684.5,180,683.8,178.6,684.3,179.5z M683.2,178.4C683.4,179,682.8,177.6,683.2,178.4z M673.7,144.9c0.1-0.1,0.2,0.9,0.3,2.2
				c0.1,1.3,0.3,2.8,0.3,3.6C674.2,150.4,673.9,148.2,673.7,144.9z M673.1,137.6c0.1-1,0.2-1.5,0.2-1.7c0.1-0.1,0.2,0.1,0.2,0.6
				c0.1,1,0.2,3.1,0.3,5.5c0.1-1.6,0.1-1.3,0.2-0.8c0.1,0.6,0.2,1.4,0.3,0.8c0,0.8,0,1.9,0.1,2.7c0,0.8,0.1,1.5,0.2,1.6
				c0,1.1,0,1.5,0,1.6c-0.1,0-0.1-0.3-0.2-0.9c-0.2-1.1-0.4-2.9-0.5-3.6c0-0.5,0-1,0-1.4c-0.2,0.9-0.4-0.3-0.4-1.8
				C673.4,138.8,673.3,137.2,673.1,137.6z M684.6,165.6c0.4,1.1,0.7,1.8,1,2.4l1.1,2.5c-1-1.7-1.9-3.1-2.8-4.6
				c-0.8-1.4-1.6-2.8-2.3-4.2c-0.7-1.4-1.4-2.8-2.1-4.5s-1.3-3.4-1.9-5.6c0.1,1.2,0.3,2.5,0.3,2.8c-0.9-3.4-1.4-6.1-1.9-8.3
				c-0.4-2.2-0.8-3.9-1.1-5.5c-0.3-1.5-0.6-2.9-0.8-4.3c-0.2-1.4-0.4-2.9-0.5-4.8c-0.1-1.5,0.1-3.9,0.4-6.3c0.3-2.4,0.6-4.6,0.7-5.6
				c0,0-0.2,0.7-0.3,0.8c0,0.1-0.1,0,0-0.3c0.1-0.3,0.2-1,0.6-2c-0.4,0.9-0.6,1.1-0.6,0.7c0-0.3,0.1-1.2,0.3-2.4
				c-0.5,1.6-0.8,2.7-1,3.3c-0.2,0.6-0.2,0.8-0.3,0.8c0-0.1,0.1-1,0.1-1.2c-0.6,2.2-0.7,2.9-0.7,3.4c0,0.5,0,0.9-0.4,2.6
				c0.4-2.1,0.7-3.1,0.9-3.7c0.2-0.5,0.3-0.6,0.4-0.7l-0.8,2.9c-0.2,0.7-0.4,1.4-0.5,3l0.4,0.1c0.3-1.8,0.7-3.5,0.7-2.9
				c-0.4,1.8-0.7,3.5-0.7,2.9c-0.3,1.5-0.5,3-0.7,4.5c0.1,0.1,0.1,1,0.2,1.2c0.1,0.2,0.2-0.2,0.5-2.6c-0.1,0.8-0.2,2-0.2,3.3
				c-0.1,1.3-0.1,2.6,0,3.7c0,1.1,0.1,1.9,0.1,2c0.1,0.2,0.1-0.2,0.2-1.6c0-1-0.1-1.8-0.1-2.7c0-0.9,0-1.9,0.1-3.2
				c0.2-0.4,0.3,0.3,0.3,1.1c0,0.8,0,1.8,0,1.9c-0.1,1.5-0.2,1.7-0.3,2.9c0.1,0,0,1.8,0,2.9c0.2-0.1,0.3,0.4,0.4,1.5
				c0.1,1.1,0.2,3,0.5,5.8l-0.2,0c0.2,2.1,0.4,3.1,0.6,3.8c0.2,0.7,0.3,1.1,0.6,1.9c-0.3-2-0.3-3-0.4-3.6l-0.1-2.2
				c0.1,0.7,0.3,1.5,0.5,2.9c0.1-0.4,0.2-0.1,0.5,0.8c0.3,1,0.6,2.6,1.2,4.8c0,0.7-0.2,0.3-0.4-0.3c-0.2-0.6-0.5-1.3-0.6-1
				c-0.3-1.4-0.5-2.9-0.6-4.3c0.1,1.8,0.2,2.1,0.1,2.2c0,0.1-0.1,0-0.1,0.7c0.4,2.2,0.8,3.7,1.2,4.6c0.3,0.9,0.5,1.3,0.7,1.4
				c0.3,0.2,0.4-0.6,0.5-0.6c-0.2-1.1-0.6-2.8-0.5-2.8c0.2,1.1,0.6,2.8,0.5,2.8c0.3,1.4,0.5,1.8,0.7,2.4c0.2,0.6,0.4,1.2,1,3.1
				c0.3,0.6,0.9,1.8,1.6,3.3c0.7,1.6,1.6,3.5,2.6,5.8c0.6,0.9,0.1-0.1-0.5-1.4c-0.6-1.3-1.2-2.8-1-2.6c0.4,0.3,1,1.4,1.8,2.8
				c0.8,1.4,1.8,3.2,2.8,4.8c1,1.7,2.1,3.2,3,4.4c0.9,1.1,1.6,1.9,1.9,1.9c-0.9-1.1-1.3-1.8-1.4-2.1c-0.2-0.3-0.1-0.2,0.1,0
				c0.4,0.5,1.2,1.6,1.3,2.1c1.3,1.8,2.2,2.8,2.8,3.3c0.6,0.5,0.9,0.6,1,0.6c-1-1.3-1.9-2.6-1.5-2.3c0.8,1.1,1,1.3,1.7,2.1l-0.2,0.1
				c0.2,0.1,1.5,1.4,3.1,2.8c1.6,1.5,3.7,3.1,5.2,4.1c1.5,1,2.7,1.6,3.1,1.6c0.4,0,0.1-0.5-1.2-1.7l1.8,1.4c0.7,0.6,1.5,1.1,2.2,1.5
				c0.6,0.4,1,0.7,1,0.6c0-0.1-0.5-0.5-1.6-1.5c3.2,2.4,6.4,4,8.5,4.8c1,0.4,1.8,0.6,2.2,0.6c0.4,0,0.4-0.2-0.1-0.6
				c2,1.1,3.6,1.7,4.9,2.1c1.2,0.4,2.2,0.6,3,0.7c0.8,0.1,1.5,0.1,2.4,0.2c0.8,0.1,1.8,0.3,3.1,0.6c0.1,0,0.2,0,0.5,0
				c0.3,0.1,0.9,0.2,1.9,0.6c-0.3,0-1.3-0.3-2.4-0.6c0,0.3-0.6,0.3-1.6,0.2c-1-0.1-2.3-0.4-3.5-0.6c-1.2-0.3-2.3-0.5-2.9-0.6
				c-0.6-0.1-0.7,0.1,0.1,0.6c-2.6-1.2-4.5-2-5.4-2.3c-0.9-0.3-0.9,0,0.4,0.8c-0.9-0.5-1.4-0.8-1.8-1c-0.4-0.2-0.8-0.4-1.5-0.9
				c-0.8-0.1-2.2-0.6-3.8-1.3c-1.6-0.7-3.3-1.6-5-2.6c-1.7-1-3.3-2-4.5-2.7c-1.2-0.7-2.1-1.2-2.5-1.1c-1.3-1.2-2.2-2.1-2.9-2.8
				c-0.7-0.7-1.2-1-1.4-1.2c-0.6-0.4-0.5,0-0.2,0.7l-3.3-3.8c-0.9-1-1.6-1.8-2.2-2.4c-0.8-0.9-1.5-1.4-2.1-1.9
				c-0.6-0.5-1.2-0.9-1.8-1.4c-0.6-0.5-1.3-1.1-2.2-2.1c-0.8-1-1.8-2.2-3-4.1c0.7,1.5,1.1,2.3,1.2,2.6c-1.3-2.6-2-4.1-2-3.9
				c0.7,1.8,0.4,1.3,0.2,1c-0.1-0.2-0.2-0.3-0.1-0.1c0.1,0.2,0.3,0.7,0.8,1.9c-0.5-1-1.1-2.1-1.9-4l-0.2,0.1c0.7,1.6,0.3,0.9,0,0
				c-0.4-0.5-0.9-0.9-1.8-2.5c1.9,4.1,3.9,7.2,5.8,9.8c1.9,2.6,3.8,4.6,5.6,6.4c1.8,1.8,3.6,3.3,5.4,4.9c1.8,1.5,3.8,3.1,6,4.7
				c0.7,0.6,1.3,1.3,2,1.9c-0.7-0.3-1.6-0.9-2.6-1.6c-1-0.7-2-1.5-2.9-2.2c-1.8-1.5-3.2-2.6-2.9-1.7c1.1,0.9,1.6,1.7,2.9,3.2
				c-0.4-0.5,0.4,0.2,0.9,0.7c0.3,0.2,0.5,0.4,0.4,0.3c-0.1-0.1-0.4-0.4-1.1-1.2c-0.2-0.1-0.8-0.7-1-1.1c-0.2-0.3-0.1-0.3,1.1,1
				c0.9,0.9,0.7,0.5,0.8,0.4c0,0,0.2,0,0.5,0.3c0.4,0.3,1,0.9,2.1,1.9c0.2,0.3-0.3-0.1-0.8-0.4c-0.5-0.4-0.9-0.7-0.6-0.2
				c1.7,1.7,2.3,2.1,2.7,2.3c0.4,0.2,0.7,0.3,1.7,1.2c-0.9-0.8-1.4-1.2-1.7-1.5c-0.3-0.3-0.3-0.4-0.3-0.5c-0.6-0.6-1.2-1.1-1-1
				c0.6,0.6,1.2,1.1,1,1c1,0.9,2.1,1.9,3.2,2.7c-0.2-0.3,0.7,0.3,1.4,0.8c0.7,0.5,1.1,0.8,0-0.3c1.3,1.1,2.2,1.8,2.3,1.6
				c-0.1-0.1-0.7-0.6-1.2-1c-0.5-0.4-1-0.8-1-0.8c-0.7-0.5-1.3-1-1-0.9c-0.4-0.3-0.7-0.6-1.1-0.9c-2.2-1.7,0.2,0.3,0.9,1.1
				c-0.8-0.7-1.8-1.5-2.6-2.2c-0.8-0.7-1.4-1.3-1.6-1.5c1.1,1,1.2,0.9,1.4,1c0.2,0.1,0.4,0.3,1.8,1.6c0-0.2,0.9,0.5,2.3,1.6
				c0,0.1-0.6-0.3-1.2-0.7c0.7,0.5,1.3,1,1,0.9c0.7,0.5,1.2,0.8,1.6,1.2c0.5,0.3,0.9,0.7,1.7,1.3c-0.4-0.5-0.5-0.6-0.1-0.4
				c0.4,0.2,1.2,0.8,2.7,1.6c0.9,0.6,1.2,0.9,1,1c0.7,0.4,2.2,1.2,3.5,1.9c1.3,0.7,2.5,1.2,2.7,1.2c-1-0.5-1.5-0.8-1.9-1
				c-0.3-0.2-0.5-0.2-0.6-0.2c-0.1,0-0.3-0.1-0.6-0.2c-0.3-0.2-0.9-0.5-1.8-1.1c1,0.5,1.4,0.6,1.3,0.4c-0.8-0.4-1.3-0.7-1.8-1
				c-0.5-0.3-1-0.5-1.8-1.1c0-0.2,0.7,0.1-1-1c0.1,0.2-1.7-1.1,0,0c1.2,0.5,2.6,1.7,4.7,2.8l0.2-0.3c-0.4-0.2-0.8-0.5-1.2-0.7
				c0,0-1-0.5-1.2-0.7c-1.4-0.9-0.7-0.5,0,0c0.4,0.2,0.8,0.5,1.2,0.7c0,0,1,0.5,1.2,0.7c1.2,0.7,1.4,0.6,1.7,0.7
				c0.2,0.1,0.4,0.2,0.9,0.4c0.5,0.2,1.2,0.6,2.3,1.2c-0.4-0.2-0.9-0.4-1.1-0.4c-0.2,0,0,0.1,1,0.6c0.7,0.2,1.5,0.6,2.3,1
				c0.9,0.4,1.8,0.9,2.7,1.1l0.1-0.4c-1.5-0.6-0.7-0.4,0,0c1,0.4,1.3,0.4,2.6,0.9c0.5-0.1,1.6,0,3.3,0.3c1.7,0.3,4.1,0.8,7.4,1.4
				c-1.9-0.4-3.7-0.8-3.9-1c-0.7-0.2-1.4-0.5,0-0.1c1.6,0.2,2.7,0.3,3.7,0.4c0.9,0,1.7,0,2.5,0c0.8,0,1.6,0,2.7,0l4.4,0.1
				c-1-0.2-1.1-0.4-0.7-0.5c0.4-0.1,1.2-0.2,2.2-0.2c1-0.1,2.1-0.1,3.1-0.2c0.9-0.1,1.7-0.2,1.9-0.3c0.3-0.1,1.3-0.1,2-0.1
				c0.7-0.1,1.2-0.1,0.5-0.2c-1.1,0.1-2.3,0.1-2.5,0.1c1.8-0.2,2.7-0.4,3.6-0.6c0.8-0.2,1.5-0.4,2.7-0.6c-1,0.1-2.5,0.2-2.5,0.1
				c1,0,2.5-0.2,2.5-0.1c0.9-0.1,1.3-0.2,1.3-0.2c0,0-0.3-0.1-0.7-0.1c-0.9,0-2.4,0-3.1,0c2-0.2,3-0.3,3.9-0.5
				c0.9-0.1,1.8-0.3,3.5-0.6c-0.5-0.1,0.8-0.3,1.2-0.5c-1,0.2-1.6,0.3-1.9,0.3c-0.3,0-0.4,0-0.5,0c0-0.1,1.5-0.3,2.4-0.5
				c0-0.1,0.8-0.3,1.6-0.4c0.8-0.2,1.7-0.4,1.9-0.6c-1.9,0.3-2.3,0.2-2,0.1c0.3-0.2,1.2-0.5,1.8-0.9c1-0.2,0.7,0,2.4-0.4
				c-0.8,0.1,0.6-0.3,1.6-0.6c0.5-0.2,0.9-0.3,0.9-0.3c0,0-0.3,0.1-1.4,0.4c-0.1,0.1-0.7,0.3-1.2,0.4c-0.5,0.1-1.1,0.3-1.1,0.2
				c0.4-0.1,1-0.3,1.6-0.5c0.5-0.2,0.9-0.3,0.7-0.3c-0.7,0.2-1.4,0.4-1.2,0.3c-1.1,0.3-0.9,0.1-1.2,0.2c1.2-0.3,2.1-0.6,3-0.9
				c0.9-0.3,1.7-0.6,2.7-1c0.1-0.4,0.6-0.6-0.3-0.7c1.8-0.6,2.8-1.2,3.6-1.6c0.7-0.5,1.1-0.8,1.4-1.2c0.3-0.4,0.6-0.8,1.1-1.2
				c0.5-0.5,1.3-1.1,2.7-2c-1.4,0.7-2,0.9-2.1,1c-0.1,0,0.2-0.2,0.6-0.5c0.9-0.6,2.5-1.5,2.3-1.5c-0.1-0.1-0.9,0.4-1.7,0.9
				c-0.8,0.5-1.5,0.9-1.4,0.7c1.1-0.7,1.7-1.1,2.2-1.4c0.5-0.3,0.8-0.6,1.5-1.2c-0.1,0-0.9,0.4-1.6,0.8c-0.7,0.4-1.4,0.7-1.4,0.7
				c0.9-0.5,1.3-0.8,1.4-0.9c0.1-0.1-0.1,0-0.3,0c-0.2,0-0.3,0-0.2-0.1c0.2-0.2,0.6-0.5,1.6-1.3c-1.2,0.7-0.6,0.2,0,0
				c1.1-0.8,1.8-1.3,2.1-1.6c0.3-0.3,0.3-0.4,0.1-0.5c-0.4,0-1.4,0.3-1.9,0.4c1.4-1.2,2.1-1.9,2.4-2.4c0.3-0.4,0.1-0.6-0.1-0.7
				c-0.2-0.1-0.6-0.1-0.7-0.3c-0.1-0.2-0.1-0.6,0.4-1.3c1-0.8,1.7-1.4,2.2-1.8c0.5-0.5,0.8-0.8,0.9-1c0.3-0.4-0.1-0.3-0.6-0.1
				c-0.6,0.2-1.3,0.6-1.9,0.9c-0.6,0.2-1,0.4-0.7,0.1c-1.4,1.1-2.2,1.6-3,2.1c-0.8,0.5-1.5,0.9-3,1.7c-1.1,0.7-2.6,1.6-4.2,2.5
				c-1.6,0.8-3.3,1.6-4.8,2c-1,0.4-1.6,0.6-2.2,0.7c-0.6,0.1-1,0.3-1.7,0.4c0.1,0.2-2.5,1-5.4,1.6c-1.4,0.3-2.9,0.5-4.1,0.5
				c-1.2,0.1-2.2,0.1-2.5,0c-0.7,0.2-2,0.3-3.3,0.3c-1.2,0.1-2.4,0.1-2.9,0.2c0.7-0.2,1.6-0.4,2.4-0.6c0.9-0.2,1.7-0.5,2.4-0.8
				c0.6-0.3,1-0.5,0.9-0.8c-0.1-0.2-0.6-0.4-1.7-0.6c0.5-0.5,1.4-1,2.4-1.5c1-0.5,2.1-0.9,3-1.4c0.9-0.5,1.7-1,2-1.4
				c0.3-0.5,0.2-0.9-0.5-1.4c-1.3,0.2-1.8,0.3-2,0.2c-0.1,0,0.1-0.1,0.4-0.2c0.3-0.1,0.7-0.2,0.7-0.3c0.1-0.1-0.1-0.1-1,0
				c-0.8,0.4-1.7,0.1-2.6,0.2c-1.7,0.2-2.5,0.3-3.5,0.4c-0.5,0-1.1,0.1-2,0.1c-0.8,0-1.9,0-3.4-0.2c0.1,0.1-0.9,0.1-2.7-0.2
				c0-0.1,0.7-0.1,1.8,0c-1.7-0.4-2.7-0.4-4-0.5c-0.6,0-1.4-0.1-2.3-0.2c-0.9-0.1-2-0.4-3.4-0.8c-0.4-0.3-0.1-0.2,0.4-0.1
				c0.5,0.1,1.2,0.3,1.4,0.3c-1.8-0.5-3-0.8-4-1.1c-1-0.3-1.8-0.5-2.8-1.2c0.1,0.2-1.1-0.2-2.4-0.9c-1.3-0.6-2.8-1.5-3.2-1.8
				c0.3,0.1,1,0.4,1.6,0.7c0.7,0.3,1.4,0.6,1.7,0.7c-0.2-0.2-1.3-0.8-2.4-1.4c-1-0.6-2-1.2-2.1-1.4c0-0.1,0-0.3,0.9,0.3
				c1.1,0.7,0.1,0.4,1.4,1.1c0.2-0.1,0.3-0.2-0.5-0.8c-3.1-1.8-5.7-3.6-7.9-5.5c-2.2-1.9-4.2-4-5.8-6.5c-0.5-0.3-1.2-1.2-2-2.2
				c-0.8-1.1-1.5-2.3-2.3-3.4c0.3,0.3,0.5,0.5,0.5,0.3c0-0.2-0.3-0.8-0.9-2.1c-0.8-0.9-2-3.1-3.2-6.2l0.3-0.1
				c-0.4-1.3-0.6-2.2-0.8-2.9c-0.2-0.7-0.3-1.1-0.5-1.5c-0.1-0.4-0.3-0.7-0.4-1.2c-0.1-0.5-0.3-1.1-0.4-1.9c0.1-0.4,0.3,0.3,0.5,0.9
				c0.2,0.5,0.3,0.9,0.2-0.1c-0.2-1.1-0.2-1.5-0.3-1.6c0-0.1-0.1,0.1-0.1,0.3c0,0.2,0,0.4,0,0.3c0-0.1-0.1-0.5-0.2-1.5
				c-0.1-1.3,0.1,0.3,0.2,0c-0.1-0.9-0.2-1.4-0.2-1.7c-0.1-0.3-0.1-0.5-0.2-0.7c-0.1-0.2-0.1-0.4-0.2-0.8c-0.1-0.4-0.1-1-0.1-2
				c0-1.2,0.1-1.5,0.2-1.6c0.1,0,0.2,0.3,0.3,0.6c0.1,0.3,0.2,0.6,0.3,0.4c0.1-0.1,0.1-0.7,0.2-2.1c0,0.9,0.1,1,0.1,1
				c0.1,0,0.2,0,0.2,0.7c0.1-0.8,0.2-1,0.3-1c0.1,0,0.2,0.3,0.3,0.6c0.2,0.6,0.5,1.3,0.7,0.5c0,0.8,0,1.7,0,2.5
				c0.2-0.4,0.3,0,0.3,0.5c0.1,0.6,0.1,1.4,0,1.9c0.1,0,0.2,1,0.3,1.6c-0.2-0.1-0.3,0.5-0.1,1.7c0.3,0.6,0.3,0,0.3-0.6
				c0-0.6,0.1-1.2,0.4-0.3c0.2,1.3,0.3,1.9,0.2,2.2c0,0.3-0.2,0.3-0.3,0.3c-0.1,0-0.3,0-0.3,0.3c0,0.3,0,1,0.4,2.3
				c0.2-0.7,0.4-0.8,0.5-1.3c0.1-0.3,0.1-0.6,0.1-1.2c0-0.6-0.1-1.4-0.2-2.6c-0.3-1.4-0.6-2.5-0.8-3.9c-0.1-0.7-0.2-1.5-0.2-2.4
				c0-0.9,0-2,0.1-3.4c-0.2,0.9-0.3,0.4-0.3-0.6c0-1,0.2-2.5,0.4-3.4c-0.1,0.1,0.1-1.2,0,0c0,0.1,0.2-0.4,0.3-1.1
				c0.1-0.6,0.3-1.3,0.2-1.3c-0.2,1-0.2,0.5,0,0c0.3-1.3,0.5-2.3,0.7-3.3c0.2-0.9,0.4-1.7,0.6-2.5c0.2-0.8,0.4-1.6,0.7-2.4
				c0.3-0.8,0.6-1.7,1.1-2.8c-0.1,0,0.5-1.1,0,0c-0.5,1.6,0.4,0.1,0.9-0.5c-0.4,0.8-0.6,1.2-0.7,1.4c-0.1,0.2,0,0.1,0.1,0
				c0.2-0.3,0.6-0.9,0.5-0.4c0.5-1,0.7-1.6,0.9-2.1c0.2-0.5,0.4-1,0.8-1.5c-0.1,0.6-0.7,2-1,3.2c-0.3,1.2-0.5,2.1-0.1,1.7
				c0-0.3,0.5-1.3,0.7-1.4c0,0.3-0.2,1.2-0.3,1.8c-0.1,0.6,0,0.9,0.6,0.1c0-0.3-0.1-0.4-0.1-0.7c0-0.3,0.1-0.7,0.6-1.7l0.3,0.1
				c0.6-1,0.6-0.8,0.4-0.5c-0.2,0.4-0.4,0.9-0.4,0.5c-0.6,1.3-0.1,1.1,0.3,0.9c0.2-0.1,0.4-0.2,0.4-0.1c0,0.1-0.1,0.4-0.4,1.1
				c0.1,0.3,0.3,0,1-1.2c0-0.3,0.3-0.9,0.6-1.6c0.4-0.6,0.8-1.3,1-1.9c1-1.4,2-2.7,3-3.8c1-1.1,2.1-2.2,3-3.2
				c0.2-0.6-0.8,0.3-0.9,0.2c1.3-1.4,2.4-2.3,3.4-3.1c1-0.8,1.8-1.4,2.5-2.1c1-0.6,2.3-1.4,3.8-2.3c1.4-0.8,3-1.7,4.5-2.2
				c-1.4,1.1,1.2-0.2,3.1-0.7c-0.6,0.3-0.8,0.4-0.5,0.5c0.3,0,1-0.1,2.1-0.5c-0.4,0-0.6-0.1-0.5-0.2c0.2-0.1,0.7-0.4,1.9-0.7
				c-1.1,0.3-2.1,0.6-2.3,0.5c0.5-0.6,1.5-1.2,2.6-1.9c1.2-0.6,2.6-1.2,4.1-1.8c1.5-0.5,3.2-1,4.8-1.4c1.6-0.4,3.1-0.7,4.4-1
				c2.8,0.2,5.3,0.8,7.4,1.4c2.1,0.6,3.8,1.2,5.1,1.4c0.5,0.2,0.9,0.4,1.4,0.7c0.6,0.3,1.3,0.6,2.4,1.1c0.2,0,1.2,0.3,2.3,0.9
				c1.1,0.5,2.3,1.3,3,1.7c0.2-0.1,1.6,0.6,2.8,1.3c1.2,0.7,2,1.2,1.2,0.4c1,0.7,1.8,1.3,2.4,1.7c0.6,0.4,1,0.6,1.3,0.8
				c0.6,0.3,0.8,0.1,1,0c1.2,0.8,2.2,1.2,3,1.5c0.8,0.2,1.4,0.3,1.9,0.2c1.1-0.1,1.9-0.7,3.1-0.5c0.7,0.1,1.6,0.5,2.2,0.7
				c2,0.5,4,1.1,6.2,2.1c2.2,1,4.5,2.3,7,4.5c1.2,1.1,2.5,2.4,3.8,3.9c1.3,1.6,2.6,3.4,3.8,5.5c1.2,2.2,2.4,4.7,3.4,7.6
				c1,2.9,1.8,6.2,2.3,9.9c-0.1-1.8-0.1-2.8-0.1-3.3c0-0.5,0.1-0.5,0.1-0.3c0.2,0.3,0.4,1.2,0.3-0.2c-0.1-0.5-0.1-1.1-0.2-2.5
				c-0.2-0.5-0.4-1.1-0.6-1.8c-0.2-0.7-0.4-1.7-0.7-3.1c0.1-0.2,0.3,0.4,0.4,0.8c0.2,0.4,0.3,0.8,0.4,0.3c-0.2-1.2-0.5-3-1-5.1
				c-0.5-2.1-1.1-4.4-1.8-6.5c-0.7-2.1-1.5-3.9-2-5.1c-0.6-1.2-0.9-1.7-0.8-1.2c0.3,0.5,0.6,1,1,1.8c0.4,0.8,0.9,2,1.5,3.9
				c-0.9-1.8-1.7-3.2-2.6-4.8c-1-1.6-2.1-3.4-3.7-6c0.3,0.6,0.6,1.2-0.1,0l0.1,0c-0.6-1.1-1-1.6-1-1.8c-0.1-0.2,0.1,0,0.3,0.3
				c0.5,0.6,1.2,1.7,1.1,1.3c-0.9-1.5-1.6-2.3-2.3-3.1c-0.7-0.8-1.3-1.5-2.1-2.8c1,0.9,2.2,2,3.6,3.9c0.7,0.9,1.5,2,2.4,3.4
				c0.9,1.4,1.8,3,2.7,4.9c-0.8-2.3-1.7-3.9-2.5-5.3c-0.8-1.4-1.5-2.4-2.2-3.3c-0.7-0.9-1.4-1.8-2.2-2.7c-0.8-0.9-1.6-1.9-2.7-3.2
				l0.2-0.1c-0.3-0.3-0.5-0.7-0.8-1c-0.1,0.2-1-0.6-2.8-2.5c0.2,0.1,0.7,0.5,0.8,0.6c0.1,0.1-0.1-0.3-1.5-1.6
				c-0.2-0.2-0.1,0.1-1-0.8c0.2,0.2,0.1-0.1,1,0.8c1.2,1.1,2,1.8,2.6,2.4c0.6,0.5,1.1,0.9,1.5,1.3c0.5,0.4,1,0.9,1.7,1.6
				c0.7,0.8,1.6,1.9,2.9,3.7c-0.7-1.5,0.6,0,1.8,1.4c0.6,0.7,1.2,1.4,1.5,1.7c0.3,0.3,0.4,0.2,0.1-0.7c-0.5-0.4-1.8-2.4-3.2-4.4
				c-1.4-2-3-4.1-3.7-5c0.5,1.1-0.1,0.5-1-0.4c-0.9-1-2.2-2.3-3-2.8c-0.6-0.7-1.5-1.8-2.6-2.8c-0.3-0.1-0.8-0.4-1.3-0.7
				c-0.5-0.3-0.9-0.6-1-0.5c-0.9-0.9-1.3-1.3-1.3-1.5c0-0.1,0.2,0,0.4,0c0.2,0.1,0.5,0.2,0.3,0c-0.1-0.2-0.6-0.7-1.7-1.7
				c0.4,0.6-0.6-0.2-2-1.2c-0.7-0.5-1.5-1.1-2.4-1.6c-0.8-0.5-1.6-1-2.2-1.2c-0.7-0.6,0.1-0.2,0.8,0.1c0.6,0.3,1,0.5-0.4-0.6
				c-1.1-0.5-1.8-0.9-2.2-1.3c-0.5-0.4-0.7-0.7-1-0.9c-0.7-0.3-1.6-0.8-2.1-0.9c-0.5-0.1-0.4-0.1,0.8,0.7c-1.9-1.1-3.9-1.9-5.5-2.5
				c-1.7-0.6-3-1.1-3.9-1.5c0.8,0.2,1.2,0.2,1.2,0.1c0-0.1-0.3-0.4-1-0.7c-0.6-0.1-1.1-0.4-2.4-0.8c0.8,0.5-1.3-0.2-3.7-0.8
				c-1.2-0.3-2.4-0.6-3.4-0.8c-1-0.2-1.6-0.3-1.7-0.4c-1.5-0.4-1-0.3-0.3-0.2c0.8,0.1,1.9,0.3,1.6,0.1c-2.3-0.5-3.5-0.7-4.1-0.9
				c-0.6-0.2-0.7-0.3-0.8-0.4c-0.1-0.1-0.2-0.2-0.9-0.4c-0.7-0.2-1.9-0.4-4.3-0.6c0.2,0.2-0.7,0.2-2.6,0.2c0.1-0.1,0.2-0.2-1.3-0.3
				c-0.3,0.1-1.4,0.3-2.8,0.4c-1.4,0.2-3,0.4-4.4,0.6c-1.4,0.2-2.7,0.5-3.3,0.7c-0.6,0.2-0.6,0.3,0.4,0.3c0.5-0.2,1.8-0.5,3.2-0.7
				c1.4-0.2,3.1-0.4,4.4-0.5c2.2,0,3.3,0.1,3.8,0.2c-1.5,0.1-3,0.1-4.5,0.2c-1.5,0.1-3,0.2-4.3,0.5c0.8,0.1,0.7,0.2-0.1,0.5
				c-0.7,0.2-2,0.5-3.5,0.9c-1.5,0.4-3.2,0.9-4.7,1.4c-1.5,0.5-2.9,1-3.7,1.4c1.4-0.4,1.8-0.4,1.6-0.3c-0.2,0.1-0.8,0.3-1.6,0.5
				c-1.5,0.5-3.1,1.1-1.1,0.6c1.4-0.4,3.4-0.9,3.6-0.8c-1.7,0.5-2.9,0.8-3.6,0.8c-0.4,0.1-0.8,0.2-1.2,0.3c-1,0.4-1.3,0.6-1.9,0.9
				c-0.6,0.3-1.5,0.7-3.7,1.5c1.1-0.2,1.4-0.2,1.2,0.1c-0.2,0.3-1,0.7-2.1,1.3c-1.1,0.6-2.5,1.3-3.9,2c-1.5,0.7-3,1.5-4.5,2.1
				c-1.1,0.8-2.1,1.6-2.3,1.9c-0.3,0.3,0.1,0.2,1.6-0.8c-1.8,1.2-2.6,1.9-3.1,2.4c-0.5,0.4-0.5,0.6-0.6,0.8
				c-0.1,0.2-0.1,0.3-0.6,0.7c-0.4,0.4-1.3,1.2-2.8,2.5c-0.2,0.2,0.1,0.1-0.8,0.9c0.2-0.2-0.1-0.1,0.8-0.9c1.9-2.8,4.6-6,8-9
				c3.3-3,7.3-6,11.6-8.5c4.3-2.5,8.9-4.6,13.3-6.1c4.4-1.6,8.5-2.7,11.8-3.6c-0.6,0.1-1.2,0-2.8,0c-0.5,0.2-1.6,0.3-2.7,0.5
				c-1.1,0-1.4,0-2.7,0.1c-1.5,0.1-2.4,0.3-3.1,0.5c-0.7,0.2-1.1,0.3-1.6,0.4c-0.4,0.1-0.9,0.3-1.6,0.5c-0.7,0.2-1.6,0.4-3.1,0.7
				c-0.9,0-3.1,0.3-5.1,0.8c-2,0.4-3.9,1-4.3,1c-1.1,0.5-1.6,0.8-2.3,1.2c-0.7,0.4-1.7,0.9-3.8,1.9c-3,1.1-7,2.9-11,5.5
				c1.6-1,0.9-0.8,1-1c-1.6,1-2.2,1.4-2.7,1.7c-0.5,0.3-0.9,0.5-2,1.3c0.1,0,0,0.2-0.6,0.6c-0.5,0.4-1.4,1.1-2.6,2.1
				c-0.2,0.1-0.7,0.5-1.2,0.9c-0.5,0.4-1,0.8-1,0.8c0-0.3,0.4-1,1.1-1.8c0.7-0.8,1.6-1.8,2.4-2.6c0.8-0.8,1.5-1.5,1.7-1.9
				c0.2-0.4-0.1-0.4-1.1,0.1c-1.6,1.6-4.8,4.3-8.3,8.1c-1.8,1.9-3.7,4-5.5,6.4c-1.9,2.4-3.7,5-5.4,7.8c-1.1,1.5-2,2.7-3,4.3
				c-1,1.6-2.1,3.5-3.5,6.7c0.2-0.1,0.3-0.1-0.3,1.4c-0.8,2.1-1.4,3.4-2,5c-0.5,1.5-1.1,3.2-1.7,5.8c-0.5,3.2-0.6,6.1-0.6,8.9
				c0,2.7,0.2,5.3,0.5,8c0.3,2.6,0.7,5.3,1.3,8.1c0.6,2.9,1.4,5.9,2.5,9.4c-0.5-1-0.8-1.8-1-2.5c-0.3-0.7-0.5-1.5-0.9-2.7
				c0.2,1.3,0.4,2.1,0.6,3.1l0.9,3.6c-0.2-1.9,0.5,1,0.1-1.4c0.5,2.1,0.8,3.1,1,3.8c0.2,0.6,0.4,0.9,0.6,1.4l-0.6-2.2
				c-0.2-0.8-0.4-1.5-0.4-1.7c0.3,1.2,0.7,2.8,1.1,4c0.4,1.2,0.7,1.9,0.5,1.2c-0.3-1-0.8-2.5-0.7-2.6c0.3,1,0.8,2.5,0.7,2.6
				c0.6,1.7,0.9,2.2,0.9,2.1C684.8,166.5,684.7,165.9,684.6,165.6z"/>
		</g>
		<g transform="matrix(3.125,0,0,3.125,-1662.68,1085.13)">
			<path class="st0" d="M675.4,113.7c0,0.2-0.3,0.9-0.5,1.6c-0.2,0.7-0.4,1.3-0.3,1.3c-0.4,1.4-0.4,1.1-0.6,1.4
				c0.2-1,0.4-1.5,0.6-2.1C674.8,115.3,675,114.7,675.4,113.7z"/>
		</g>
		<g transform="matrix(3.125,0,0,3.125,-1662.68,1085.13)">
			<path class="st0" d="M770.5,223.1c0.3,0-1.4,0.4-2.9,0.6c-1.5,0.2-2.8,0.3-1.6,0.1c1-0.1,2-0.3,3-0.4
				C768.7,223.4,769.6,223.3,770.5,223.1z"/>
		</g>
		<g transform="matrix(3.125,0,0,3.125,-1662.68,1085.13)">
			<path class="st0" d="M674.5,165.9C674.6,166.6,674.2,165,674.5,165.9z"/>
		</g>
		<g transform="matrix(3.125,0,0,3.125,-1662.68,1085.13)">
			<path class="st0" d="M671.9,155.6C672,156.2,671.8,154.6,671.9,155.6z"/>
		</g>
		<g transform="matrix(3.125,0,0,3.125,-1662.68,1085.13)">
			<path class="st0" d="M761.6,224.3C761.4,224.2,763.7,224,761.6,224.3z"/>
		</g>
		<g transform="matrix(3.125,0,0,3.125,-1662.68,1085.13)">
			<path class="st0" d="M672,155.6c-0.2-1.2,0-1.5,0.2-0.7c0.3,0.7,0.7,2.4,1.3,5.1c-0.3-1-0.6-1.6-0.8-2.2
				C672.5,157.2,672.3,156.6,672,155.6z"/>
		</g>
		<g transform="matrix(3.125,0,0,3.125,-1662.68,1085.13)">
			<path class="st0" d="M761.5,224.1c0.8-0.1,0.9-0.2,1.3-0.3c0.4-0.1,1.1-0.2,3.1-0.4c-0.8,0.1-0.9,0.2-1.3,0.3
				C764.3,223.9,763.6,224,761.5,224.1z"/>
		</g>
		<g transform="matrix(3.125,0,0,3.125,-1659.77,1074.63)">
			<path class="st0" d="M817.9,156.5c-0.2,1.4-0.4,1.8-0.4,1.7C817.4,158,817.6,157.3,817.9,156.5z M818.3,161.4
				c-0.2,0.8-0.5,1.5-0.7,2.3l-0.1-0.1c0.3-0.7,0.5-1.5,0.7-2.2L818.3,161.4z M818.4,162.7c0.1,0.1-0.4,1.4-0.7,2.3
				C817.6,164.9,818.1,163.6,818.4,162.7z M814.1,173.8c0.1,0.1-0.7,1.3-1.1,2.1C812.9,175.9,813.6,174.6,814.1,173.8z M818.2,165.2
				c-0.3,0.8-0.6,1.5-0.9,2.2l-0.1-0.1c0.3-0.7,0.6-1.5,0.9-2.2L818.2,165.2z M818.3,165.2c0.1,0.1-0.5,1.4-0.8,2.3
				C817.4,167.4,818,166.1,818.3,165.2z M810.8,180.3C811.1,179.9,810.3,180.9,810.8,180.3z M811.2,180.6c-0.6,0.9-1.1,1.4-1.3,1.7
				c-0.3,0.3-0.4,0.3-0.3,0.1c1.1-1.5,1.4-1.9,1.5-2C811.2,180.3,811.1,180.6,811.2,180.6z M810.3,183
				C810.7,182.6,809.8,183.6,810.3,183z M808.6,186.3c0,0.1-0.9,1.2-1.6,1.9C807,188.2,808,187.1,808.6,186.3z M811.2,183.6
				c-0.8,1.1-1.2,1.5-1.3,1.6c-0.1,0.1,0-0.2,0.3-0.5C810.6,184,811.4,182.9,811.2,183.6z M803,194.9c-1.1,1-1.8,1.5-2.2,1.8
				c-0.4,0.3-0.6,0.4-0.7,0.4c-0.2,0-0.1-0.2-1.4,0.7c0.2-0.3,0.9-0.9,1.5-1.3c0.6-0.4,1-0.7,0.5-0.2c1.1-0.9,1.7-1.5,1.9-1.7
				c1.4-1.2,1.3-1.1,0.9-0.6C803.3,194.5,802.7,195.2,803,194.9z M806.7,191.5c0,0.1-1.1,1.2-1.8,1.9
				C805,193.2,806.1,192.2,806.7,191.5z M805.5,193.8c-1.3,1.3-2.1,1.9-2.2,1.8c-0.1-0.1,0.6-0.7,2-2L805.5,193.8z M812.6,188
				c-1.1,1.4-2.3,2.7-3.5,4l-0.1-0.1c1.2-1.3,2.4-2.6,3.5-4L812.6,188z M810.5,191.4c-0.6,0.8-1.2,1.4-1.4,1.4
				C809,192.9,809.3,192.5,810.5,191.4z M796.7,203.9c-1.6,1.1-2.4,1.4-2.2,1.2c0.2-0.2,1.2-0.9,3.1-2.2
				C798.2,202.7,797,203.5,796.7,203.9z M815.9,185.4c0,0.1-0.9,1.4-1.6,2.2C814.3,187.6,815.3,186.3,815.9,185.4z M796.8,204
				C797.2,203.7,796,204.4,796.8,204z M805.2,197.4C805.7,197.1,804.5,198,805.2,197.4z M792.5,207.4c-1.2,0.7-1.9,1-2.2,1.2
				c-0.3,0.1-0.3,0.1-0.1,0c0.4-0.3,1.2-0.8,0.9-0.7C792.8,206.9,792.3,207.4,792.5,207.4z M796,205.2c-0.6,0.5-1,0.7-1,0.6
				C794.9,205.8,795.2,205.5,796,205.2z M771.2,215.6c-0.9,0.3-1.8,0.4-2,0.4C769,215.9,769.5,215.8,771.2,215.6z M787.8,210
				C788.3,209.8,787,210.3,787.8,210z M811.7,192.4c-0.4,0.7-0.7,0.9-0.8,0.9C810.8,193.3,811,192.9,811.7,192.4z M793.9,207
				c-1,0.6-1.3,0.8-1.2,0.8c0,0,0.4-0.3,0.8-0.5C794.3,206.7,795.2,206.1,793.9,207z M811.8,192.6
				C812.2,192.2,811.2,193.2,811.8,192.6z M786.9,211.4c-1.9,0.9-2.6,1-2.4,0.8c0.3-0.2,1.5-0.8,3.4-1.7c0.6-0.1,0.1,0.1-0.3,0.4
				C787.2,211.1,786.7,211.4,786.9,211.4z M791.8,208.9c0,0.1-1.4,0.8-2.4,1.3C789.4,210.1,790.9,209.4,791.8,208.9z M811.3,194
				c-1.5,1.5-1.7,1.6-1.6,1.5c0-0.1,0.3-0.4-0.5,0.2c0.8-0.8,1.3-1.3,1.6-1.6c0.3-0.3,0.4-0.4,0.5-0.4
				C811.3,193.8,811.1,194.2,811.3,194z M801.4,203.5C801.9,203.2,800.6,204,801.4,203.5z M783.4,213.6c-0.7,0.4-1.1,0.5-1.1,0.4
				C782.2,213.9,782.6,213.7,783.4,213.6z M809.9,196.5C810.4,196.1,809.2,197.1,809.9,196.5z M779.6,215.3
				c-1.1,0.4-1.9,0.6-2.3,0.7c-0.4,0.1-0.5,0.1-0.5,0c0.1-0.1,0.9-0.4,1.4-0.6C780,214.8,779.3,215.2,779.6,215.3z M806.9,199.3
				c-0.8,0.7-1.2,0.9-1.2,1c-0.1,0,0.1-0.2,0.4-0.4C806.5,199.4,807.3,198.7,806.9,199.3c0.8-0.7,1.1-1,1.2-1c0.1,0-0.1,0.2-0.3,0.4
				C807.3,199.2,806.5,199.9,806.9,199.3z M788.6,211.7C789.2,211.5,787.8,212.1,788.6,211.7z M799.5,205.5
				C799.3,205.6,801.1,204.4,799.5,205.5C799.6,205.5,797.8,206.7,799.5,205.5z M784.9,213.5C785.4,213.4,784,213.8,784.9,213.5z
				 M804,202.4c-0.7,0.6-1.5,1.1-2.2,1.7l-0.1-0.1c0.7-0.6,1.5-1.1,2.2-1.7L804,202.4z M805.1,201.5c0,0.1-1.3,1.1-2.1,1.8
				C803,203.3,804.3,202.2,805.1,201.5z M785.1,214.2c-1.2,0.5-1.9,0.8-2.3,0.9c-0.4,0.1-0.6,0.1-0.5,0.1c0.1-0.1,0.9-0.6,1.4-0.8
				c1.4-0.6,1.6-0.6,1.5-0.4C785.1,214,784.8,214.3,785.1,214.2z M791.5,211.2c-0.8,0.6-1.7,0.9-1.9,0.9
				C789.4,212.1,789.8,211.8,791.5,211.2z M795.2,209.3c-0.9,0.5-1.3,0.7-1.4,0.7c-0.1,0,0.1-0.1,0.4-0.3c0.6-0.4,1.4-1,0.8-0.7
				c1.5-0.9,1.6-0.9,1.3-0.6C796.1,208.6,795.4,209.1,795.2,209.3z M803.5,203.9c-0.7,0.6-1.5,1.1-2.3,1.7l-0.1-0.1
				c0.8-0.5,1.5-1.1,2.2-1.7L803.5,203.9z M806.7,201.2C807.2,200.8,806,201.8,806.7,201.2z M781.4,216.2
				C782,216.1,780.5,216.5,781.4,216.2z M791.8,211.8c-0.8,0.4-2,1-3.2,1.5c-1.2,0.5-2.4,1-3.3,1.3c0.7-0.4,2.5-1.2,4.1-1.9
				C790.9,212,792.2,211.4,791.8,211.8z M795.5,209.7c-0.6,0.5-1,0.7-1.1,0.6C794.4,210.3,794.7,210,795.5,209.7z M807,201.6
				c-0.9,0.8-1.6,1.3-2,1.5c-0.4,0.2-0.5,0.2-0.4,0c1.6-1.4,2.1-1.8,2.3-1.8C807,201.3,806.8,201.6,807,201.6z M803.7,204.3
				C804.2,204,803,204.8,803.7,204.3z M777.4,217.8L777.4,217.8C775.8,218.2,776.5,217.8,777.4,217.8
				C778.2,217.5,779,217.3,777.4,217.8c-0.1,0.2-1.5,0.5-2.2,0.7c-0.3,0.1-0.5,0.1-0.2,0C775.3,218.3,776,218.2,777.4,217.8z
				 M782.8,216c-0.7,0.4-1.1,0.5-1.2,0.4C781.6,216.3,782,216.1,782.8,216z M786.8,214.4C787.3,214.2,785.9,214.7,786.8,214.4z
				 M794.4,210.6C794.9,210.4,793.5,211,794.4,210.6z M792,212.2c-1.7,0.8-2.4,1-2.7,1c1.9-1,2.5-1.2,2.6-1.2
				C792.1,211.9,791.8,212.2,792,212.2z M798.1,208.6c-0.8,0.7-1.6,1.1-1.8,1.1C796.1,209.7,796.5,209.4,798.1,208.6z M774.8,218.7
				c-0.8,0.3-1.2,0.4-1.2,0.3C773.5,218.9,773.9,218.8,774.8,218.7z M800.6,207.2C801.1,206.9,799.8,207.7,800.6,207.2z
				 M797.1,209.7c-0.8,0.5-1.6,1-2.5,1.5l-0.1-0.1c0.8-0.5,1.6-0.9,2.5-1.4L797.1,209.7z M798.4,209.1
				C798.9,208.8,797.6,209.5,798.4,209.1z M773.5,219.7l-2.4,0.5c-0.9,0.2-1.6,0.3-1.8,0.4c-1.3,0.2-1.7,0.2-1.6,0.2
				c0.1-0.1,0.7-0.2,1.5-0.4l2.6-0.6c0.8-0.2,1.5-0.3,1.7-0.3L773.5,219.7z M770.8,220.4c0,0.1-1.7,0.4-2.8,0.6
				C768,220.9,769.7,220.7,770.8,220.4z M768,221.3C768.6,221.2,767.1,221.4,768,221.3z M772.3,220.6c-1.2,0.3-2,0.4-2.4,0.5
				c-0.4,0.1-0.6,0-0.5,0c0.1-0.1,1-0.4,1.5-0.5C772.7,220.2,772,220.5,772.3,220.6z M793.8,212.5
				C794.3,212.2,792.9,212.9,793.8,212.5z M797.5,210.3c-1.2,0.8-1.9,1.2-2.1,1.3c-0.3,0.1-0.2,0,0.1-0.2c0.6-0.5,2.1-1.5,3-2.2
				c-1.2,0.8-1.9,1.2-2.2,1.3c-0.3,0.1-0.1,0,0.2-0.2c0.6-0.4,1.8-1.2,2-1.2c1.2-0.7,1.8-1.2,2-1.3c0.3-0.2,0.2-0.1,0,0
				c-0.3,0.3-1.2,0.9-0.7,0.7c1.4-1,0.8-0.4,0,0C797.9,209.9,794.6,212.1,797.5,210.3z M795.2,212.1L795.2,212.1
				c-0.7,0.3-1.5,0.7-0.1-0.1c-0.2,0,1.8-1.1,0,0L795.2,212.1C795.9,211.7,796.6,211.3,795.2,212.1
				C795.4,212.1,793.4,213.2,795.2,212.1z M780.8,218.8C781.3,218.6,779.8,219,780.8,218.8z M762.4,222.7c-0.8,0.2-1.2,0.2-1.2,0.1
				C761.1,222.7,761.5,222.6,762.4,222.7z M780.8,218.9C781.4,218.8,779.9,219.2,780.8,218.9z M769.6,222.1
				c-0.2-0.2,0.8-0.7,2.7-1.4c1.9-0.7,4.7-1.7,8.2-3c-1.6,0.8-3.2,1.5-5,2.2C773.7,220.7,771.8,221.4,769.6,222.1z M785,217.7
				C784.2,218,783.4,218.2,785,217.7c-0.4,0-0.1-0.2-1.4,0.3c1.2-0.7,2.7-1,4.1-1.6c-0.5,0,0.1-0.4,1.2-0.9
				c-1.9,0.8-2.7,1.2-3.5,1.5c-0.8,0.3-1.5,0.7-3.2,1.2c-0.8,0.2,0.4-0.3,0.9-0.6c0.3-0.1,0.4-0.2,0.1-0.1c-0.3,0.1-1,0.4-2.5,0.9
				c0.6-0.4,2.6-1.1,3.8-1.7c0.6-0.3,1.1-0.5,1.2-0.6c0.1-0.1-0.2,0-1.2,0.2c1.6-0.6,2.4-1.1,3-1.3c0.6-0.3,0.8-0.4,1-0.6
				c0.2-0.1,0.4-0.3,0.9-0.5l2.7-1.4c-0.2,0,1.8-1,0,0c-1.2,0.7-1.8,1.1-2.2,1.4c-0.4,0.3-0.4,0.5-0.5,0.6c-0.1,0.2-0.2,0.3-0.7,0.7
				c-0.4,0.3-1.2,0.8-2.7,1.4c0.2,0,1.5-0.5,2.7-1.1c1.2-0.6,2.4-1.2,2.6-1.2c0.7-0.4,1.5-0.7,0,0.1l0.1,0.1c0.7-0.4,1.5-0.7,0,0.1
				c-0.1,0.1-0.8,0.5-1.7,0.9l-2.2,1.1c-0.3,0.2,0,0.2-1.3,0.7C786.4,217.2,785.3,217.7,785,217.7z M793,214.1
				C793.5,213.8,792.1,214.5,793,214.1z M790.4,215.5c0,0.1-1.6,0.8-2.6,1.3C787.8,216.7,789.4,216,790.4,215.5z M761,223.5
				c-1.3,0-1.6,0-1.8-0.1c-0.2-0.1-0.2-0.2-1.1-0.2c1.9-0.1,3.8-0.2,5.8-0.4c0.8,0.1,0.1,0.2-0.9,0.4
				C762,223.2,760.9,223.4,761,223.5z M758.1,223.7c-1.3,0-2.2,0-2.6-0.1c-0.3-0.1-0.1-0.1,1.1-0.2c1.6,0,1.7,0,1.6,0.1
				C758.1,223.6,757.7,223.7,758.1,223.7z M782.4,219c0.3-0.2,1.1-0.5,2.7-1.1c-0.2,0,2-0.8,0,0C784.8,218.1,784,218.5,782.4,219
				c-0.1,0.2-1.5,0.6-2.2,0.8c-0.4,0.1-0.5,0.1-0.2,0C780.2,219.8,780.9,219.5,782.4,219z M782.5,219.3c0,0.1-1.7,0.6-2.8,1
				C779.7,220.2,781.4,219.7,782.5,219.3z M758.1,224C758.7,224,757.1,224,758.1,224z M753.7,224.2c-1.7,0-2.1,0-2.4,0
				c-0.3,0-0.6-0.1-2-0.2c1,0,3.1,0,5.8,0C755.2,224.1,754.5,224.1,753.7,224.2c1.5,0,2.3,0,2.6,0c0.3,0,0.1,0-0.2,0.1
				C755.4,224.3,753.8,224.3,753.7,224.2z M788,217.3c-0.1,0.1-0.8,0.4-1.5,0.7c-0.6,0.3-1.3,0.5-1.3,0.4
				C785.9,218.1,786.5,218,788,217.3z M726.2,219.6C726.8,219.8,725.3,219.2,726.2,219.6z M755.2,224.9c0.4-0.1,1.3-0.1,2.1-0.2
				c0.7-0.1,1.2-0.2,0.9-0.3c-1.5,0.1-2.3,0.1-2.6,0.1c-0.3,0-0.1,0,0.2-0.1c0.7,0,2.2-0.1,2.4,0c2-0.1,2.5-0.3,3.2-0.5
				c0.7-0.2,1.5-0.4,4-0.7c-0.1-0.1,0.7-0.2,1.4-0.4c1.1-0.2,1.4-0.2,1.2-0.1c-0.1,0.1-0.7,0.2-1.2,0.3c-0.5,0.1-1,0.1-1.4,0.2
				c0.3,0.1-0.9,0.4-2.1,0.6c-1.2,0.2-2.5,0.4-2.2,0.6c1.8-0.1,0.9,0,0,0c-1.7,0.1-1.9,0.2-2.4,0.3c-0.2,0-0.5,0.1-1,0.1
				C757.2,224.8,756.4,224.9,755.2,224.9z M758.1,224.9C758.7,224.9,757.1,224.9,758.1,224.9z M734.5,222.7
				C735.2,222.9,733.6,222.5,734.5,222.7z M752.2,225.1C752.8,225.2,751.2,225,752.2,225.1z M752.2,225.4
				C752.8,225.4,751.2,225.3,752.2,225.4z M731.5,222.4c-0.2,0-0.9-0.2-1.6-0.4c-0.7-0.2-1.3-0.4-1.3-0.5
				C729.3,221.6,729.9,222,731.5,222.4z M714.7,216.1C715.3,216.4,713.9,215.6,714.7,216.1z M728.5,222.1c-2.1-0.6-3.1-1.1-3.1-1.2
				c0-0.1,1.1,0.2,3.2,1L728.5,222.1z M724.1,220.8C724,220.7,726.2,221.6,724.1,220.8C724.2,221,722.1,220.1,724.1,220.8z
				 M719.7,219.7C720.3,220,718.8,219.2,719.7,219.7z M712.6,216.7c-1.5-0.8-2.2-1.3-2.5-1.5c-0.3-0.2-0.1-0.1,0.2,0
				c0.6,0.3,1.8,0.8,1.1,0.3c1.4,0.8,1.6,0.9,1.4,1C712.7,216.6,712.3,216.5,712.6,216.7z M716.7,218.9c-1.3-0.6-1.8-1-1.5-0.9
				c0.3,0.1,1.3,0.5,3,1.4l-0.1,0.1C716.9,218.9,716.8,218.9,716.7,218.9z M700.8,209.5C701.3,209.9,700.1,208.8,700.8,209.5z
				 M707.2,213.8c0.8,0.6,1,0.8,0.8,0.8c-0.2,0-0.7-0.3-1.4-0.6c-1.3-0.6-2.8-1.5-2.5-1.1c1.4,0.9,2.4,1.4,3.2,1.8
				c0.8,0.4,1.4,0.6,2,0.8c0.7,0.3,1.4,0.6,2.5,1.1c1.1,0.5,2.6,1.3,4.8,2.3c-0.3-0.1-0.9-0.3-1.5-0.6c-0.6-0.3-1.2-0.5-1.4-0.6
				c3.1,1.4,5.7,2.4,8,3.1c2.3,0.7,4.2,1.1,6,1.5c1.7,0.3,3.3,0.5,4.9,0.7c1.5,0.2,3.1,0.3,4.8,0.5c2,0.4,1.2,0.4,1.4,0.6
				c2,0.2,2.7,0.2,2.6,0.1c-0.1-0.1-1.1-0.3-2.4-0.7c2.3,0.4,3.5,0.6,4.4,0.7c0.9,0.1,1.6,0.2,3,0.3c0.9,0,0.9-0.1,1.3-0.2
				c0.4-0.1,1.1-0.1,3.1,0c0.5,0.1,1.3,0.3,1.4,0.4c0.1,0.1-0.6,0.2-2.9,0.1c-0.5,0.3-2.3,0.4-4.2,0.4c-1.9,0-4,0-4.9,0.1
				c1.7,0.3,2.9,0.4,3.7,0.4c0.8,0,1.2,0,1.6-0.1c0.8-0.1,1.3-0.2,3.7-0.2c0.8,0.2-0.1,0.3-0.9,0.4c-0.8,0.1-1.6,0.2-0.7,0.4
				c2.9,0.1,4.8,0,6-0.1c1.2-0.1,1.6-0.2,1.5-0.4c-1.2,0-2.9,0-3-0.1c1,0,2,0,3,0c2.1-0.2,4.9-0.5,7.2-0.8c2.3-0.4,4.2-0.8,4.5-1.2
				c0.2-0.1,0.9-0.3,1.9-0.5c1-0.3,2.1-0.6,3.1-0.9c1-0.3,1.7-0.6,2-0.7c0.2-0.1-0.1-0.1-1.4,0.1c1.2-0.2,1.9-0.4,2.3-0.6
				c0.4-0.1,0.5-0.2,0.5-0.3c-0.8,0.2-1.6,0.3,0-0.1l0,0.1c0.5-0.1,0.9-0.2,1.4-0.4c2.1-0.4,2.5-0.5,2.2-0.2
				c-0.3,0.2-1.4,0.7-2.6,1.2c-1.1,0.4-2.3,0.9-2.7,1.1c-0.4,0.2,0,0.3,2-0.1c1.2-0.3,1.4-0.4,2.8-0.9l0-0.1
				c-1.1,0.3-1.6,0.4-1.6,0.4c0,0,0.3-0.1,0.9-0.3c1.1-0.3,2.9-0.9,3.5-1.2c-0.3,0-0.1-0.1-1.5,0.3c0.2,0-2,0.7,0,0
				c1.7-0.7,3.2-1.2,3.7-1.3c0.3-0.1,0.3,0-0.1,0.1c-0.3,0.2-1,0.5-2.1,0.9c0.5-0.1,2.4-0.7,3.8-1.2c1.5-0.6,2.6-1.1,1.7-0.9
				c-1.7,0.7-0.9,0.2,0,0c2.7-1.2,5.2-2.7,5.1-2.9c-1.5,0.7-2.3,1.1-2.6,1.3c0.7-0.3,1.5-0.6,0,0.1c0,0-1,0.6-1.3,0.6
				c-1.1,0.5-1.8,0.8-2.2,0.9c-0.4,0.1-0.5,0.1-0.6,0.1c1.6-0.6,2.2-0.9,2.4-1c0.2-0.1-0.1,0-0.4,0.1c-0.3,0.1-0.5,0.2-0.4,0.1
				c0.2-0.1,0.8-0.4,2.3-1c0,0,0.6-0.3,1.2-0.6c0.6-0.3,1.3-0.6,1.5-0.6c1.9-1,3-1.8,3.8-2.4c0.8-0.6,1.2-0.9,1.4-1.2
				c0.5-0.5,0.5-0.7,1.8-1.8c0.7-0.6,0.9-0.7,1.3-0.9c0.4-0.2,0.9-0.5,2.2-1.6c1.4-1.2,2.1-2,2-2.1c-0.1-0.1-0.9,0.3-2.5,1.4
				c1.5-1.1,3-2.3,4.5-3.5c2.1-2.6,4.1-5.4,6.1-8.4c1.9-3,3.7-6.2,5.3-9.5c1.1-2.9,2.2-6.1,3.1-9.6c0.9-3.4,1.5-7,1.8-10.5
				c0.3-3.5,0.3-6.9-0.1-9.9c-0.3-3-0.9-5.6-1.7-7.6c-0.4-1.2-1-2.4-1.5-3.3c-0.6-0.9-1.1-1.5-1.7-1.4c0,0-0.4,0.9-0.8,1.6
				c-0.5,0.7-1,1.2-1.3,0.5c-0.1,1.2-0.3,2.1-0.4,3c-0.2,0.8-0.3,1.6-0.5,2.4c-0.2,0.8-0.4,1.6-0.7,2.6c-0.3,1-0.6,2.1-1,3.6
				c-0.3,1.1-0.2,1.3-0.1,1.2c0.1-0.1,0.3-0.4,0.3-0.1c-0.5,1.8-0.8,2.4-1.1,2.9c-0.3,0.5-0.5,0.8-1,2.1c-0.7,2.1-1.1,3.2-1.6,4.4
				c-0.5,1.2-1,2.4-2.3,4.3c0.1,0.1-0.2,0.9-0.7,1.8c-0.5,0.9-1.1,2-1.7,3c-1.5,5.1-3.6,10-6.5,14.6c-2.8,4.6-6.4,9-10.8,13
				c-4.4,4-9.6,7.7-15.9,10.6c-6.3,3-13.6,5.3-22.1,6.3c-4.3,0.4-8.9,0.4-13.5,0c-4.6-0.4-9.2-1.2-13.7-2.4
				c-4.5-1.2-8.8-2.7-12.9-4.5c-4-1.8-7.8-3.8-11.2-6c1.4,1.2,0.7,0.7,0,0c-1.8-1.4-2.4-1.7-2.6-1.7c0.6,0.5,0.9,0.9,0.9,0.9
				c0,0.1-0.3-0.2-1-0.8c-0.1,0.2-1-0.4-2-1.1c-0.9-0.7-1.9-1.4-2.1-1.4c1.7,1.6,3.3,2.8,4.6,3.8c1.4,1,2.6,1.8,3.7,2.5
				c1.2,0.7,2.3,1.3,3.4,2C704.4,212.4,705.7,213.1,707.2,213.8z"/>
		</g>
		<g transform="matrix(3.125,0,0,3.125,-1662.68,1085.13)">
			<path class="st0" d="M770.4,222.8C771.1,222.8,769.5,223,770.4,222.8z"/>
		</g>
		<g transform="matrix(3.125,0,0,3.125,-1662.68,1085.13)">
			<path class="st0" d="M755.8,224.2L755.8,224.2c1.1-0.1,2-0.1,2.4-0.1c0.4,0,0.6,0,0.4,0.1C758.4,224.2,756.9,224.3,755.8,224.2z"
				/>
		</g>
		<g transform="matrix(3.125,0,0,3.125,-1662.68,1085.13)">
			<path class="st0" d="M736.3,222.1C736.9,222.3,735.4,221.8,736.3,222.1z"/>
		</g>
		<g transform="matrix(3.125,0,0,3.125,-1662.68,1085.13)">
			<path class="st0" d="M739.3,222.6C739.9,222.8,738.3,222.4,739.3,222.6z"/>
		</g>
		<g transform="matrix(3.125,0,0,3.125,-1662.68,1085.13)">
			<path class="st0" d="M773.3,222.1c0,0.1-1.8,0.4-2.9,0.7C770.4,222.7,772.2,222.4,773.3,222.1z"/>
		</g>
		<g transform="matrix(3.125,0,0,3.125,-1662.68,1085.13)">
			<path class="st0" d="M779.1,220.6C779.3,220.6,777,221.2,779.1,220.6z"/>
		</g>
		<g transform="matrix(3.125,0,0,3.125,-1662.68,1085.13)">
			<path class="st0" d="M767.4,223.1C768.1,223,766.5,223.2,767.4,223.1z"/>
		</g>
		<g transform="matrix(3.125,0,0,3.125,-1662.68,1085.13)">
			<path class="st0" d="M745.2,223.4C745.8,223.5,744.2,223.2,745.2,223.4z"/>
		</g>
		<g transform="matrix(3.125,0,0,3.125,-1662.68,1085.13)">
			<path class="st0" d="M779.1,220.6C778.9,220.5,781.2,219.9,779.1,220.6z"/>
		</g>
		<g transform="matrix(3.125,0,0,3.125,-1662.68,1085.13)">
			<path class="st0" d="M771.9,222.3c0.8-0.2,0.9-0.3,1.3-0.4c0.4-0.1,1.1-0.3,3-0.8c-0.8,0.2-0.9,0.3-1.3,0.5
				C774.5,221.7,773.8,222,771.9,222.3z"/>
		</g>
		<g transform="matrix(3.125,0,0,3.125,-1662.68,1085.13)">
			<path class="st0" d="M768.9,222.7C768.1,223.2,770.1,222.1,768.9,222.7z"/>
		</g>
		<g transform="matrix(3.125,0,0,3.125,-1662.68,1085.13)">
			<path class="st0" d="M676.6,170C676.8,170.6,676.3,169.1,676.6,170z"/>
		</g>
		<g transform="matrix(3.125,0,0,3.125,-1662.68,1085.13)">
			<path class="st0" d="M781.9,219.4C782,219.4,779.8,220.1,781.9,219.4z"/>
		</g>
		<g transform="matrix(3.125,0,0,3.125,-1662.68,1085.13)">
			<path class="st0" d="M781.9,219.4c0.2-0.2-0.3-0.1,1.3-0.7C783,218.8,783.5,218.8,781.9,219.4z"/>
		</g>
		<g transform="matrix(3.125,0,0,3.125,-1662.68,1085.13)">
			<path class="st0" d="M776.1,220.8C776.3,220.9,774,221.4,776.1,220.8z"/>
		</g>
		<g transform="matrix(3.125,0,0,3.125,-1662.68,1085.13)">
			<path class="st0" d="M771.8,221.8c0,0.1-1.8,0.4-2.9,0.6C768.9,222.3,770.6,222.1,771.8,221.8z"/>
		</g>
		<g transform="matrix(3.125,0,0,3.125,-1662.68,1085.13)">
			<path class="st0" d="M748.2,223.1c0,0-1.2,0-1.5-0.1C747.2,223.1,747.7,223.1,748.2,223.1z"/>
		</g>
		<g transform="matrix(3.125,0,0,3.125,-1662.68,1085.13)">
			<path class="st0" d="M677.8,169.5c-0.4-0.4-1.1-1.3-1.9-3.1c-0.8-1.8-1.7-4.4-2.3-8.1c1.2,4,2.2,7.4,3.5,9.9c0,0-0.3-1-0.6-2
				c-0.3-1-0.7-2.1-0.8-2.2c-0.4-1.6-0.4-2-0.2-1.5c0.3,0.6,0.8,2.1,1.4,4.2C676.9,166.6,677.2,167.8,677.8,169.5z"/>
		</g>
		<g transform="matrix(3.125,0,0,3.125,-1662.68,1085.13)">
			<path class="st0" d="M783.2,218.7c0-0.1,0-0.1,0.3-0.3c0.3-0.2,1-0.4,2.4-1C785.3,217.8,784.5,218.2,783.2,218.7z"/>
		</g>
		<g transform="matrix(3.125,0,0,3.125,-1662.68,1085.13)">
			<path class="st0" d="M778.9,220C780.7,219.5,779.8,219.8,778.9,220z"/>
		</g>
		<g transform="matrix(3.125,0,0,3.125,-1662.68,1085.13)">
			<path class="st0" d="M749.7,223.3c-0.5,0-1-0.1-1.5-0.1C748.2,223.1,749.4,223.2,749.7,223.3z"/>
		</g>
		<g transform="matrix(3.125,0,0,3.125,-1662.68,1085.13)">
			<path class="st0" d="M771.7,221.7C771.9,221.7,769.6,222.1,771.7,221.7z"/>
		</g>
		<g transform="matrix(3.125,0,0,3.125,-1662.68,1085.13)">
			<path class="st0" d="M780.3,219.4C782,218.9,781.2,219.2,780.3,219.4z"/>
		</g>
		<g transform="matrix(3.125,0,0,3.125,-1662.68,1085.13)">
			<path class="st0" d="M771.7,221.7c-0.7,0,0.4-0.2,1.1-0.3c0.4-0.1,0.6-0.1,0.5,0C773.3,221.3,772.8,221.4,771.7,221.7z"/>
		</g>
		<g transform="matrix(3.125,0,0,3.125,-1662.68,1085.13)">
			<path class="st0" d="M678.9,173.9C679.1,174.5,678.5,173,678.9,173.9z"/>
		</g>
		<g transform="matrix(3.125,0,0,3.125,-1662.68,1085.13)">
			<path class="st0" d="M780.3,219.4c-0.5,0.1-0.9,0.3-1.4,0.4C778.9,219.8,780,219.4,780.3,219.4z"/>
		</g>
		<g transform="matrix(3.125,0,0,3.125,-1662.68,1085.13)">
			<path class="st0" d="M672.1,139C672,139.6,672.2,138,672.1,139z"/>
		</g>
		<g transform="matrix(3.125,0,0,3.125,-1662.68,1085.13)">
			<path class="st0" d="M681.7,179.2c-0.5-0.7-0.7-1.1-0.6-1.1C681.2,178,681.4,178.4,681.7,179.2z"/>
		</g>
		<g transform="matrix(3.125,0,0,3.125,-1662.68,1085.13)">
			<path class="st0" d="M767.3,222.1C767.1,222,769.4,221.7,767.3,222.1z"/>
		</g>
		<g transform="matrix(3.125,0,0,3.125,-1662.68,1085.13)">
			<path class="st0" d="M682.6,180.4C682.9,181,682.2,179.5,682.6,180.4z"/>
		</g>
		<g transform="matrix(3.125,0,0,3.125,-1662.68,1085.13)">
			<path class="st0" d="M683.5,181.6C683.8,182.2,683,180.8,683.5,181.6z"/>
		</g>
		<g transform="matrix(3.125,0,0,3.125,-1662.68,1085.13)">
			<path class="st0" d="M681.5,177.6c0.2,0.8-0.4-0.2-0.7-0.9c-0.2-0.4-0.2-0.6-0.2-0.6C680.7,176.3,680.9,176.7,681.5,177.6z"/>
		</g>
		<g transform="matrix(3.125,0,0,3.125,-1662.68,1085.13)">
			<path class="st0" d="M672.7,143.5C672.7,144.1,672.7,142.5,672.7,143.5z"/>
		</g>
		<g transform="matrix(3.125,0,0,3.125,-1662.68,1085.13)">
			<path class="st0" d="M789.7,215L789.7,215c-0.4,0.3-0.9,0.5-1.3,0.7C788.4,215.6,788.5,215.5,789.7,215z"/>
		</g>
		<g transform="matrix(3.125,0,0,3.125,-1662.68,1085.13)">
			<path class="st0" d="M684.4,182.8C684.7,183.3,684,181.9,684.4,182.8z"/>
		</g>
		<g transform="matrix(3.125,0,0,3.125,-1662.68,1085.13)">
			<path class="st0" d="M681.5,177.6C681.5,177.5,682.5,179.5,681.5,177.6z"/>
		</g>
		<g transform="matrix(3.125,0,0,3.125,-1662.68,1085.13)">
			<path class="st0" d="M792.2,213.6c0,0-0.6,0.3-1.2,0.6c-0.6,0.3-1.3,0.6-1.5,0.6C790.5,214.4,791.4,214,792.2,213.6z"/>
		</g>
		<g transform="matrix(3.125,0,0,3.125,-1662.68,1085.13)">
			<path class="st0" d="M685.3,183.9c-0.6-0.6-0.7-1.1-0.7-1.1C684.7,182.8,685,183.1,685.3,183.9z"/>
		</g>
		<g transform="matrix(3.125,0,0,3.125,-1662.68,1085.13)">
			<path class="st0" d="M683.1,180.1C683,180.5,680.4,175,683.1,180.1z"/>
		</g>
		<g transform="matrix(3.125,0,0,3.125,-1662.68,1085.13)">
			<path class="st0" d="M677.2,166.6c-0.1,0-0.6-1.7-1-2.8C676.3,163.9,676.8,165.5,677.2,166.6z"/>
		</g>
		<g transform="matrix(3.125,0,0,3.125,-1662.68,1085.13)">
			<path class="st0" d="M683.1,180.1c-0.2-0.8,0.3,0.2,0.7,0.8c0.2,0.3,0.3,0.6,0.2,0.5C684,181.4,683.7,181.1,683.1,180.1z"/>
		</g>
		<g transform="matrix(3.125,0,0,3.125,-1662.68,1085.13)">
			<path class="st0" d="M673.7,147.8c-0.2-0.3,0,1.7-0.2,1.5l-0.3-3c-0.1-0.8-0.1-1.6-0.2-2.9c0.1,1.1,0.2,1.7,0.3,2.2
				C673.5,146.2,673.6,146.8,673.7,147.8z"/>
		</g>
		<g transform="matrix(3.125,0,0,3.125,-1662.68,1085.13)">
			<path class="st0" d="M686.3,185.1c-0.6-0.6-0.8-1-0.7-1.1C685.7,183.9,686,184.3,686.3,185.1z"/>
		</g>
		<g transform="matrix(3.125,0,0,3.125,-1662.68,1085.13)">
			<path class="st0" d="M677.9,168C678.1,168.5,677.6,167,677.9,168z"/>
		</g>
		<g transform="matrix(3.125,0,0,3.125,-1662.68,1085.13)">
			<path class="st0" d="M691.7,192C692,192.5,691.1,191.3,691.7,192z"/>
		</g>
		<g transform="matrix(3.125,0,0,3.125,-1662.68,1085.13)">
			<path class="st0" d="M687.2,96.3c0.7-1,1-1.4,1.1-1.4c0,0-0.2,0.4-0.5,0.9c-0.6,1-1.4,2.3-1,2c-1,1.5-1.5,2.2-1.6,2.3
				c-0.1,0.1,0.1-0.3,0.4-0.9C686.3,97.9,687.5,96.1,687.2,96.3z"/>
		</g>
		<g transform="matrix(3.125,0,0,3.125,-1662.68,1085.13)">
			<path class="st0" d="M786.8,215.6c-0.5,0.2-0.9,0.4-1.4,0.5l0-0.1C786.2,215.8,787,215.5,786.8,215.6z"/>
		</g>
		<g transform="matrix(3.125,0,0,3.125,-1662.68,1085.13)">
			<path class="st0" d="M684.9,182.5c-0.7-1-0.9-1.4-0.8-1.3c0,0,0.3,0.4,0.6,0.9C685.3,182.9,686,183.9,684.9,182.5z"/>
		</g>
		<g transform="matrix(3.125,0,0,3.125,-1662.68,1085.13)">
			<path class="st0" d="M678,167.9C678,168.1,677.3,165.9,678,167.9z"/>
		</g>
		<g transform="matrix(3.125,0,0,3.125,-1662.68,1085.13)">
			<path class="st0" d="M678,167.9C678.1,167.7,678.8,169.9,678,167.9z"/>
		</g>
		<g transform="matrix(3.125,0,0,3.125,-1662.68,1085.13)">
			<path class="st0" d="M688.3,187.2C688.3,187.4,687.1,185.5,688.3,187.2z"/>
		</g>
		<g transform="matrix(3.125,0,0,3.125,-1662.68,1085.13)">
			<path class="st0" d="M791.9,212.9L791.9,212.9C791.2,213.3,790.4,213.6,791.9,212.9z"/>
		</g>
		<g transform="matrix(3.125,0,0,3.125,-1662.68,1085.13)">
			<path class="st0" d="M688.3,187.2c-0.3-0.7,0.4,0.2,0.8,0.8c0.2,0.3,0.3,0.5,0.3,0.5C689.3,188.5,689,188.1,688.3,187.2z"/>
		</g>
		<g transform="matrix(3.125,0,0,3.125,-1662.68,1085.13)">
			<path class="st0" d="M693.9,194C694.3,194.4,693.3,193.2,693.9,194z"/>
		</g>
		<g transform="matrix(3.125,0,0,3.125,-1662.68,1085.13)">
			<path class="st0" d="M791.8,212.7L791.8,212.7C791.1,213.1,790.3,213.4,791.8,212.7z"/>
		</g>
		<g transform="matrix(3.125,0,0,3.125,-1662.68,1085.13)">
			<path class="st0" d="M688.6,187c0.3,0.4,0.6,0.8,0.9,1.2c1.1,1.5,0.7,1.1,0.1,0.4C689,187.8,688.3,186.7,688.6,187z"/>
		</g>
		<g transform="matrix(3.125,0,0,3.125,-1662.68,1085.13)">
			<path class="st0" d="M687.8,185.8c-0.1,0-1-1.4-1.7-2.4C686.2,183.5,687.1,184.9,687.8,185.8z"/>
		</g>
		<g transform="matrix(3.125,0,0,3.125,-1662.68,1085.13)">
			<path class="st0" d="M689.5,188.2C689.5,188,690.8,189.8,689.5,188.2z"/>
		</g>
		<g transform="matrix(3.125,0,0,3.125,-1662.68,1085.13)">
			<path class="st0" d="M688.6,187c-0.7-1-0.9-1.5-0.8-1.6c0.1-0.1,0.5,0.4,1.2,1.3c0.7,1.1,0.5,0.9,0.2,0.6
				C688.9,186.9,688.4,186.4,688.6,187z"/>
		</g>
		<g transform="matrix(3.125,0,0,3.125,-1662.68,1085.13)">
			<path class="st0" d="M680.8,173.1C680.8,173.3,679.9,171.2,680.8,173.1z"/>
		</g>
		<g transform="matrix(3.125,0,0,3.125,-1662.68,1085.13)">
			<path class="st0" d="M692.4,191.5C692.4,191.6,691,189.9,692.4,191.5z"/>
		</g>
		<g transform="matrix(3.125,0,0,3.125,-1662.68,1085.13)">
			<path class="st0" d="M786.4,214.7C786.6,214.7,784.5,215.5,786.4,214.7z"/>
		</g>
		<g transform="matrix(3.125,0,0,3.125,-1662.68,1085.13)">
			<path class="st0" d="M692.4,191.5C692.3,191.3,693.7,193,692.4,191.5z"/>
		</g>
		<g transform="matrix(3.125,0,0,3.125,-1662.68,1085.13)">
			<path class="st0" d="M786.4,214.7C786.2,214.7,788.3,213.9,786.4,214.7z"/>
		</g>
		<g transform="matrix(3.125,0,0,3.125,-1662.68,1085.13)">
			<path class="st0" d="M675.4,153.5C675.4,154.1,675.3,152.6,675.4,153.5z"/>
		</g>
		<g transform="matrix(3.125,0,0,3.125,-1662.68,1085.13)">
			<path class="st0" d="M693.5,192.4c-1.3-1.3-1.5-1.7-1.4-1.6C692.3,190.8,692.9,191.5,693.5,192.4z"/>
		</g>
		<g transform="matrix(3.125,0,0,3.125,-1662.68,1085.13)">
			<path class="st0" d="M689,186.7C689,186.6,690.3,188.4,689,186.7z"/>
		</g>
		<g transform="matrix(3.125,0,0,3.125,-1662.68,1085.13)">
			<path class="st0" d="M690.1,187.8C690.4,188.3,689.5,187,690.1,187.8z"/>
		</g>
		<g transform="matrix(3.125,0,0,3.125,-1662.68,1085.13)">
			<path class="st0" d="M691.9,190c-0.1-0.1-0.6-0.7-1.1-1.4c-0.6-0.7-1.2-1.5-1.5-2c-0.3-0.4,0.6,0.7,1.4,1.8
				C691.6,189.4,692.4,190.4,691.9,190z"/>
		</g>
		<g transform="matrix(3.125,0,0,3.125,-1662.68,1085.13)">
			<path class="st0" d="M678.1,163.3C678.3,163.9,677.9,162.4,678.1,163.3z"/>
		</g>
		<g transform="matrix(3.125,0,0,3.125,-1662.68,1085.13)">
			<path class="st0" d="M699.8,198.3C700.2,198.7,699.1,197.6,699.8,198.3z"/>
		</g>
		<g transform="matrix(3.125,0,0,3.125,-1662.68,1085.13)">
			<path class="st0" d="M694.8,193.2c-0.7-0.8-0.9-1.1-0.9-1.2c0-0.1,0.2,0.2,0.5,0.4c0.5,0.5,1.3,1.3,0.8,0.5
				c1.2,1.5,1.7,2.1,1.7,2.3C695.7,194,695.1,193.3,694.8,193.2z"/>
		</g>
		<g transform="matrix(3.125,0,0,3.125,-1662.68,1085.13)">
			<path class="st0" d="M678.9,164.5c0.3,1,0.4,1.5,0.5,1.6c0,0.1-0.1-0.1-0.2-0.5c-0.3-0.7-0.7-1.7-0.5-1c-0.5-1.7-0.5-1.8-0.3-1.5
				C678.5,163.5,678.8,164.3,678.9,164.5z"/>
		</g>
		<g transform="matrix(3.125,0,0,3.125,-1662.68,1085.13)">
			<path class="st0" d="M701,199c0.4,0.7-0.4,0-0.9-0.6c-0.3-0.3-0.4-0.5-0.4-0.5C699.9,198,700.2,198.3,701,199z"/>
		</g>
		<g transform="matrix(3.125,0,0,3.125,-1662.68,1085.13)">
			<path class="st0" d="M693.1,190.9C692.3,190.4,694.2,191.5,693.1,190.9z"/>
		</g>
		<g transform="matrix(3.125,0,0,3.125,-1662.68,1085.13)">
			<path class="st0" d="M701,199C701,198.9,702.6,200.4,701,199z"/>
		</g>
		<g transform="matrix(3.125,0,0,3.125,-1662.68,1085.13)">
			<path class="st0" d="M683.2,175.2C683.4,175.7,682.8,174.3,683.2,175.2z"/>
		</g>
		<g transform="matrix(3.125,0,0,3.125,-1662.68,1085.13)">
			<path class="st0" d="M703.4,200.7C703.8,201.1,702.7,200,703.4,200.7z"/>
		</g>
		<g transform="matrix(3.125,0,0,3.125,-1662.68,1085.13)">
			<path class="st0" d="M701.3,198.7c-0.9-0.6-1.4-1.3-1.5-1.4C699.7,197.1,700.1,197.5,701.3,198.7z"/>
		</g>
		<g transform="matrix(3.125,0,0,3.125,-1662.68,1085.13)">
			<path class="st0" d="M704.5,201.5c-1.1-0.9-1.1-1.1-0.6-0.8c0.5,0.3,1.7,1.1,3.1,2.2C706,202.3,705,201.7,704.5,201.5z"/>
		</g>
		<g transform="matrix(3.125,0,0,3.125,-1662.68,1085.13)">
			<path class="st0" d="M699.4,196.6c0,0-0.5-0.4-1-0.9c-0.5-0.5-0.9-1-1-1.2C698.1,195.3,698.7,196,699.4,196.6z"/>
		</g>
		<g transform="matrix(3.125,0,0,3.125,-1662.68,1085.13)">
			<path class="st0" d="M708.2,203.7c-1.1-0.8-1.6-1.2-1.8-1.4c-0.1-0.2,0.1-0.1,0.4,0.1c0.7,0.4,1.9,1.1,1.7,0.8
				C712.8,206.5,707.9,203.1,708.2,203.7z"/>
		</g>
		<g transform="matrix(3.125,0,0,3.125,-1662.68,1085.13)">
			<path class="st0" d="M685.4,177.2C684.8,176.6,686.4,178,685.4,177.2z"/>
		</g>
		<g transform="matrix(3.125,0,0,3.125,-1662.68,1085.13)">
			<path class="st0" d="M713.1,206.4c-0.8-0.3-1.1-0.6-1-0.7C712.2,205.7,712.5,205.8,713.1,206.4z"/>
		</g>
		<g transform="matrix(3.125,0,0,3.125,-1662.68,1085.13)">
			<path class="st0" d="M710.9,204.7c-0.8-0.3-1-0.6-1-0.7C709.9,204,710.3,204.2,710.9,204.7z"/>
		</g>
		<g transform="matrix(3.125,0,0,3.125,-1662.68,1085.13)">
			<path class="st0" d="M687.3,179.4C687.6,179.9,686.9,178.5,687.3,179.4z"/>
		</g>
		<g transform="matrix(3.125,0,0,3.125,-1662.68,1085.13)">
			<path class="st0" d="M713.5,205.9c0.2,0.3-1.4-0.7-1.3-0.5c-1.4-1-1.5-1.1-1.1-0.9c0.4,0.2,1.1,0.6,1.3,0.7
				C712.7,205.4,713.1,205.6,713.5,205.9z"/>
		</g>
		<g transform="matrix(3.125,0,0,3.125,-1662.68,1085.13)">
			<path class="st0" d="M677.8,144.7C677.8,145.3,677.9,143.8,677.8,144.7z"/>
		</g>
		<g transform="matrix(3.125,0,0,3.125,-1662.68,1085.13)">
			<path class="st0" d="M716.1,206.8c-0.5-0.4,0.6,0.2,1.5,0.5c0.8,0.4,1.4,0.6-0.1-0.2c0.1,0,0.9,0.4,1.5,0.7
				c0.7,0.3,1.3,0.6,1,0.4c1.2,0.6,1.7,0.9,1.8,1c0.1,0.1-0.2,0-0.5-0.1c-0.7-0.3-1.6-0.6-0.3,0.2c-1.2-0.7-1.8-1-2.4-1.3
				C718,207.8,717.3,207.5,716.1,206.8z"/>
		</g>
		<g transform="matrix(3.125,0,0,3.125,-1662.68,1085.13)">
			<path class="st0" d="M747.3,65.7C746.8,65.7,748.2,65.7,747.3,65.7z"/>
		</g>
		<g transform="matrix(3.125,0,0,3.125,-1662.68,1085.13)">
			<path class="st0" d="M678.3,147.5c-0.2-0.8-0.2-1.2-0.1-1.2C678.3,146.3,678.4,146.6,678.3,147.5z"/>
		</g>
		<g transform="matrix(3.125,0,0,3.125,-1662.68,1085.13)">
			<path class="st0" d="M722.3,72.6c0.2,0-1.5,0.9-1.1,0.9c-1,0.4-2,0.9-3.7,1.8c0.9-0.5,1.4-0.8,1.9-1.2
				C720,73.8,720.7,73.4,722.3,72.6z"/>
		</g>
		<g transform="matrix(3.125,0,0,3.125,-1662.68,1085.13)">
			<path class="st0" d="M748.7,65.7C747.1,65.9,747.9,65.7,748.7,65.7z"/>
		</g>
		<g transform="matrix(3.125,0,0,3.125,-1662.68,1085.13)">
			<path class="st0" d="M736.5,67.7c0.9-0.2,1.4-0.3,2-0.4c0.6-0.1,1.1-0.2,2.1-0.4c-0.2,0.1-1,0.3-2.1,0.5c-1,0.2-2.3,0.5-3.2,0.8
				C736,68,736.6,67.8,736.5,67.7z"/>
		</g>
		<g transform="matrix(3.125,0,0,3.125,-1662.68,1085.13)">
			<path class="st0" d="M679.3,151.5C679.4,152.1,679.2,150.6,679.3,151.5z"/>
		</g>
		<g transform="matrix(3.125,0,0,3.125,-1662.68,1085.13)">
			<path class="st0" d="M723.8,72.5C723.2,72.7,724.6,72.2,723.8,72.5z"/>
		</g>
		<g transform="matrix(3.125,0,0,3.125,-1662.68,1085.13)">
			<path class="st0" d="M679.8,152.8c0,0.5,0.1,1.6-0.2,0c-0.1-0.9-0.1-1.3-0.1-1.3C679.6,151.5,679.7,152,679.8,152.8z"/>
		</g>
		<g transform="matrix(3.125,0,0,3.125,-1662.68,1085.13)">
			<path class="st0" d="M818.1,183.6C818,183.6,819.2,181.9,818.1,183.6z"/>
		</g>
		<g transform="matrix(3.125,0,0,3.125,-1662.68,1085.13)">
			<path class="st0" d="M735.8,212.1L735.8,212.1C736.6,212.2,737.3,212.5,735.8,212.1z"/>
		</g>
		<g transform="matrix(3.125,0,0,3.125,-1662.68,1085.13)">
			<path class="st0" d="M742.4,212.9C743,213,741.6,212.7,742.4,212.9z"/>
		</g>
		<g transform="matrix(3.125,0,0,3.125,-1662.68,1085.13)">
			<path class="st0" d="M745.1,213.1C745.6,213.2,744.2,212.9,745.1,213.1z"/>
		</g>
		<g transform="matrix(3.125,0,0,3.125,-1662.68,1085.13)">
			<path class="st0" d="M763.3,69.9C762.8,69.8,764.1,70.1,763.3,69.9z"/>
		</g>
		<g transform="matrix(3.125,0,0,3.125,-1662.68,1085.13)">
			<path class="st0" d="M773.4,72.4c-1-0.2-1.4-0.2-1.3,0c-1.8-0.4-2.4-0.6-2.1-0.6C770.3,71.7,771.6,71.9,773.4,72.4z"/>
		</g>
		<g transform="matrix(3.125,0,0,3.125,-1662.68,1085.13)">
			<path class="st0" d="M792.3,80.4C791.9,80.1,793,80.9,792.3,80.4z"/>
		</g>
		<g transform="matrix(3.125,0,0,3.125,-1662.68,1085.13)">
			<path class="st0" d="M774.6,73C774,72.8,775.4,73.3,774.6,73z"/>
		</g>
		<g transform="matrix(3.125,0,0,3.125,-1662.68,1085.13)">
			<path class="st0" d="M773.3,72.9C772.7,72.7,774.1,73.1,773.3,72.9z"/>
		</g>
		<g transform="matrix(3.125,0,0,3.125,-1662.68,1085.13)">
			<path class="st0" d="M796.4,83.5C796,83.2,797.1,84,796.4,83.5z"/>
		</g>
		<g transform="matrix(3.125,0,0,3.125,-1662.68,1085.13)">
			<path class="st0" d="M784,76.9C783.6,76.6,784.8,77.3,784,76.9z"/>
		</g>
		<g transform="matrix(3.125,0,0,3.125,-1662.68,1085.13)">
			<path class="st0" d="M755.5,211.3C757.1,211.2,756.3,211.4,755.5,211.3z"/>
		</g>
		<g transform="matrix(3.125,0,0,3.125,-1662.68,1085.13)">
			<path class="st0" d="M747.9,71.8C747.4,71.8,748.8,71.7,747.9,71.8z"/>
		</g>
		<g transform="matrix(3.125,0,0,3.125,-1662.68,1085.13)">
			<path class="st0" d="M744.2,72.3C743.7,72.4,745,72.2,744.2,72.3z"/>
		</g>
		<g transform="matrix(3.125,0,0,3.125,-1662.68,1085.13)">
			<path class="st0" d="M746.7,72c1.2-0.1,1.6-0.1,1.5-0.1c0,0-0.5,0.1-1.1,0.2c-1.1,0.2-2.6,0.5-1.6,0.5c-1.1,0.1-2.8,0.3-5,0.8
				c0.4-0.3,1.9-0.6,3.2-0.8C745.2,72.3,746.5,72.1,746.7,72z"/>
		</g>
		<g transform="matrix(3.125,0,0,3.125,-1662.68,1085.13)">
			<path class="st0" d="M758,210.9C757.9,210.8,759.9,210.8,758,210.9z"/>
		</g>
		<g transform="matrix(3.125,0,0,3.125,-1662.68,1085.13)">
			<path class="st0" d="M738.1,74.2c0.8-0.2,1.6-0.4,2.4-0.6l0,0.1c-0.8,0.2-1.6,0.4-2.4,0.6L738.1,74.2z M735.8,75.3
				c-2.7,0.8-4.5,1.4-4.7,1.7c1.7-0.6,2.6-0.9,3-1c0.4-0.1,0.3,0,0.2,0.1c-0.4,0.2-1.1,0.5,0.5,0.1l4.4-1.6c1.2-0.4,2.4-0.9,3.9-1.3
				c-1.2,0.2-1.6,0.2-2.1,0.3c-0.5,0.1-1.1,0.1-2.8,0.6c-0.4,0.2-1.8,0.7-2.7,1c-0.5,0.2-0.8,0.3-0.8,0.4
				C734.6,75.5,735,75.5,735.8,75.3z"/>
		</g>
		<g transform="matrix(3.125,0,0,3.125,-1662.68,1085.13)">
			<path class="st0" d="M810.6,99.6C810.6,99.5,811.7,101,810.6,99.6z"/>
		</g>
		<g transform="matrix(3.125,0,0,3.125,-1662.68,1085.13)">
			<path class="st0" d="M819.5,114.6C819.5,114.4,820.2,116.2,819.5,114.6z"/>
		</g>
		<g transform="matrix(3.125,0,0,3.125,-1662.68,1085.13)">
			<path class="st0" d="M817.8,111.2C817.9,111.1,818.7,112.8,817.8,111.2z"/>
		</g>
		<g transform="matrix(3.125,0,0,3.125,-1662.68,1085.13)">
			<path class="st0" d="M819.5,114.6C819.4,114.7,818.7,112.9,819.5,114.6z"/>
		</g>
		<g transform="matrix(3.125,0,0,3.125,-1662.68,1085.13)">
			<path class="st0" d="M817.8,111.2c-0.2-0.2-0.1,0-0.7-1C817.3,110.4,817.3,110.1,817.8,111.2z"/>
		</g>
		<g transform="matrix(3.125,0,0,3.125,-1662.68,1085.13)">
			<path class="st0" d="M818.2,112.4C818,111.9,818.5,113.2,818.2,112.4z"/>
		</g>
		<g transform="matrix(3.125,0,0,3.125,-1662.68,1085.13)">
			<path class="st0" d="M817.1,110.2C817,110.5,814.8,105.9,817.1,110.2z"/>
		</g>
		<g transform="matrix(3.125,0,0,3.125,-1662.68,1085.13)">
			<path class="st0" d="M732.4,76.8c-0.6,0.2-0.7,0.3-1,0.5c-0.3,0.2-0.9,0.4-2.4,1c0.6-0.3,0.7-0.4,1-0.6
				C730.3,77.6,730.8,77.3,732.4,76.8z"/>
		</g>
		<g transform="matrix(3.125,0,0,3.125,-1662.68,1085.13)">
			<path class="st0" d="M734.8,76.2C734.3,76.3,735.6,76,734.8,76.2z"/>
		</g>
		<g transform="matrix(3.125,0,0,3.125,-1662.68,1085.13)">
			<path class="st0" d="M815.7,108.2C815.7,108,816.6,109.7,815.7,108.2z"/>
		</g>
		<g transform="matrix(3.125,0,0,3.125,-1662.68,1085.13)">
			<path class="st0" d="M767.7,207.9C767.6,207.9,769.5,207.6,767.7,207.9z"/>
		</g>
		<g transform="matrix(3.125,0,0,3.125,-1662.68,1085.13)">
			<path class="st0" d="M726.8,79.5c3.3-1.5,6.5-2.5,5.8-2c-1.8,0.5-2.7,0.9-3,1.1c-0.3,0.2,0.1,0.1,0.8,0c-1.5,0.6-1.7,0.6-2.1,0.7
				c-0.3,0.1-0.7,0.2-2.5,1C726.7,79.8,727,79.6,726.8,79.5z"/>
		</g>
		<g transform="matrix(3.125,0,0,3.125,-1662.68,1085.13)">
			<path class="st0" d="M767.7,207.7C769.2,207.4,768.5,207.7,767.7,207.7z"/>
		</g>
		<g transform="matrix(3.125,0,0,3.125,-1662.68,1085.13)">
			<path class="st0" d="M729.4,79.2c-0.8,0.3-1.3,0.5-1.7,0.7c-0.5,0.2-0.9,0.4-1.6,0.8c-0.3,0.1-1,0.3-2.2,1c0.5-0.4,1.5-1,2.1-1.3
				C727.2,79.8,729.2,79.1,729.4,79.2z"/>
		</g>
		<g transform="matrix(3.125,0,0,3.125,-1662.68,1085.13)">
			<path class="st0" d="M772.4,206.1C772.9,206,771.6,206.2,772.4,206.1z"/>
		</g>
		<g transform="matrix(3.125,0,0,3.125,-1662.68,1085.13)">
			<path class="st0" d="M726,80.7C726.2,80.7,724.5,81.5,726,80.7z"/>
		</g>
		<g transform="matrix(3.125,0,0,3.125,-1662.68,1085.13)">
			<path class="st0" d="M723.9,81.9C722.6,82.6,723.2,82.1,723.9,81.9z"/>
		</g>
		<g transform="matrix(3.125,0,0,3.125,-1662.68,1085.13)">
			<path class="st0" d="M723.9,81.9c1.5-0.8,2.4-1.1,3.3-1.5c-0.2,0.4-1.9,1.4-2.9,2.2c-1.4,0.6-0.8,0.2-0.1-0.3
				c0.7-0.5,1.6-1.1,0.9-0.9c-1.3,0.6-1.4,0.8-1.6,1c-0.3,0.2-0.7,0.5-2.5,1.5C721.8,83.4,722.4,82.8,723.9,81.9z"/>
		</g>
		<g transform="matrix(3.125,0,0,3.125,-1662.68,1085.13)">
			<path class="st0" d="M776.8,203.9C778.1,203.5,777.5,203.8,776.8,203.9z"/>
		</g>
		<g transform="matrix(3.125,0,0,3.125,-1662.68,1085.13)">
			<path class="st0" d="M776.8,203.9c-0.8,0.3-1.5,0.5-2.3,0.7c0.2-0.1-0.5,0.1-1.2,0.3c0-0.1,0.9-0.3,1.1-0.5
				c0.8-0.2,1-0.3,1.3-0.3C775.9,204.1,776.1,204.1,776.8,203.9L776.8,203.9z"/>
		</g>
		<g transform="matrix(3.125,0,0,3.125,-1662.68,1085.13)">
			<path class="st0" d="M780.9,201.5C781.4,201.3,780.2,201.7,780.9,201.5z"/>
		</g>
		<g transform="matrix(3.125,0,0,3.125,-1662.68,1085.13)">
			<path class="st0" d="M788.4,193.3c-0.5,0.5-0.8,0.6-0.8,0.5C787.6,193.8,787.8,193.6,788.4,193.3z"/>
		</g>
		<g transform="matrix(3.125,0,0,3.125,-1662.68,1085.13)">
			<path class="st0" d="M765.6,195.9c-0.7,0.3-1.3,0.3-1.5,0.2C763.9,196.1,764.3,196,765.6,195.9z"/>
		</g>
		<g transform="matrix(3.125,0,0,3.125,-1662.68,1085.13)">
			<path class="st0" d="M774.4,193.6C774.3,193.5,775.8,193,774.4,193.6z"/>
		</g>
		<g transform="matrix(3.125,0,0,3.125,-1662.68,1085.13)">
			<path class="st0" d="M791,184.1C791.4,183.9,790.5,184.5,791,184.1z"/>
		</g>
		<g transform="matrix(3.125,0,0,3.125,-1662.68,1085.13)">
			<path class="st0" d="M763,192C763.4,192,762.3,192,763,192z"/>
		</g>
		<g transform="matrix(3.125,0,0,3.125,-1662.68,1085.13)">
			<path class="st0" d="M763.4,188.9C763.3,188.9,764.7,188.7,763.4,188.9z"/>
		</g>
		<g transform="matrix(3.125,0,0,3.125,-1662.68,1085.13)">
			<path class="st0" d="M750.1,189.2c-0.5-0.1-1-0.1-0.9-0.2C749.8,189.1,750.3,189.1,750.1,189.2z"/>
		</g>
		<g transform="matrix(3.125,0,0,3.125,-1662.68,1085.13)">
			<path class="st0" d="M708.9,157.8c-0.7-2,0.1-0.3,0.3-0.1C710,159.7,709,158,708.9,157.8z"/>
		</g>
		<g transform="matrix(3.125,0,0,3.125,-1662.68,1085.13)">
			<path class="st0" d="M723.1,177.4c-0.2,0-1.3-1-2-1.7C721.2,175.7,722.3,176.7,723.1,177.4z"/>
		</g>
		<g transform="matrix(3.125,0,0,3.125,-1662.68,1085.13)">
			<path class="st0" d="M706.8,149.5c0.2-0.1,0.6,0.4,1.1,1.1c0.5,0.7,1,1.7,1.4,2.7c-0.4-0.4-0.8-0.6-1.2-1
				C707.7,151.8,707.3,151,706.8,149.5z"/>
		</g>
		<g transform="matrix(3.125,0,0,3.125,-1662.68,1085.13)">
			<path class="st0" d="M706.8,146.8c-0.1,0.5-0.2-0.2-0.3-0.6C706.6,145.8,706.6,145.5,706.8,146.8z"/>
		</g>
		<g transform="matrix(3.125,0,0,3.125,-1662.68,1085.13)">
			<path class="st0" d="M706.6,144.3C706.6,144.6,706.6,143.7,706.6,144.3z"/>
		</g>
		<g transform="matrix(3.125,0,0,3.125,-1662.68,1085.13)">
			<path class="st0" d="M706.8,146.8c0.2,0.5,0.3,0.4,0.4,0.5c0.1,0.1,0.3,0.5,0.5,1.9c-0.2-0.7-0.3-0.8-0.5-0.9
				C707.2,148.3,707,148,706.8,146.8z"/>
		</g>
		<g transform="matrix(3.125,0,0,3.125,-1662.68,1085.13)">
			<path class="st0" d="M707,140.8c0.3-0.5,0.3,0.1,0.3,0.6C707.2,141.9,707.1,142.1,707,140.8z"/>
		</g>
		<g transform="matrix(3.125,0,0,3.125,-1662.68,1085.13)">
			<path class="st0" d="M708,149.2C707.5,148.3,708.1,148.2,708,149.2z"/>
		</g>
		<g transform="matrix(3.125,0,0,3.125,-1662.68,1085.13)">
			<path class="st0" d="M708.6,150c-0.2-0.9-0.2-1.3-0.2-1.5c0-0.2,0.1-0.2,0.1-0.2c0.1,0.7,0.1,0.8,0.2,1.6L708.6,150z"/>
		</g>
		<g transform="matrix(3.125,0,0,3.125,-1662.68,1085.13)">
			<path class="st0" d="M708.4,143.3C708.4,144.3,708.3,143.8,708.4,143.3z"/>
		</g>
		<g transform="matrix(3.125,0,0,3.125,-1662.68,1085.13)">
			<path class="st0" d="M708.7,145.8c0.1,1.2,0,1-0.1,0.6C708.6,146,708.5,145.4,708.7,145.8z"/>
		</g>
		<g transform="matrix(3.125,0,0,3.125,-1662.68,1085.13)">
			<path class="st0" d="M709.6,134.4c-0.1,0,0.1-1,0.2-1.6C709.8,132.8,709.6,133.7,709.6,134.4z"/>
		</g>
		<g transform="matrix(3.125,0,0,3.125,-1662.68,1085.13)">
			<path class="st0" d="M709.7,134.4C709.6,134.7,709.8,133.9,709.7,134.4z"/>
		</g>
		<g transform="matrix(3.125,0,0,3.125,-1662.68,1085.13)">
			<path class="st0" d="M713.9,121.4c0.4-0.3,0.1,0.3-0.1,0.6C713.5,122.3,713.3,122.5,713.9,121.4z"/>
		</g>
		<g transform="matrix(3.125,0,0,3.125,-1662.68,1085.13)">
			<path class="st0" d="M713.2,123.8C713.1,124,713.5,123.3,713.2,123.8z"/>
		</g>
		<g transform="matrix(3.125,0,0,3.125,-1662.68,1085.13)">
			<path class="st0" d="M715.2,123.8C715.3,122.9,715.9,123.1,715.2,123.8z"/>
		</g>
		<g transform="matrix(3.125,0,0,3.125,-1662.68,1085.13)">
			<path class="st0" d="M715.6,124C715.4,124.2,715.8,123.5,715.6,124z"/>
		</g>
		<g transform="matrix(3.125,0,0,3.125,-1662.68,1085.13)">
			<path class="st0" d="M716.4,122.7C716,123.5,716.1,123.1,716.4,122.7z"/>
		</g>
	</g>
	<g transform="matrix(0.999944,0,0,0.999944,219.272,-510.788)">
		<g transform="matrix(2.21159,0,0,2.21159,-624.621,416.12)">
			<path class="st0" d="M328.8,192.8c23.3-2.8,44.1,5.5,48.1,32.1c11.2,74.2-101.7,56.5-86.6-6.4
				C292.9,207.5,302.4,195.9,328.8,192.8z M328.8,266.6c53.9,6.2,48.5-87.7-9.6-64.1C287.2,215.4,298.4,263.1,328.8,266.6z"/>
		</g>
		<g transform="matrix(2.21159,0,0,2.21159,-624.621,416.12)">
			<path class="st0" d="M332,222.2c6.5-0.3,11.9,9.6,8.9,15.2c-2.7,5.2-10.5,5.4-13.7,0.6c-3.1-4.6-2.4-14.7,4.2-15.7
				C331.6,222.2,331.8,222.2,332,222.2z"/>
		</g>
	</g>
</g>
</svg>
